<svg viewBox="0 0 330 200" xmlns="http://www.w3.org/2000/svg"><g><g><g><g><g><line x1="50" y1="178" x2="45" y2="178" style="visibility: inherit;" fill="rgb(0, 0, 0)" stroke="rgb(204, 204, 204)" stroke-width="1px"></line><line x1="50" y1="162.82567049808426" x2="45" y2="162.82567049808426" style="visibility: inherit;" fill="rgb(0, 0, 0)" stroke="rgb(204, 204, 204)" stroke-width="1px"></line><line x1="50" y1="147.65134099616856" x2="45" y2="147.65134099616856" style="visibility: inherit;" fill="rgb(0, 0, 0)" stroke="rgb(204, 204, 204)" stroke-width="1px"></line><line x1="50" y1="132.47701149425285" x2="45" y2="132.47701149425285" style="visibility: inherit;" fill="rgb(0, 0, 0)" stroke="rgb(204, 204, 204)" stroke-width="1px"></line><line x1="50" y1="117.30268199233728" x2="45" y2="117.30268199233728" style="visibility: inherit;" fill="rgb(0, 0, 0)" stroke="rgb(204, 204, 204)" stroke-width="1px"></line><line x1="50" y1="102.12835249042156" x2="45" y2="102.12835249042156" style="visibility: inherit;" fill="rgb(0, 0, 0)" stroke="rgb(204, 204, 204)" stroke-width="1px"></line><line x1="50" y1="86.95402298850586" x2="45" y2="86.95402298850586" style="visibility: inherit;" fill="rgb(0, 0, 0)" stroke="rgb(204, 204, 204)" stroke-width="1px"></line><line x1="50" y1="71.77969348659013" x2="45" y2="71.77969348659013" style="visibility: inherit;" fill="rgb(0, 0, 0)" stroke="rgb(204, 204, 204)" stroke-width="1px"></line><line x1="50" y1="56.60536398467441" x2="45" y2="56.60536398467441" style="visibility: inherit;" fill="rgb(0, 0, 0)" stroke="rgb(204, 204, 204)" stroke-width="1px"></line><line x1="50" y1="41.43103448275869" x2="45" y2="41.43103448275869" style="visibility: inherit;" fill="rgb(0, 0, 0)" stroke="rgb(204, 204, 204)" stroke-width="1px"></line><line x1="50" y1="26.256704980842983" x2="45" y2="26.256704980842983" style="visibility: inherit;" fill="rgb(0, 0, 0)" stroke="rgb(204, 204, 204)" stroke-width="1px"></line><line x1="50" y1="11.082375478927247" x2="45" y2="11.082375478927247" style="visibility: inherit;" fill="rgb(0, 0, 0)" stroke="rgb(204, 204, 204)" stroke-width="1px"></line></g><g transform="translate(40, 0)"><text x="0" y="178" dx="0em" dy="0.3em" style="text-anchor: end; visibility: hidden; font-family: &quot;Helvetica Neue&quot;, sans-serif; font-size: 12px; font-weight: 200;" fill="rgb(50, 49, 63)" stroke="none" stroke-width="1px">0.9</text><text x="0" y="162.82567049808426" dx="0em" dy="0.3em" style="text-anchor: end; visibility: inherit; font-family: &quot;Helvetica Neue&quot;, sans-serif; font-size: 12px; font-weight: 200;" fill="rgb(50, 49, 63)" stroke="none" stroke-width="1px">0.91</text><text x="0" y="147.65134099616856" dx="0em" dy="0.3em" style="text-anchor: end; visibility: hidden; font-family: &quot;Helvetica Neue&quot;, sans-serif; font-size: 12px; font-weight: 200;" fill="rgb(50, 49, 63)" stroke="none" stroke-width="1px">0.92</text><text x="0" y="132.47701149425285" dx="0em" dy="0.3em" style="text-anchor: end; visibility: inherit; font-family: &quot;Helvetica Neue&quot;, sans-serif; font-size: 12px; font-weight: 200;" fill="rgb(50, 49, 63)" stroke="none" stroke-width="1px">0.93</text><text x="0" y="117.30268199233728" dx="0em" dy="0.3em" style="text-anchor: end; visibility: hidden; font-family: &quot;Helvetica Neue&quot;, sans-serif; font-size: 12px; font-weight: 200;" fill="rgb(50, 49, 63)" stroke="none" stroke-width="1px">0.94</text><text x="0" y="102.12835249042156" dx="0em" dy="0.3em" style="text-anchor: end; visibility: inherit; font-family: &quot;Helvetica Neue&quot;, sans-serif; font-size: 12px; font-weight: 200;" fill="rgb(50, 49, 63)" stroke="none" stroke-width="1px">0.95</text><text x="0" y="86.95402298850586" dx="0em" dy="0.3em" style="text-anchor: end; visibility: hidden; font-family: &quot;Helvetica Neue&quot;, sans-serif; font-size: 12px; font-weight: 200;" fill="rgb(50, 49, 63)" stroke="none" stroke-width="1px">0.96</text><text x="0" y="71.77969348659013" dx="0em" dy="0.3em" style="text-anchor: end; visibility: inherit; font-family: &quot;Helvetica Neue&quot;, sans-serif; font-size: 12px; font-weight: 200;" fill="rgb(50, 49, 63)" stroke="none" stroke-width="1px">0.97</text><text x="0" y="56.60536398467441" dx="0em" dy="0.3em" style="text-anchor: end; visibility: hidden; font-family: &quot;Helvetica Neue&quot;, sans-serif; font-size: 12px; font-weight: 200;" fill="rgb(50, 49, 63)" stroke="none" stroke-width="1px">0.98</text><text x="0" y="41.43103448275869" dx="0em" dy="0.3em" style="text-anchor: end; visibility: inherit; font-family: &quot;Helvetica Neue&quot;, sans-serif; font-size: 12px; font-weight: 200;" fill="rgb(50, 49, 63)" stroke="none" stroke-width="1px">0.99</text><text x="0" y="26.256704980842983" dx="0em" dy="0.3em" style="text-anchor: end; visibility: hidden; font-family: &quot;Helvetica Neue&quot;, sans-serif; font-size: 12px; font-weight: 200;" fill="rgb(50, 49, 63)" stroke="none" stroke-width="1px">1</text><text x="0" y="11.082375478927247" dx="0em" dy="0.3em" style="text-anchor: end; visibility: inherit; font-family: &quot;Helvetica Neue&quot;, sans-serif; font-size: 12px; font-weight: 200;" fill="rgb(50, 49, 63)" stroke="none" stroke-width="1px">1.01</text></g><line x1="50" y1="0" x2="50" y2="178" fill="rgb(0, 0, 0)" stroke="rgb(204, 204, 204)" stroke-width="1px"></line></g></g><g transform="translate(50, 0)" clip-path="url(#clip_0)"><clipPath id="clip_0"><rect width="280" height="178"></rect></clipPath><g><g><g><line x1="25.36752136752136" y1="0" x2="25.36752136752136" y2="178" fill="rgb(0, 0, 0)" stroke="rgb(60, 60, 60)" stroke-width="1px" opacity="0.25"></line><line x1="58.87179487179486" y1="0" x2="58.87179487179486" y2="178" fill="rgb(0, 0, 0)" stroke="rgb(60, 60, 60)" stroke-width="1px" opacity="0.25"></line><line x1="92.37606837606837" y1="0" x2="92.37606837606837" y2="178" fill="rgb(0, 0, 0)" stroke="rgb(60, 60, 60)" stroke-width="1px" opacity="0.25"></line><line x1="125.88034188034187" y1="0" x2="125.88034188034187" y2="178" fill="rgb(0, 0, 0)" stroke="rgb(60, 60, 60)" stroke-width="1px" opacity="0.25"></line><line x1="159.3846153846154" y1="0" x2="159.3846153846154" y2="178" fill="rgb(0, 0, 0)" stroke="rgb(60, 60, 60)" stroke-width="1px" opacity="0.25"></line><line x1="192.88888888888889" y1="0" x2="192.88888888888889" y2="178" fill="rgb(0, 0, 0)" stroke="rgb(60, 60, 60)" stroke-width="1px" opacity="0.25"></line><line x1="226.39316239316238" y1="0" x2="226.39316239316238" y2="178" fill="rgb(0, 0, 0)" stroke="rgb(60, 60, 60)" stroke-width="1px" opacity="0.25"></line><line x1="259.8974358974359" y1="0" x2="259.8974358974359" y2="178" fill="rgb(0, 0, 0)" stroke="rgb(60, 60, 60)" stroke-width="1px" opacity="0.25"></line></g><g><line x1="0" y1="178" x2="280" y2="178" fill="rgb(0, 0, 0)" stroke="rgb(60, 60, 60)" stroke-width="1px" opacity="0.25"></line><line x1="0" y1="162.82567049808426" x2="280" y2="162.82567049808426" fill="rgb(0, 0, 0)" stroke="rgb(60, 60, 60)" stroke-width="1px" opacity="0.25"></line><line x1="0" y1="147.65134099616856" x2="280" y2="147.65134099616856" fill="rgb(0, 0, 0)" stroke="rgb(60, 60, 60)" stroke-width="1px" opacity="0.25"></line><line x1="0" y1="132.47701149425285" x2="280" y2="132.47701149425285" fill="rgb(0, 0, 0)" stroke="rgb(60, 60, 60)" stroke-width="1px" opacity="0.25"></line><line x1="0" y1="117.30268199233728" x2="280" y2="117.30268199233728" fill="rgb(0, 0, 0)" stroke="rgb(60, 60, 60)" stroke-width="1px" opacity="0.25"></line><line x1="0" y1="102.12835249042156" x2="280" y2="102.12835249042156" fill="rgb(0, 0, 0)" stroke="rgb(60, 60, 60)" stroke-width="1px" opacity="0.25"></line><line x1="0" y1="86.95402298850586" x2="280" y2="86.95402298850586" fill="rgb(0, 0, 0)" stroke="rgb(60, 60, 60)" stroke-width="1px" opacity="0.25"></line><line x1="0" y1="71.77969348659013" x2="280" y2="71.77969348659013" fill="rgb(0, 0, 0)" stroke="rgb(60, 60, 60)" stroke-width="1px" opacity="0.25"></line><line x1="0" y1="56.60536398467441" x2="280" y2="56.60536398467441" fill="rgb(0, 0, 0)" stroke="rgb(60, 60, 60)" stroke-width="1px" opacity="0.25"></line><line x1="0" y1="41.43103448275869" x2="280" y2="41.43103448275869" fill="rgb(0, 0, 0)" stroke="rgb(60, 60, 60)" stroke-width="1px" opacity="0.25"></line><line x1="0" y1="26.256704980842983" x2="280" y2="26.256704980842983" fill="rgb(0, 0, 0)" stroke="rgb(60, 60, 60)" stroke-width="1px" opacity="0.25"></line><line x1="0" y1="11.082375478927247" x2="280" y2="11.082375478927247" fill="rgb(0, 0, 0)" stroke="rgb(60, 60, 60)" stroke-width="1px" opacity="0.25"></line></g></g></g><g><g><line x1="0" y1="1543.6896551724137" x2="280" y2="1543.6896551724137" fill="rgb(0, 0, 0)" stroke="rgb(153, 153, 153)" stroke-width="1.5px"></line></g></g><g><g><line x1="-8.136752136752145" y1="0" x2="-8.136752136752145" y2="178" fill="rgb(0, 0, 0)" stroke="rgb(153, 153, 153)" stroke-width="1.5px"></line></g></g><g><g><g><g><g><path stroke="rgb(238, 51, 119)" stroke-width="2px" d="M40.37743589743589,180.8933888732783L40.913504273504266,171.81864675012397L42.65572649572649,181.54130741745868L43.25880341880341,172.44895049131796L43.5268376068376,168.2869135223681L43.66085470085469,161.91251246845232L44.59897435897435,160.05480106108942L44.73299145299144,156.41612363523842L45.068034188034176,154.55922389411992L45.20205128205127,153.72804689683375L45.73811965811965,150.83746895499132L46.14017094017093,144.61373225901815L46.207179487179474,145.6006516375008L48.016410256410246,141.34205676297384L52.90803418803418,138.32631820763055L55.119316239316234,132.80211273007262L55.32034188034188,134.2101778480682L56.459487179487176,126.76687131951778L57.062564102564096,118.79683474380224L57.129572649572644,112.6269843989163L57.531623931623926,109.78002738817911L57.598632478632474,106.8226213926819L57.93367521367521,107.66644472582156L59.13982905982905,104.51500091634813L59.34085470085469,103.80346313139083L59.94393162393161,98.78150805102743L63.227350427350416,98.60532165183965L63.42837606837606,95.34376215476539L63.83042735042734,93.35344444339124L64.23247863247862,89.23555757272733L64.56752136752137,86.12140643597458L65.23760683760683,87.91411832167519L65.63965811965812,82.35394401995751L65.97470085470086,82.34853196020552L69.45914529914529,79.17433810243185L69.79418803418802,74.47169025465237L69.86119658119658,70.91105645972124L71.06735042735042,77.50511048716662L71.93846153846154,75.77024747044376L72.80957264957263,78.11261044951144L75.35589743589743,72.15548424301274L76.49504273504273,66.08678411657934L77.83521367521368,67.6650897006506L78.70632478632477,65.14707255283494L80.18051282051282,62.15273783176981L80.38153846153845,59.717623412999956L81.31965811965811,56.28879960232159L81.5876923076923,55.35385240481162L84.80410256410255,56.59433621576355L85.20615384615384,54.48125972369657L85.27316239316238,52.232398840421226L86.74735042735043,50.306212723471376L87.55145299145298,49.99500145265347L88.22153846153844,47.5243143851514L90.23179487179486,48.277154764273064L90.96888888888888,44.010382951517784L91.50495726495726,42.399168163836094L91.90700854700854,44.69980009277367L94.05128205128204,44.0138930415946L94.31931623931622,44.914696342696004L95.99452991452992,45.55207209227743L97.06666666666665,46.45571947286885L97.13367521367522,46.20088148336873L98.1388034188034,45.74962338577885L98.4068376068376,49.16889028320503L99.5459829059829,45.54751795754481L101.89128205128205,45.87392956126973L102.42735042735042,43.367264401588756L103.76752136752137,41.70607947342219L104.70564102564101,41.91744906934096L105.30871794871794,42.40003650853578L105.71076923076923,42.551543124353174L106.04581196581196,42.873468778307L106.5148717948718,41.18151229607301L107.11794871794872,42.9441361440625L108.05606837606837,41.30866938289873L108.19008547008546,41.10356031523449L108.3911111111111,39.49356437986194L108.99418803418803,39.968692217113244L110.9374358974359,41.22773123754729L111.33948717948716,42.567401108794L112.9476923076923,41.37852823526097L114.3548717948718,41.95384488350922L115.56102564102564,42.15940509695335L116.16410256410256,41.68839850892945L117.03521367521367,43.86666894202975L117.2362393162393,47.56187646033669L117.77230769230769,45.87508550679246L120.45264957264958,42.32035263891467L121.59179487179487,42.073183887890195L122.26188034188034,42.76251348848112L122.46290598290597,41.38923012447239L123.80307692307692,41.134688784905336L124.87521367521367,41.02435842900675L126.08136752136751,39.79413693899346L126.88547008547008,41.447928264151216L128.02461538461537,41.499895807343364L128.42666666666668,45.568300483520915L130.0348717948718,46.67406723345243L130.9059829059829,43.30180067679805L131.10700854700855,43.97967419273394L131.1740170940171,45.28069901737308L131.71008547008546,43.02277801967233L131.97811965811965,41.54400972450051L132.44717948717948,44.03170078171124L135.7305982905983,42.394138459271915L135.9986324786325,40.35658438315048L136.4676923076923,38.76175533949831L137.07076923076923,39.1190437130704L138.54495726495725,40.42234150328454L138.81299145299144,39.770120967851966L139.34905982905983,40.1762785686781L139.8851282051282,40.649963957650954L140.15316239316238,38.97750373667088L141.4933333333333,39.95662725284714L141.82837606837606,39.81963277744194L141.89538461538461,39.23150782659886L142.23042735042733,39.21641934110005L143.0345299145299,37.99612530019951L143.23555555555555,37.860458138588854L143.57059829059827,37.394754148474675L144.8437606837607,37.50479658707059L145.91589743589742,37.06982547409524L146.5859829059829,37.9405131171155L147.39008547008547,37.36323608837816L149.13230769230768,38.048769348575064L149.73538461538462,38.63519727879441L152.08068376068374,37.26429758924729L152.1476923076923,37.86836676679354L152.28170940170938,37.34144156384798L155.23008547008547,40.23159034054288L155.76615384615383,39.486418382169404L156.36923076923077,41.45327287908654L156.50324786324785,41.357285370836905L156.83829059829057,41.01798252263231L158.51350427350428,39.09118653485939L158.5805128205128,38.42084855641565L159.2505982905983,40.2388057642637L159.3846153846154,40.15463430652477L159.7196581196581,39.95543700086378L160.65777777777777,40.01911565532103L161.05982905982904,38.91237316618265L161.66290598290598,38.820783858955L162.6680341880342,37.585564041245334L162.93606837606836,37.22976918756237L163.07008547008547,37.158106806558834L164.74529914529916,37.481789484703995L166.21948717948717,36.59274589836363L166.62153846153845,38.018815595041104L167.76068376068375,37.583429990445836L168.16273504273505,37.723272194929336L169.90495726495726,36.774559935498104L171.44615384615386,35.88706278099667L171.91521367521366,35.812481064546745L172.25025641025638,35.757798998255026L173.12136752136752,34.902239161894414L173.59042735042735,35.28199907148286L175.60068376068375,36.0880969900563L176.5388034188034,37.482201606074455L178.88410256410256,37.501275380288035L178.9511111111111,37.98190576902044L179.01811965811964,39.398462471258966L184.44581196581194,38.22509683992192L185.04888888888888,39.12122022458004L185.6519658119658,39.074501412105434L186.0540170940171,41.135203719549L187.6622222222222,41.318571288046485L190.81162393162393,39.79480179669147L191.3476923076923,39.06938193258665L193.76,37.06444458756786L194.83213675213676,38.72329394029944L195.0331623931624,38.20300615781477L195.56923076923078,37.28395624404135L195.77025641025642,38.33214196452383L197.37846153846152,39.30513881675847L197.64649572649571,40.20824264683867L199.65675213675212,39.03006288925175L201.19794871794872,37.96550932180773L202.20307692307694,36.7191456897537L203.4092307692308,36.910844347210855L203.81128205128206,36.79063073114199L204.8834188034188,36.43541666188818L206.08957264957266,35.519982021226355L206.1565811965812,34.65747909341724L208.43487179487178,35.72503794101564L209.10495726495728,34.831056860624756L209.30598290598292,34.35348716772609L209.37299145299144,34.6743314095107L209.50700854700855,35.1271575348278L209.57401709401708,35.9405175684947L211.24923076923076,38.079212981396154L213.46051282051283,36.70252128519542L215.0017094017094,36.704422914020455L216.1408547008547,36.64801583385048L218.21811965811966,37.05437721919034L220.02735042735043,37.565663445504185L220.36239316239318,36.65945699645695L221.8365811965812,34.717665632022886L223.10974358974357,36.05485769389011L223.24376068376068,36.02780222228992L224.1148717948718,37.54498885531956L225.18700854700853,36.48058687614488L227.1302564102564,37.437024824226825L227.33128205128205,38.25766074709253L229.00649572649573,37.492145364408714L230.74871794871794,36.56213290976973L231.88786324786324,35.16867564069608L233.2280341880342,35.252640630018846L234.43418803418805,36.407037499163295L234.56820512820514,37.15636952348717L234.70222222222222,37.64761765834032L235.1042735042735,37.27841935235901L236.9805128205128,38.968885464884806L237.91863247863247,38.38165149514802L241.67111111111112,36.7925331849097L241.9391452991453,36.233104062207815L242.47521367521367,40.57433856956416L242.6762393162393,41.80725101336154L244.75350427350426,39.223847163025965L245.28957264957262,40.66545596530608L246.16068376068375,39.97692259395441L246.4957264957265,39.93839025382428L247.56786324786327,39.80196296715613L247.902905982906,39.99357305439142L248.03692307692307,40.69537683688219L248.70700854700857,39.60401410739209L248.97504273504273,39.60755867785815L250.9182905982906,39.59435457621936L251.72239316239316,38.46876576370889L255.2068376068376,38.54438234905223L255.67589743589744,37.571785959329816L255.9439316239316,39.82792169987016L256.68102564102566,39.93016023571789L257.08307692307693,38.970330327061305L258.95931623931625,38.08825041158863L260.70153846153846,38.717453972302934L261.505641025641,37.78596174661857L262.24273504273503,38.41888877760161L262.4437606837607,38.35765087904244L266.26324786324784,38.1041356796288L266.5982905982906,38.20909253626391L266.6652991452991,37.81732660549147L267.3353846153846,37.74954392604781L272.22700854700855,38.608666120262L272.9641025641026,37.366771261435844L273.0311111111111,36.25157767604901L273.1651282051282,37.56509149560301L273.50017094017096,38.80527306039417L273.5671794871795,39.027561847173615L275.24239316239317,37.113202040887046L275.57743589743586,38.870558331652575L275.77846153846156,39.103969444515485L276.3145299145299,37.93875353073929L277.6547008547008,38.358147166151156L277.8557264957265,38.20612558436312L277.92273504273504,37.67039051688573L278.9278632478633,40.6347722497778L280,39.57682787971925L280.4020512820513,38.76333206148681" style="fill: none;" fill="none"></path></g></g></g></g><g opacity="0.2"><g><g><g><path stroke="rgb(238, 51, 119)" stroke-width="2px" d="M36.289914529914526,188.0388243783023L36.959999999999994,175.9697936499256L39.84136752136751,195.43134198974377L40.37743589743589,156.63351309208124L40.913504273504266,156.82245489463955L42.65572649572649,197.60819756847692L43.25880341880341,157.42364980206182L43.5268376068376,161.40906463591992L43.66085470085469,151.37868791887135L44.59897435897435,156.98489600397164L44.73299145299144,150.40313680235914L45.068034188034176,151.49066013120603L45.20205128205127,152.35451037353943L45.73811965811965,146.0607314013887L46.14017094017093,134.32888355474367L46.207179487179474,147.2315555440969L48.016410256410246,134.3046440128166L52.90803418803418,133.34275025015137L55.119316239316234,123.67325328044969L55.32034188034188,136.53703346745726L56.459487179487176,114.46665920471327L57.062564102564096,105.62619074733783L57.129572649572644,102.43118396161621L57.531623931623926,105.07537429086098L57.598632478632474,101.93544915078705L57.93367521367521,109.06087957077104L59.13982905982905,99.3071773266884L59.34085470085469,102.62763278648775L59.94393162393161,90.4826273744591L63.227350427350416,98.31417012214665L63.42837606837606,89.95397020071407L63.83042735042734,90.06440483016533L64.23247863247862,82.43066759812884L64.56752136752137,80.97520972988163L65.23760683760683,90.87661037682578L65.63965811965812,73.16564537282196L65.97470085470086,82.33958842379842L69.45914529914529,73.92891960536845L69.79418803418802,66.70047113219447L69.86119658119658,65.02703827870765L71.06735042735042,88.4019159489665L71.93846153846154,72.90335182211871L72.80957264957263,81.98341187115378L75.35589743589743,62.3112146763053L76.49504273504273,56.058136427539566L77.83521367521368,70.27327107698072L78.70632478632477,60.985999122890064L80.18051282051282,57.204540136216764L80.38153846153845,55.69354839206204L81.31965811965811,50.62260004250032L81.5876923076923,53.80883356118116L84.80410256410255,58.64426039142174L85.20615384615384,50.98935878322504L85.27316239316238,48.51611149219721L86.74735042735043,47.123151845858956L87.55145299145298,49.48071863642144L88.22153846153844,43.441454854504855L90.23179487179486,49.52123846770252L90.96888888888888,36.95945764821158L91.50495726495726,39.7366036738473L91.90700854700854,48.50164012388257L94.05128205128204,42.880417994155806L94.31931623931622,46.40329171825647L95.99452991452992,46.60534819834996L97.06666666666665,47.94901474636637L97.13367521367522,45.77975663599847L98.1388034188034,45.0039104022286L98.4068376068376,54.819296853752476L99.5459829059829,39.56312814617527L101.89128205128205,46.413331230024795L102.42735042735042,39.22495035787202L103.76752136752137,38.96093833218137L104.70564102564101,42.26674153156213L105.30871794871794,43.19752185235083L105.71076923076923,42.80191082104875L106.04581196581196,43.40545732582214L106.5148717948718,38.385520549569605L107.11794871794872,45.856907118326006L108.05606837606837,38.606028024264276L108.19008547008546,40.76461350050013L108.3911111111111,36.8330140675622L108.99418803418803,40.7538504203161L110.9374358974359,43.30831826600996L111.33948717948716,44.78123222228675L112.9476923076923,39.41389216043032L114.3548717948718,42.904567090030895L115.56102564102564,42.49909743906443L116.16410256410256,40.91005075206249L117.03521367521367,47.46630416702041L117.2362393162393,53.66828039642499L117.77230769230769,43.08762989921135L120.45264957264958,36.4460858572489L121.59179487179487,41.66473260967217L122.26188034188034,43.90164436691114L122.46290598290597,39.119852045486766L123.80307692307692,40.71405415745079L124.87521367521367,40.8420353209836L126.08136752136751,37.76117145284388L126.88547008547008,44.18085132933217L128.02461538461537,41.58577320630528L128.42666666666668,52.29142014733681L130.0348717948718,48.50136878572667L130.9059829059829,37.72906310439572L131.10700854700855,45.0998736633652L131.1740170940171,47.43066842254555L131.71008547008546,39.291518652119464L131.97811965811965,39.100315698261966L132.44717948717948,48.14265974362695L135.7305982905983,39.688034143941195L135.9986324786325,36.98948573746449L136.4676923076923,36.126268617494844L137.07076923076923,39.70946985825731L138.54495726495725,42.576067029288026L138.81299145299144,38.692313557840436L139.34905982905983,40.84746208410158L139.8851282051282,41.43273848637773L140.15316239316238,36.21372994974661L141.4933333333333,41.57464834191339L141.82837606837606,39.59324668148017L141.89538461538461,38.25961964523202L142.23042735042733,39.19148531864434L143.0345299145299,35.979565121204985L143.23555555555555,37.63626545507796L143.57059829059827,36.62516904014285L144.8437606837607,37.68664390602336L145.91589743589742,36.35102705663195L146.5859829059829,39.37934176857905L147.39008547008547,36.40927431409847L149.13230769230768,39.18162669897998L149.73538461538462,39.6042810998201L152.08068376068374,34.998858579730665L152.1476923076923,38.86660309998018L152.28170940170938,36.47068718338383L155.23008547008547,45.00761869035924L155.76615384615383,38.25500689658173L156.36923076923077,44.70353906364738L156.50324786324785,41.19866410388806L156.83829059829057,40.45727781591751L158.51350427350428,35.90711783357969L158.5805128205128,37.313101711401146L159.2505982905983,43.24301621649005L159.3846153846154,40.01553929811243L159.7196581196581,39.62625949044801L160.65777777777777,40.12434589862829L161.05982905982904,37.083459185457826L161.66290598290598,38.66943070669288L162.6680341880342,35.54433871914148L162.93606837606836,36.641811113704705L163.07008547008547,37.03968329630598L164.74529914529916,38.01668154964963L166.21948717948717,35.123583685392674L166.62153846153845,40.37542413888767L167.76068376068375,36.86394661733479L168.16273504273505,37.95436421984462L169.90495726495726,35.206794053201975L171.44615384615386,34.420456077404L171.91521367521366,35.68923329439204L172.25025641025638,35.6674357958681L173.12136752136752,33.48840951188777L173.59042735042735,35.9095598769828L175.60068376068375,37.42018983692964L176.5388034188034,39.78598721822107L178.88410256410256,37.532795171628095L178.9511111111111,38.776157048013545L179.01811965811964,41.73935060254465L184.44581196581194,36.28608679131992L185.04888888888888,40.60208194511608L185.6519658119658,38.99729764507197L186.0540170940171,44.540555278003495L187.6622222222222,41.62158984288408L190.81162393162393,37.27674239851055L191.3476923076923,37.870611175723525L193.76,33.75124573890281L194.83213675213676,41.464575496669994L195.0331623931624,37.34322024670601L195.56923076923078,35.76520797804403L195.77025641025642,40.064289720122446L197.37846153846152,40.91303547177742L197.64649572649571,41.70063969230293L199.65675213675212,37.08309740124997L201.19794871794872,36.20631337348533L202.20307692307694,34.659504992751835L203.4092307692308,37.22763019229265L203.81128205128206,36.5919753390711L204.8834188034188,35.84841834585333L206.08957264957266,34.00720806596843L206.1565811965812,33.23217584666628L208.43487179487178,37.48920017458019L209.10495726495728,33.35373534050942L209.30598290598292,33.564293749487774L209.37299145299144,35.20453290190284L209.50700854700855,35.87546171539137L209.57401709401708,37.28461120503164L211.24923076923076,41.61344969820709L213.46051282051283,34.42751086945739L215.0017094017094,36.70756539348449L216.1408547008547,36.55480201171281L218.21811965811966,37.72589749257688L220.02735042735043,38.41057410596437L220.36239316239318,35.16193281142654L221.8365811965812,31.508816772493873L223.10974358974357,38.26459417809019L223.24376068376068,35.98309251723168L224.1148717948718,40.05216994915892L225.18700854700853,34.721641430452905L227.1302564102564,39.017557560712504L227.33128205128205,39.6137779352766L229.00649572649573,36.22711596543766L230.74871794871794,35.02526882690492L231.88786324786324,32.86595978225333L233.2280341880342,35.39139444526589L234.43418803418805,38.314701290879725L234.56820512820514,38.394655600818226L234.70222222222222,38.459414974026345L235.1042735042735,36.668311806930944L236.9805128205128,41.762414345796145L237.91863247863247,37.41123567778496L241.67111111111112,34.16648356348168L241.9391452991453,35.30863630771643L242.47521367521367,47.7483149570524L242.6762393162393,43.844663354172155L244.75350427350426,34.95472090637094L245.28957264957262,43.047743190294085L246.16068376068375,38.83910750018231L246.4957264957265,39.87471479520036L247.56786324786327,39.57651416186633L247.902905982906,40.31021253541974L248.03692307692307,41.85512154906192L248.70700854700857,37.80051548544938L248.97504273504273,39.61341615106872L250.9182905982906,39.57253453557979L251.72239316239316,36.60870785868494L255.2068376068376,38.66934026064092L255.67589743589744,35.964551076578516L255.9439316239316,43.55623089445055L256.68102564102566,40.09911145012961L257.08307692307693,37.384192308246924L258.95931623931625,36.63059580326086L260.70153846153846,39.75722537369569L261.505641025641,36.24665231266246L262.24273504273503,39.46481328768755L262.4437606837607,38.256454033413206L266.26324786324784,37.68519676919189L266.5982905982906,38.3825358298547L266.6652991452991,37.16992561113793L267.3353846153846,37.637531699805464L272.22700854700855,40.02838263749169L272.9641025641026,35.314515301094275L273.0311111111111,34.40869809064833L273.1651282051282,39.73569921332762L273.50017094017096,40.854697768258916L273.5671794871795,39.39489848951732L275.24239316239317,33.949684376917645L275.57743589743586,41.774624562811624L275.77846153846156,39.48968595197837L276.3145299145299,36.01321105253655L277.6547008547008,39.051203492044095L277.8557264957265,37.954906896156416L277.92273504273504,36.78507766001988L278.9278632478633,45.533472036493265L280,37.82855376155902L280.4020512820513,37.41901403825406" style="fill: none;" fill="none"></path></g></g></g></g></g></g><g transform="translate(50, 178)" clip-path="url(#clip_1)"><clipPath id="clip_1"><rect width="280" height="22"></rect></clipPath><g><g><line x1="25.36752136752136" y1="0" x2="25.36752136752136" y2="5" style="visibility: inherit;" fill="rgb(0, 0, 0)" stroke="rgb(204, 204, 204)" stroke-width="1px"></line><line x1="58.87179487179486" y1="0" x2="58.87179487179486" y2="5" style="visibility: inherit;" fill="rgb(0, 0, 0)" stroke="rgb(204, 204, 204)" stroke-width="1px"></line><line x1="92.37606837606837" y1="0" x2="92.37606837606837" y2="5" style="visibility: inherit;" fill="rgb(0, 0, 0)" stroke="rgb(204, 204, 204)" stroke-width="1px"></line><line x1="125.88034188034187" y1="0" x2="125.88034188034187" y2="5" style="visibility: inherit;" fill="rgb(0, 0, 0)" stroke="rgb(204, 204, 204)" stroke-width="1px"></line><line x1="159.3846153846154" y1="0" x2="159.3846153846154" y2="5" style="visibility: inherit;" fill="rgb(0, 0, 0)" stroke="rgb(204, 204, 204)" stroke-width="1px"></line><line x1="192.88888888888889" y1="0" x2="192.88888888888889" y2="5" style="visibility: inherit;" fill="rgb(0, 0, 0)" stroke="rgb(204, 204, 204)" stroke-width="1px"></line><line x1="226.39316239316238" y1="0" x2="226.39316239316238" y2="5" style="visibility: inherit;" fill="rgb(0, 0, 0)" stroke="rgb(204, 204, 204)" stroke-width="1px"></line><line x1="259.8974358974359" y1="0" x2="259.8974358974359" y2="5" style="visibility: inherit;" fill="rgb(0, 0, 0)" stroke="rgb(204, 204, 204)" stroke-width="1px"></line></g><g transform="translate(0, 8)"><text x="25.36752136752136" y="0" dx="0em" dy="0.95em" style="text-anchor: middle; visibility: inherit; font-family: &quot;Helvetica Neue&quot;, sans-serif; font-size: 12px; font-weight: 200;" fill="rgb(50, 49, 63)" stroke="none" stroke-width="1px">500</text><text x="58.87179487179486" y="0" dx="0em" dy="0.95em" style="text-anchor: middle; visibility: inherit; font-family: &quot;Helvetica Neue&quot;, sans-serif; font-size: 12px; font-weight: 200;" fill="rgb(50, 49, 63)" stroke="none" stroke-width="1px">1k</text><text x="92.37606837606837" y="0" dx="0em" dy="0.95em" style="text-anchor: middle; visibility: inherit; font-family: &quot;Helvetica Neue&quot;, sans-serif; font-size: 12px; font-weight: 200;" fill="rgb(50, 49, 63)" stroke="none" stroke-width="1px">1.5k</text><text x="125.88034188034187" y="0" dx="0em" dy="0.95em" style="text-anchor: middle; visibility: inherit; font-family: &quot;Helvetica Neue&quot;, sans-serif; font-size: 12px; font-weight: 200;" fill="rgb(50, 49, 63)" stroke="none" stroke-width="1px">2k</text><text x="159.3846153846154" y="0" dx="0em" dy="0.95em" style="text-anchor: middle; visibility: inherit; font-family: &quot;Helvetica Neue&quot;, sans-serif; font-size: 12px; font-weight: 200;" fill="rgb(50, 49, 63)" stroke="none" stroke-width="1px">2.5k</text><text x="192.88888888888889" y="0" dx="0em" dy="0.95em" style="text-anchor: middle; visibility: inherit; font-family: &quot;Helvetica Neue&quot;, sans-serif; font-size: 12px; font-weight: 200;" fill="rgb(50, 49, 63)" stroke="none" stroke-width="1px">3k</text><text x="226.39316239316238" y="0" dx="0em" dy="0.95em" style="text-anchor: middle; visibility: inherit; font-family: &quot;Helvetica Neue&quot;, sans-serif; font-size: 12px; font-weight: 200;" fill="rgb(50, 49, 63)" stroke="none" stroke-width="1px">3.5k</text><text x="259.8974358974359" y="0" dx="0em" dy="0.95em" style="text-anchor: middle; visibility: inherit; font-family: &quot;Helvetica Neue&quot;, sans-serif; font-size: 12px; font-weight: 200;" fill="rgb(50, 49, 63)" stroke="none" stroke-width="1px">4k</text></g><line x1="0" y1="0" x2="280" y2="0" fill="rgb(0, 0, 0)" stroke="rgb(204, 204, 204)" stroke-width="1px"></line></g></g></g></g></svg>