<svg viewBox="0 0 330 200" xmlns="http://www.w3.org/2000/svg"><g><g><g><g><g><line x1="50" y1="178" x2="45" y2="178" style="visibility: inherit;" fill="rgb(0, 0, 0)" stroke="rgb(204, 204, 204)" stroke-width="1px"></line><line x1="50" y1="163.16666666666666" x2="45" y2="163.16666666666666" style="visibility: inherit;" fill="rgb(0, 0, 0)" stroke="rgb(204, 204, 204)" stroke-width="1px"></line><line x1="50" y1="148.33333333333331" x2="45" y2="148.33333333333331" style="visibility: inherit;" fill="rgb(0, 0, 0)" stroke="rgb(204, 204, 204)" stroke-width="1px"></line><line x1="50" y1="133.49999999999994" x2="45" y2="133.49999999999994" style="visibility: inherit;" fill="rgb(0, 0, 0)" stroke="rgb(204, 204, 204)" stroke-width="1px"></line><line x1="50" y1="118.66666666666677" x2="45" y2="118.66666666666677" style="visibility: inherit;" fill="rgb(0, 0, 0)" stroke="rgb(204, 204, 204)" stroke-width="1px"></line><line x1="50" y1="103.83333333333343" x2="45" y2="103.83333333333343" style="visibility: inherit;" fill="rgb(0, 0, 0)" stroke="rgb(204, 204, 204)" stroke-width="1px"></line><line x1="50" y1="89.00000000000009" x2="45" y2="89.00000000000009" style="visibility: inherit;" fill="rgb(0, 0, 0)" stroke="rgb(204, 204, 204)" stroke-width="1px"></line><line x1="50" y1="74.16666666666674" x2="45" y2="74.16666666666674" style="visibility: inherit;" fill="rgb(0, 0, 0)" stroke="rgb(204, 204, 204)" stroke-width="1px"></line><line x1="50" y1="59.333333333333385" x2="45" y2="59.333333333333385" style="visibility: inherit;" fill="rgb(0, 0, 0)" stroke="rgb(204, 204, 204)" stroke-width="1px"></line><line x1="50" y1="44.50000000000003" x2="45" y2="44.50000000000003" style="visibility: inherit;" fill="rgb(0, 0, 0)" stroke="rgb(204, 204, 204)" stroke-width="1px"></line><line x1="50" y1="29.666666666666686" x2="45" y2="29.666666666666686" style="visibility: inherit;" fill="rgb(0, 0, 0)" stroke="rgb(204, 204, 204)" stroke-width="1px"></line><line x1="50" y1="14.833333333333343" x2="45" y2="14.833333333333343" style="visibility: inherit;" fill="rgb(0, 0, 0)" stroke="rgb(204, 204, 204)" stroke-width="1px"></line><line x1="50" y1="0" x2="45" y2="0" style="visibility: inherit;" fill="rgb(0, 0, 0)" stroke="rgb(204, 204, 204)" stroke-width="1px"></line></g><g transform="translate(40, 0)"><text x="0" y="178" dx="0em" dy="0.3em" style="text-anchor: end; visibility: hidden; font-family: &quot;Helvetica Neue&quot;, sans-serif; font-size: 12px; font-weight: 200;" fill="rgb(50, 49, 63)" stroke="none" stroke-width="1px">0.9</text><text x="0" y="163.16666666666666" dx="0em" dy="0.3em" style="text-anchor: end; visibility: inherit; font-family: &quot;Helvetica Neue&quot;, sans-serif; font-size: 12px; font-weight: 200;" fill="rgb(50, 49, 63)" stroke="none" stroke-width="1px">0.91</text><text x="0" y="148.33333333333331" dx="0em" dy="0.3em" style="text-anchor: end; visibility: hidden; font-family: &quot;Helvetica Neue&quot;, sans-serif; font-size: 12px; font-weight: 200;" fill="rgb(50, 49, 63)" stroke="none" stroke-width="1px">0.92</text><text x="0" y="133.49999999999994" dx="0em" dy="0.3em" style="text-anchor: end; visibility: inherit; font-family: &quot;Helvetica Neue&quot;, sans-serif; font-size: 12px; font-weight: 200;" fill="rgb(50, 49, 63)" stroke="none" stroke-width="1px">0.93</text><text x="0" y="118.66666666666677" dx="0em" dy="0.3em" style="text-anchor: end; visibility: hidden; font-family: &quot;Helvetica Neue&quot;, sans-serif; font-size: 12px; font-weight: 200;" fill="rgb(50, 49, 63)" stroke="none" stroke-width="1px">0.94</text><text x="0" y="103.83333333333343" dx="0em" dy="0.3em" style="text-anchor: end; visibility: inherit; font-family: &quot;Helvetica Neue&quot;, sans-serif; font-size: 12px; font-weight: 200;" fill="rgb(50, 49, 63)" stroke="none" stroke-width="1px">0.95</text><text x="0" y="89.00000000000009" dx="0em" dy="0.3em" style="text-anchor: end; visibility: hidden; font-family: &quot;Helvetica Neue&quot;, sans-serif; font-size: 12px; font-weight: 200;" fill="rgb(50, 49, 63)" stroke="none" stroke-width="1px">0.96</text><text x="0" y="74.16666666666674" dx="0em" dy="0.3em" style="text-anchor: end; visibility: inherit; font-family: &quot;Helvetica Neue&quot;, sans-serif; font-size: 12px; font-weight: 200;" fill="rgb(50, 49, 63)" stroke="none" stroke-width="1px">0.97</text><text x="0" y="59.333333333333385" dx="0em" dy="0.3em" style="text-anchor: end; visibility: hidden; font-family: &quot;Helvetica Neue&quot;, sans-serif; font-size: 12px; font-weight: 200;" fill="rgb(50, 49, 63)" stroke="none" stroke-width="1px">0.98</text><text x="0" y="44.50000000000003" dx="0em" dy="0.3em" style="text-anchor: end; visibility: inherit; font-family: &quot;Helvetica Neue&quot;, sans-serif; font-size: 12px; font-weight: 200;" fill="rgb(50, 49, 63)" stroke="none" stroke-width="1px">0.99</text><text x="0" y="29.666666666666686" dx="0em" dy="0.3em" style="text-anchor: end; visibility: hidden; font-family: &quot;Helvetica Neue&quot;, sans-serif; font-size: 12px; font-weight: 200;" fill="rgb(50, 49, 63)" stroke="none" stroke-width="1px">1</text><text x="0" y="14.833333333333343" dx="0em" dy="0.3em" style="text-anchor: end; visibility: inherit; font-family: &quot;Helvetica Neue&quot;, sans-serif; font-size: 12px; font-weight: 200;" fill="rgb(50, 49, 63)" stroke="none" stroke-width="1px">1.01</text><text x="0" y="0" dx="0em" dy="0.3em" style="text-anchor: end; visibility: hidden; font-family: &quot;Helvetica Neue&quot;, sans-serif; font-size: 12px; font-weight: 200;" fill="rgb(50, 49, 63)" stroke="none" stroke-width="1px">1.02</text></g><line x1="50" y1="0" x2="50" y2="178" fill="rgb(0, 0, 0)" stroke="rgb(204, 204, 204)" stroke-width="1px"></line></g></g><g transform="translate(50, 0)" clip-path="url(#clip_0)"><clipPath id="clip_0"><rect width="280" height="178"></rect></clipPath><g><g><g><line x1="0.4938271604938408" y1="0" x2="0.4938271604938408" y2="178" fill="rgb(0, 0, 0)" stroke="rgb(60, 60, 60)" stroke-width="1px" opacity="0.25"></line><line x1="35.061728395061756" y1="0" x2="35.061728395061756" y2="178" fill="rgb(0, 0, 0)" stroke="rgb(60, 60, 60)" stroke-width="1px" opacity="0.25"></line><line x1="69.62962962962966" y1="0" x2="69.62962962962966" y2="178" fill="rgb(0, 0, 0)" stroke="rgb(60, 60, 60)" stroke-width="1px" opacity="0.25"></line><line x1="104.19753086419757" y1="0" x2="104.19753086419757" y2="178" fill="rgb(0, 0, 0)" stroke="rgb(60, 60, 60)" stroke-width="1px" opacity="0.25"></line><line x1="138.76543209876547" y1="0" x2="138.76543209876547" y2="178" fill="rgb(0, 0, 0)" stroke="rgb(60, 60, 60)" stroke-width="1px" opacity="0.25"></line><line x1="173.3333333333334" y1="0" x2="173.3333333333334" y2="178" fill="rgb(0, 0, 0)" stroke="rgb(60, 60, 60)" stroke-width="1px" opacity="0.25"></line><line x1="207.90123456790133" y1="0" x2="207.90123456790133" y2="178" fill="rgb(0, 0, 0)" stroke="rgb(60, 60, 60)" stroke-width="1px" opacity="0.25"></line><line x1="242.46913580246922" y1="0" x2="242.46913580246922" y2="178" fill="rgb(0, 0, 0)" stroke="rgb(60, 60, 60)" stroke-width="1px" opacity="0.25"></line><line x1="277.0370370370371" y1="0" x2="277.0370370370371" y2="178" fill="rgb(0, 0, 0)" stroke="rgb(60, 60, 60)" stroke-width="1px" opacity="0.25"></line></g><g><line x1="0" y1="178" x2="280" y2="178" fill="rgb(0, 0, 0)" stroke="rgb(60, 60, 60)" stroke-width="1px" opacity="0.25"></line><line x1="0" y1="163.16666666666666" x2="280" y2="163.16666666666666" fill="rgb(0, 0, 0)" stroke="rgb(60, 60, 60)" stroke-width="1px" opacity="0.25"></line><line x1="0" y1="148.33333333333331" x2="280" y2="148.33333333333331" fill="rgb(0, 0, 0)" stroke="rgb(60, 60, 60)" stroke-width="1px" opacity="0.25"></line><line x1="0" y1="133.49999999999994" x2="280" y2="133.49999999999994" fill="rgb(0, 0, 0)" stroke="rgb(60, 60, 60)" stroke-width="1px" opacity="0.25"></line><line x1="0" y1="118.66666666666677" x2="280" y2="118.66666666666677" fill="rgb(0, 0, 0)" stroke="rgb(60, 60, 60)" stroke-width="1px" opacity="0.25"></line><line x1="0" y1="103.83333333333343" x2="280" y2="103.83333333333343" fill="rgb(0, 0, 0)" stroke="rgb(60, 60, 60)" stroke-width="1px" opacity="0.25"></line><line x1="0" y1="89.00000000000009" x2="280" y2="89.00000000000009" fill="rgb(0, 0, 0)" stroke="rgb(60, 60, 60)" stroke-width="1px" opacity="0.25"></line><line x1="0" y1="74.16666666666674" x2="280" y2="74.16666666666674" fill="rgb(0, 0, 0)" stroke="rgb(60, 60, 60)" stroke-width="1px" opacity="0.25"></line><line x1="0" y1="59.333333333333385" x2="280" y2="59.333333333333385" fill="rgb(0, 0, 0)" stroke="rgb(60, 60, 60)" stroke-width="1px" opacity="0.25"></line><line x1="0" y1="44.50000000000003" x2="280" y2="44.50000000000003" fill="rgb(0, 0, 0)" stroke="rgb(60, 60, 60)" stroke-width="1px" opacity="0.25"></line><line x1="0" y1="29.666666666666686" x2="280" y2="29.666666666666686" fill="rgb(0, 0, 0)" stroke="rgb(60, 60, 60)" stroke-width="1px" opacity="0.25"></line><line x1="0" y1="14.833333333333343" x2="280" y2="14.833333333333343" fill="rgb(0, 0, 0)" stroke="rgb(60, 60, 60)" stroke-width="1px" opacity="0.25"></line><line x1="0" y1="0" x2="280" y2="0" fill="rgb(0, 0, 0)" stroke="rgb(60, 60, 60)" stroke-width="1px" opacity="0.25"></line></g></g></g><g><g><line x1="0" y1="1513.0000000000002" x2="280" y2="1513.0000000000002" fill="rgb(0, 0, 0)" stroke="rgb(153, 153, 153)" stroke-width="1.5px"></line></g></g><g><g><line x1="0.4938271604938408" y1="0" x2="0.4938271604938408" y2="178" fill="rgb(0, 0, 0)" stroke="rgb(153, 153, 153)" stroke-width="1.5px"></line></g></g><g><g><g><g><g><path stroke="rgb(238, 51, 119)" stroke-width="2px" d="M50.54814814814818,180.8283688985979L51.101234567901265,171.95755356472793L52.8987654320988,181.46172747549332L53.52098765432102,172.57369317690632L53.79753086419757,168.50518512860702L53.93580246913584,162.27402904219497L54.903703703703734,160.45806395859304L55.04197530864201,156.9011545647836L55.387654320987686,155.0859829077352L55.52592592592596,154.2734840452195L56.07901234567904,151.44786291105893L56.493827160493865,145.36398546668065L56.562962962963,146.3287268816019L58.42962962962966,142.16583076830025L63.47654320987658,139.21786161869503L65.75802469135806,133.81779559007097L65.96543209876546,135.19421879530262L67.14074074074078,127.91817758200051L67.762962962963,120.12724295180666L67.83209876543214,114.09604092927773L68.24691358024695,111.31306048057958L68.31604938271609,108.42211304677892L68.66172839506176,109.24697405782557L69.90617283950621,106.16634921036277L70.11358024691363,105.47080103855056L70.73580246913583,100.56169888134141L74.1234567901235,100.3894717270792L74.3308641975309,97.20120570184929L74.74567901234572,95.25561423118018L75.16049382716054,91.2302641441267L75.50617283950622,88.18609393179536L76.19753086419756,89.93852015714315L76.61234567901239,84.50329359254273L76.95802469135806,84.49800315211101L80.55308641975313,81.39513949338841L80.8987654320988,76.79816912533434L80.96790123456795,73.31754957298593L82.21234567901237,79.7634226110505L83.11111111111116,78.06754528009671L84.00987654320993,80.35727088884823L86.63703703703709,74.53401268698997L87.81234567901238,68.60168784429663L89.1950617283951,70.14452588715281L90.09382716049387,67.68309339434423L91.61481481481486,64.75604709397722L91.82222222222227,62.37565434753925L92.79012345679017,59.02388275732558L93.06666666666672,58.10994560919785L96.38518518518524,59.322553379454234L96.80000000000004,57.25696175237752L96.86913580246917,55.05863706872634L98.39012345679016,53.17573603305627L99.21975308641979,52.87151827394213L99.91111111111115,50.456352264136754L101.98518518518523,51.19227488192983L102.74567901234572,47.02138558182074L103.2987654320988,45.44637786801951L103.71358024691362,47.695310203048365L105.92592592592598,47.02481679346886L106.20246913580252,47.90537732375901L107.93086419753091,48.52843002278803L109.0370370370371,49.41177072066952L109.10617283950623,49.16265942756266L110.14320987654327,48.72154196137927L110.4197530864198,52.06397140043636L111.59506172839512,48.52397822816175L114.01481481481487,48.84305473966816L114.56790123456796,46.39271913413728L115.95061728395066,44.768864204356504L116.91851851851857,44.975483921715295L117.5407407407408,45.447226699355184L117.9555555555556,45.5953286721205L118.30123456790129,45.910020041715825L118.78518518518523,44.2560850534646L119.40740740740746,45.97909937678014L120.37530864197537,44.380384677665035L120.51358024691363,44.17988480253257L120.72098765432104,42.606068551100975L121.34320987654326,43.07051935830168L123.3481481481482,44.30126536704057L123.76296296296302,45.61083029736042L125.42222222222227,44.44867366817644L126.87407407407413,45.01106185241909L128.11851851851858,45.21200273522402L128.7407407407408,44.75158056490855L129.63950617283956,46.88090110063581L129.84691358024696,50.493070247744825L130.40000000000006,48.84418470888701L133.1654320987655,45.36933347848961L134.34074074074078,45.127719081420736L135.03209876543215,45.801558129189374L135.23950617283955,44.459135065495445L136.6222222222223,44.21031375603104L137.72839506172843,44.102462733972885L138.9728395061729,42.89988667070145L139.80246913580254,44.516514145855666L140.97777777777782,44.56731387908843L141.39259259259265,48.544293731082206L143.0518518518519,49.625211790004045L143.9506172839507,46.328726504285726L144.15802469135807,46.99136690750393L144.22716049382723,48.263155219229844L144.7802469135803,46.055974019230234L145.05679012345686,44.610436472264524L145.5407407407408,47.042224359650305L148.92839506172845,45.441461190524194L149.20493827160502,43.44969484645043L149.68888888888895,41.89070465771181L150.3111111111112,42.239964079068784L151.83209876543216,43.51397427849159L152.1086419753087,42.876410384304734L152.66172839506177,43.27344084803366L153.2148148148149,43.73648162152395L153.4913580246914,42.101604776296256L154.87407407407414,43.058725516828076L155.21975308641981,42.92480956896006L155.28888888888898,42.34990090914715L155.63456790123465,42.33515149073821L156.46419753086425,41.142279787835434L156.67160493827166,41.00966132648571L157.01728395061733,40.55442259457638L158.33086419753096,40.66199216938361L159.43703703703713,40.2367956881605L160.12839506172847,41.08791731673085L160.9580246913581,40.52361280549323L162.75555555555562,41.193740823887964L163.37777777777785,41.76699059837205L165.7975308641976,40.42689764342148L165.86666666666676,41.01739223270826L166.004938271605,40.50230804555923L169.04691358024698,43.32750965873291L169.60000000000008,42.599083137626224L170.2222222222223,44.52173865708457L170.36049382716058,44.42790817149222L170.70617283950625,44.096230106393364L172.43456790123466,42.21273290486252L172.50370370370376,41.55745870121527L173.19506172839513,43.334562938100476L173.3333333333334,43.252282973793854L173.67901234567907,43.0575620120803L174.64691358024697,43.119809685538485L175.0617283950618,42.037937814133585L175.68395061728404,41.948406693585184L176.72098765432105,40.74094462458808L176.9975308641976,40.39314516087555L177.13580246913588,40.32309317045636L178.8641975308643,40.639502080553314L180.38518518518526,39.77043700177117L180.8000000000001,41.164460188410914L181.97530864197537,40.738858529986345L182.3901234567902,40.87555821302078L184.18765432098775,39.948165330205995L185.77777777777786,39.08061193198549L186.26172839506182,39.00770620916364L186.6074074074075,38.95425295335042L187.50617283950623,38.11791918072822L187.99012345679017,38.48914515976412L190.06419753086425,39.27712851836961L191.03209876543215,40.639904940769384L193.45185185185196,40.658550090843335L193.52098765432106,41.12837979668288L193.5901234567902,42.51310376403964L199.1901234567902,41.36610589969891L199.81234567901242,42.24209168020744L200.43456790123466,42.19642272868731L200.8493827160495,44.21081711910966L202.50864197530873,44.39006406809037L205.7580246913581,42.900536587777054L206.31111111111122,42.191418293652106L208.80000000000007,40.23153572043148L209.90617283950627,41.853107559618536L210.11358024691364,41.3445116374144L210.66666666666677,40.44611453069206L210.87407407407414,41.47074551588281L212.53333333333342,42.42187727031444L212.80987654320995,43.304686632302946L214.88395061728403,42.15298282432471L216.47407407407417,41.112351808958095L217.51111111111118,39.893996348410894L218.75555555555565,40.08138717086902L219.17037037037048,39.96387498437474L220.27654320987665,39.61664325375585L221.52098765432106,38.72178017805271L221.59012345679022,37.87865933850895L223.94074074074084,38.922228099644485L224.6320987654322,38.04833648173431L224.8395061728396,37.581498692046836L224.90864197530874,37.89513295086999L225.04691358024698,38.33778320820244L225.11604938271614,39.13286548830379L226.84444444444455,41.223500330128815L229.12592592592603,39.8777455259775L230.71604938271614,39.87960442157052L231.89135802469144,39.824464916235854L234.03456790123465,40.22169458505121L235.90123456790133,40.721491233245615L236.246913580247,39.83564897406464L237.767901234568,37.93749337062911L239.08148148148157,39.244636172679066L239.21975308641984,39.21818868920474L240.1185185185186,40.70128124059323L241.22469135802478,39.660798407018035L243.22962962962973,40.59574336750259L243.43703703703713,41.39793803367468L245.16543209876554,40.649625243860186L246.96296296296305,39.740511945505204L248.13827160493835,38.37836832292763L249.5209876543211,38.460446458557726L250.76543209876553,39.58890182502475L250.90370370370383,40.321394927453724L251.04197530864207,40.8016037783776L251.4567901234569,40.44070206354192L253.39259259259268,42.093180173539025L254.36049382716058,41.51914247278512L258.23209876543217,39.9657346863724L258.50864197530876,39.418877004630104L259.06172839506183,43.66255568036047L259.26913580246924,44.867762226544414L261.41234567901245,42.34241239531747L261.9654320987655,43.751625494175585L262.8641975308643,43.0785647828543L263.20987654321,43.04089833800799L264.31604938271613,42.90753683306269L264.6617283950618,43.09484107564103L264.8000000000001,43.78087398661515L265.49135802469146,42.71403626228212L265.767901234568,42.717501179479285L267.77283950617294,42.70459379922565L268.60246913580255,41.6042991173334L272.19753086419763,41.6782164535679L272.68148148148157,40.727476162490944L272.9580246913581,42.93291222346855L273.71851851851864,43.032853264128704L274.13333333333344,42.09459256690258L276.06913580246925,41.23233467200234L277.8666666666668,41.84739882685787L278.6962962962964,40.936839010739476L279.4567901234569,41.555542962374574L279.6641975308643,41.495681196367286L283.604938271605,41.247862967727" style="fill: none;" fill="none"></path></g></g></g></g><g opacity="0.2"><g><g><g><path stroke="rgb(238, 51, 119)" stroke-width="2px" d="M46.33086419753089,187.81323281923932L47.022222222222254,176.01541626453403L49.99506172839509,195.03962643941247L50.54814814814818,157.1136588652929L51.101234567901265,157.29835478464764L52.8987654320988,197.1675639152527L53.52098765432102,157.88603969415033L53.79753086419757,161.7818946441015L53.93580246913584,151.97691965103152L54.903703703703734,157.4571455319723L55.04197530864201,151.0232910315196L55.387654320987686,152.08637563387555L55.52592592592596,152.9308135112127L56.07901234567904,146.7784677743912L56.493827160493865,135.31025695800784L56.562962962963,147.92298126220706L58.42962962962966,135.28656212488812L63.47654320987658,134.34628395239514L65.75802469135806,124.89407904942833L65.96543209876546,137.46878552436831L67.14074074074078,115.89437472820285L67.762962962963,107.25256848335269L67.83209876543214,104.12935960292819L68.24691358024695,106.7141299247742L68.31604938271609,103.64476490020755L68.66172839506176,110.61007328828178L69.90617283950621,101.0755553642909L70.11358024691363,104.32139384746554L70.73580246913583,92.4493099053701L74.1234567901235,100.10486292839053L74.3308641975309,91.93253266811374L74.74567901234572,92.04048562049869L75.16049382716054,84.57829304536186L75.50617283950622,83.15554209550224L76.19753086419756,92.83443935712181L76.61234567901239,75.52147356669111L76.95802469135806,84.48926059405012L80.55308641975313,76.26759556929274L80.8987654320988,69.20158414045973L80.96790123456795,67.56575651963554L82.21234567901237,90.41535604000094L83.11111111111116,75.26507425308229L84.00987654320993,84.14108800888063L86.63703703703709,64.9109626611074L87.81234567901238,58.798403024673476L89.1950617283951,72.6940964460373L90.09382716049387,63.61552723248802L91.61481481481486,59.91904485225679L91.82222222222227,58.442007978757246L92.79012345679017,53.4850135246913L93.06666666666672,56.599646290143355L96.38518518518524,61.32641184329988L96.80000000000004,53.84353049596153L96.86913580246917,51.42586179574333L98.39012345679016,50.06420461336775L99.21975308641979,52.368792374928816L99.91111111111115,46.465242385864286L101.98518518518523,52.408401648203565L102.74567901234572,40.12890803813937L103.2987654320988,42.84364628791812L103.71358024691362,51.41171562671663L105.92592592592598,45.9168130954107L106.20246913580252,49.36052111784619L107.93086419753091,49.558037002881406L109.0370370370371,50.87150879700981L109.10617283950623,48.75099805990857L110.14320987654327,47.992586572965024L110.4197530864198,57.58740254243217L111.59506172839512,42.67406908671063L114.01481481481487,49.37033502260846L114.56790123456796,42.343490799268125L115.95061728395066,42.0854116280874L116.91851851851857,45.316927115122496L117.5407407407408,46.2267910242081L117.9555555555556,45.840070128440885L118.30123456790129,46.4300537904104L118.78518518518523,41.52292458216351L119.40740740740746,48.82641482353213L120.37530864197537,41.73847683270776L120.51358024691363,43.84855477015179L120.72098765432104,40.005305886268644L121.34320987654326,43.8380335569382L123.3481481481482,46.33509763081872L123.76296296296302,47.77491239706677L125.42222222222227,42.52818671862286L126.87407407407413,45.940419514973996L128.11851851851858,45.54406154155734L128.7407407407408,43.990723768870055L129.63950617283956,50.39964564641319L129.84691358024696,56.4622516234716L130.40000000000006,46.11936855316165L133.1654320987655,39.62707269191745L134.34074074074078,44.72844648361209L135.03209876543215,46.915090560913114L135.23950617283955,42.24075424671176L136.6222222222223,43.799131592114804L137.72839506172843,43.92423677444461L138.9728395061729,40.91260580221814L139.80246913580254,47.18802320957187L140.97777777777782,44.6512614488602L141.39259259259265,55.1163320541382L143.0518518518519,51.41145038604738L143.9506172839507,40.88121898969018L144.15802469135807,48.08639335632327L144.22716049382723,50.36481070518495L144.7802469135803,42.40856317679089L145.05679012345686,42.221656918525724L145.5407407407408,51.06080222129823L148.92839506172845,42.79616820812228L149.20493827160502,40.15826133886975L149.68888888888895,39.31444235642755L150.3111111111112,42.81712222099307L151.83209876543216,45.61930147806805L152.1086419753087,41.822823365529416L152.66172839506177,43.92954158782962L153.2148148148149,44.50166571140292L153.4913580246914,39.399938265482604L154.87407407407414,44.64038658142093L155.21975308641981,42.703510800997435L155.28888888888898,41.399852911631285L155.63456790123465,42.31077778339389L156.46419753086425,39.17103556791943L156.67160493827166,40.790506680806516L157.01728395061733,39.80213153362277L158.33086419753096,40.83975303173068L159.43703703703713,39.53415004412335L160.12839506172847,42.49441274007165L160.9580246913581,39.59108837445581L162.75555555555562,42.301140705744444L163.37777777777785,42.71429725488031L165.7975308641976,38.21236737569177L165.86666666666676,41.99319628874463L166.004938271605,39.651121179262816L169.04691358024698,47.996211528778105L169.60000000000008,41.39534382025403L170.2222222222223,47.69896515210473L170.36049382716058,44.272851427396176L170.70617283950625,43.548125505447416L172.43456790123466,39.10021630922955L172.50370370370376,40.474605043729184L173.19506172839513,46.27126304308575L173.3333333333334,43.11631369590762L173.67901234567907,42.7357817490896L174.64691358024697,43.22267520427707L175.0617283950618,40.250123023986845L175.68395061728404,41.80045473575595L176.72098765432105,38.74558953444165L176.9975308641976,39.818399628003476L177.13580246913588,40.20733086268109L178.8641975308643,41.1623740990957L180.38518518518526,38.33428966999057L180.8000000000001,43.468111236890195L181.97530864197537,40.0355433225632L182.3901234567902,41.101457158724486L184.18765432098775,38.41563014189404L185.77777777777786,37.64696268240613L186.26172839506182,38.88722805182141L186.6074074074075,38.86592038472497L187.50617283950623,36.7358609835307L187.99012345679017,39.102603475252806L190.06419753086425,40.5792866945267L191.03209876543215,42.89192008972171L193.45185185185196,40.68936157226565L193.52098765432106,41.90478273232782L193.5901234567902,44.80138766765597L199.1901234567902,39.470669110616086L199.81234567901242,43.68967560927075L200.43456790123466,42.120953877766965L200.8493827160495,47.53964392344159L202.50864197530873,44.68627321720126L205.7580246913581,40.43906279404962L206.31111111111122,41.01958620548251L208.80000000000007,36.992790778478025L209.90617283950627,44.532787283261655L210.11358024691364,40.50404675801599L210.66666666666677,38.96149543921155L210.87407407407414,43.16396860281628L212.53333333333342,43.99364141623181L212.80987654320995,44.76354666550958L214.88395061728403,40.24976936976117L216.47407407407417,39.39268835385644L217.51111111111118,37.88063971201581L218.75555555555565,40.39105423291528L219.17037037037048,39.769683758417784L220.27654320987665,39.04283591111505L221.52098765432106,37.24300114313763L221.59012345679022,36.48538537820184L223.94074074074084,40.64674623807275L224.6320987654322,36.60421319802606L224.8395061728396,36.81003995736444L224.90864197530874,38.41341980298364L225.04691358024698,39.06927156448367L225.11604938271614,40.44675477345788L226.84444444444455,44.67831599712375L229.12592592592603,37.65385893980664L230.71604938271614,39.88267628351849L231.89135802469144,39.73334578673047L234.03456790123465,40.878124515215575L235.90123456790133,41.54741513729098L236.246913580247,38.37177701791131L237.767901234568,34.80075347423556L239.08148148148157,41.40471565723422L239.21975308641984,39.17448369661969L240.1185185185186,43.15212118625644L241.22469135802478,37.94137982527417L243.22962962962973,42.140758514404325L243.43703703703713,42.723580678304074L245.16543209876554,39.413023471832304L246.96296296296305,38.238184134165465L248.13827160493835,36.12739888827008L249.5209876543211,38.5960822105408L250.76543209876553,41.453696767489134L250.90370370370383,41.53185435136163L251.04197530864207,41.59515845775607L251.4567901234569,39.8443048000336L253.39259259259268,44.823933124542265L254.36049382716058,40.570533752441435L258.23209876543217,37.39869741598767L258.50864197530876,38.5151838064194L259.06172839506183,50.675319115320875L259.26913580246924,46.85939002037051L261.41234567901245,38.16922156016034L261.9654320987655,46.08037817478183L262.8641975308643,41.96631856759393L263.20987654321,42.97865378856662L264.31604938271613,42.68715429306033L264.6617283950618,43.40436506271365L264.8000000000001,44.914557019869505L265.49135802469146,40.95106569925946L265.767901234568,42.7232270240784L267.77283950617294,42.683264096578L268.60246913580255,39.78604026635492L272.19753086419763,41.80036632219952L272.68148148148157,39.15635891755426L272.9580246913581,46.57743918895724L273.71851851851864,43.19800782203677L274.13333333333344,40.54409809907281L276.06913580246925,39.80743634700778L277.8666666666668,42.863804578781156L278.6962962962964,39.43212080001834L279.4567901234569,42.577963550885556L279.6641975308643,41.396758437156706L283.604938271605,40.838338414828" style="fill: none;" fill="none"></path></g></g></g></g></g></g><g transform="translate(50, 178)" clip-path="url(#clip_1)"><clipPath id="clip_1"><rect width="280" height="22"></rect></clipPath><g><g><line x1="0.4938271604938408" y1="0" x2="0.4938271604938408" y2="5" style="visibility: inherit;" fill="rgb(0, 0, 0)" stroke="rgb(204, 204, 204)" stroke-width="1px"></line><line x1="35.061728395061756" y1="0" x2="35.061728395061756" y2="5" style="visibility: inherit;" fill="rgb(0, 0, 0)" stroke="rgb(204, 204, 204)" stroke-width="1px"></line><line x1="69.62962962962966" y1="0" x2="69.62962962962966" y2="5" style="visibility: inherit;" fill="rgb(0, 0, 0)" stroke="rgb(204, 204, 204)" stroke-width="1px"></line><line x1="104.19753086419757" y1="0" x2="104.19753086419757" y2="5" style="visibility: inherit;" fill="rgb(0, 0, 0)" stroke="rgb(204, 204, 204)" stroke-width="1px"></line><line x1="138.76543209876547" y1="0" x2="138.76543209876547" y2="5" style="visibility: inherit;" fill="rgb(0, 0, 0)" stroke="rgb(204, 204, 204)" stroke-width="1px"></line><line x1="173.3333333333334" y1="0" x2="173.3333333333334" y2="5" style="visibility: inherit;" fill="rgb(0, 0, 0)" stroke="rgb(204, 204, 204)" stroke-width="1px"></line><line x1="207.90123456790133" y1="0" x2="207.90123456790133" y2="5" style="visibility: inherit;" fill="rgb(0, 0, 0)" stroke="rgb(204, 204, 204)" stroke-width="1px"></line><line x1="242.46913580246922" y1="0" x2="242.46913580246922" y2="5" style="visibility: inherit;" fill="rgb(0, 0, 0)" stroke="rgb(204, 204, 204)" stroke-width="1px"></line><line x1="277.0370370370371" y1="0" x2="277.0370370370371" y2="5" style="visibility: inherit;" fill="rgb(0, 0, 0)" stroke="rgb(204, 204, 204)" stroke-width="1px"></line></g><g transform="translate(0, 8)"><text x="0.4938271604938408" y="0" dx="0em" dy="0.95em" style="text-anchor: middle; visibility: hidden; font-family: &quot;Helvetica Neue&quot;, sans-serif; font-size: 12px; font-weight: 200;" fill="rgb(50, 49, 63)" stroke="none" stroke-width="1px">0</text><text x="35.061728395061756" y="0" dx="0em" dy="0.95em" style="text-anchor: middle; visibility: inherit; font-family: &quot;Helvetica Neue&quot;, sans-serif; font-size: 12px; font-weight: 200;" fill="rgb(50, 49, 63)" stroke="none" stroke-width="1px">500</text><text x="69.62962962962966" y="0" dx="0em" dy="0.95em" style="text-anchor: middle; visibility: inherit; font-family: &quot;Helvetica Neue&quot;, sans-serif; font-size: 12px; font-weight: 200;" fill="rgb(50, 49, 63)" stroke="none" stroke-width="1px">1k</text><text x="104.19753086419757" y="0" dx="0em" dy="0.95em" style="text-anchor: middle; visibility: inherit; font-family: &quot;Helvetica Neue&quot;, sans-serif; font-size: 12px; font-weight: 200;" fill="rgb(50, 49, 63)" stroke="none" stroke-width="1px">1.5k</text><text x="138.76543209876547" y="0" dx="0em" dy="0.95em" style="text-anchor: middle; visibility: inherit; font-family: &quot;Helvetica Neue&quot;, sans-serif; font-size: 12px; font-weight: 200;" fill="rgb(50, 49, 63)" stroke="none" stroke-width="1px">2k</text><text x="173.3333333333334" y="0" dx="0em" dy="0.95em" style="text-anchor: middle; visibility: inherit; font-family: &quot;Helvetica Neue&quot;, sans-serif; font-size: 12px; font-weight: 200;" fill="rgb(50, 49, 63)" stroke="none" stroke-width="1px">2.5k</text><text x="207.90123456790133" y="0" dx="0em" dy="0.95em" style="text-anchor: middle; visibility: inherit; font-family: &quot;Helvetica Neue&quot;, sans-serif; font-size: 12px; font-weight: 200;" fill="rgb(50, 49, 63)" stroke="none" stroke-width="1px">3k</text><text x="242.46913580246922" y="0" dx="0em" dy="0.95em" style="text-anchor: middle; visibility: inherit; font-family: &quot;Helvetica Neue&quot;, sans-serif; font-size: 12px; font-weight: 200;" fill="rgb(50, 49, 63)" stroke="none" stroke-width="1px">3.5k</text><text x="277.0370370370371" y="0" dx="0em" dy="0.95em" style="text-anchor: middle; visibility: hidden; font-family: &quot;Helvetica Neue&quot;, sans-serif; font-size: 12px; font-weight: 200;" fill="rgb(50, 49, 63)" stroke="none" stroke-width="1px">4k</text></g><line x1="0" y1="0" x2="280" y2="0" fill="rgb(0, 0, 0)" stroke="rgb(204, 204, 204)" stroke-width="1px"></line></g></g></g></g></svg>