<svg viewBox="0 0 330 200" xmlns="http://www.w3.org/2000/svg"><g><g><g><g><g><line x1="40" y1="168.80453193478468" x2="35" y2="168.80453193478468" style="visibility: inherit;" fill="rgb(0, 0, 0)" stroke="rgb(204, 204, 204)" stroke-width="1px"></line><line x1="40" y1="144.65514169088223" x2="35" y2="144.65514169088223" style="visibility: inherit;" fill="rgb(0, 0, 0)" stroke="rgb(204, 204, 204)" stroke-width="1px"></line><line x1="40" y1="120.50575144697979" x2="35" y2="120.50575144697979" style="visibility: inherit;" fill="rgb(0, 0, 0)" stroke="rgb(204, 204, 204)" stroke-width="1px"></line><line x1="40" y1="96.35636120307736" x2="35" y2="96.35636120307736" style="visibility: inherit;" fill="rgb(0, 0, 0)" stroke="rgb(204, 204, 204)" stroke-width="1px"></line><line x1="40" y1="72.2069709591749" x2="35" y2="72.2069709591749" style="visibility: inherit;" fill="rgb(0, 0, 0)" stroke="rgb(204, 204, 204)" stroke-width="1px"></line><line x1="40" y1="48.05758071527248" x2="35" y2="48.05758071527248" style="visibility: inherit;" fill="rgb(0, 0, 0)" stroke="rgb(204, 204, 204)" stroke-width="1px"></line><line x1="40" y1="23.908190471370034" x2="35" y2="23.908190471370034" style="visibility: inherit;" fill="rgb(0, 0, 0)" stroke="rgb(204, 204, 204)" stroke-width="1px"></line></g><g transform="translate(30, 0)"><text x="0" y="168.80453193478468" dx="0em" dy="0.3em" style="text-anchor: end; visibility: inherit; font-family: &quot;Helvetica Neue&quot;, sans-serif; font-size: 12px; font-weight: 200;" fill="rgb(50, 49, 63)" stroke="none" stroke-width="1px">0</text><text x="0" y="144.65514169088223" dx="0em" dy="0.3em" style="text-anchor: end; visibility: inherit; font-family: &quot;Helvetica Neue&quot;, sans-serif; font-size: 12px; font-weight: 200;" fill="rgb(50, 49, 63)" stroke="none" stroke-width="1px">0.1</text><text x="0" y="120.50575144697979" dx="0em" dy="0.3em" style="text-anchor: end; visibility: inherit; font-family: &quot;Helvetica Neue&quot;, sans-serif; font-size: 12px; font-weight: 200;" fill="rgb(50, 49, 63)" stroke="none" stroke-width="1px">0.2</text><text x="0" y="96.35636120307736" dx="0em" dy="0.3em" style="text-anchor: end; visibility: inherit; font-family: &quot;Helvetica Neue&quot;, sans-serif; font-size: 12px; font-weight: 200;" fill="rgb(50, 49, 63)" stroke="none" stroke-width="1px">0.3</text><text x="0" y="72.2069709591749" dx="0em" dy="0.3em" style="text-anchor: end; visibility: inherit; font-family: &quot;Helvetica Neue&quot;, sans-serif; font-size: 12px; font-weight: 200;" fill="rgb(50, 49, 63)" stroke="none" stroke-width="1px">0.4</text><text x="0" y="48.05758071527248" dx="0em" dy="0.3em" style="text-anchor: end; visibility: inherit; font-family: &quot;Helvetica Neue&quot;, sans-serif; font-size: 12px; font-weight: 200;" fill="rgb(50, 49, 63)" stroke="none" stroke-width="1px">0.5</text><text x="0" y="23.908190471370034" dx="0em" dy="0.3em" style="text-anchor: end; visibility: inherit; font-family: &quot;Helvetica Neue&quot;, sans-serif; font-size: 12px; font-weight: 200;" fill="rgb(50, 49, 63)" stroke="none" stroke-width="1px">0.6</text></g><line x1="40" y1="0" x2="40" y2="178" fill="rgb(0, 0, 0)" stroke="rgb(204, 204, 204)" stroke-width="1px"></line></g></g><g transform="translate(40, 0)" clip-path="url(#clip_0)"><clipPath id="clip_0"><rect width="290" height="178"></rect></clipPath><g><g><g><line x1="27.57042253521127" y1="0" x2="27.57042253521127" y2="178" fill="rgb(0, 0, 0)" stroke="rgb(60, 60, 60)" stroke-width="1px" opacity="0.25"></line><line x1="63.30985915492958" y1="0" x2="63.30985915492958" y2="178" fill="rgb(0, 0, 0)" stroke="rgb(60, 60, 60)" stroke-width="1px" opacity="0.25"></line><line x1="99.04929577464789" y1="0" x2="99.04929577464789" y2="178" fill="rgb(0, 0, 0)" stroke="rgb(60, 60, 60)" stroke-width="1px" opacity="0.25"></line><line x1="134.7887323943662" y1="0" x2="134.7887323943662" y2="178" fill="rgb(0, 0, 0)" stroke="rgb(60, 60, 60)" stroke-width="1px" opacity="0.25"></line><line x1="170.5281690140845" y1="0" x2="170.5281690140845" y2="178" fill="rgb(0, 0, 0)" stroke="rgb(60, 60, 60)" stroke-width="1px" opacity="0.25"></line><line x1="206.2676056338028" y1="0" x2="206.2676056338028" y2="178" fill="rgb(0, 0, 0)" stroke="rgb(60, 60, 60)" stroke-width="1px" opacity="0.25"></line><line x1="242.00704225352112" y1="0" x2="242.00704225352112" y2="178" fill="rgb(0, 0, 0)" stroke="rgb(60, 60, 60)" stroke-width="1px" opacity="0.25"></line><line x1="277.7464788732394" y1="0" x2="277.7464788732394" y2="178" fill="rgb(0, 0, 0)" stroke="rgb(60, 60, 60)" stroke-width="1px" opacity="0.25"></line></g><g><line x1="0" y1="168.80453193478468" x2="290" y2="168.80453193478468" fill="rgb(0, 0, 0)" stroke="rgb(60, 60, 60)" stroke-width="1px" opacity="0.25"></line><line x1="0" y1="144.65514169088223" x2="290" y2="144.65514169088223" fill="rgb(0, 0, 0)" stroke="rgb(60, 60, 60)" stroke-width="1px" opacity="0.25"></line><line x1="0" y1="120.50575144697979" x2="290" y2="120.50575144697979" fill="rgb(0, 0, 0)" stroke="rgb(60, 60, 60)" stroke-width="1px" opacity="0.25"></line><line x1="0" y1="96.35636120307736" x2="290" y2="96.35636120307736" fill="rgb(0, 0, 0)" stroke="rgb(60, 60, 60)" stroke-width="1px" opacity="0.25"></line><line x1="0" y1="72.2069709591749" x2="290" y2="72.2069709591749" fill="rgb(0, 0, 0)" stroke="rgb(60, 60, 60)" stroke-width="1px" opacity="0.25"></line><line x1="0" y1="48.05758071527248" x2="290" y2="48.05758071527248" fill="rgb(0, 0, 0)" stroke="rgb(60, 60, 60)" stroke-width="1px" opacity="0.25"></line><line x1="0" y1="23.908190471370034" x2="290" y2="23.908190471370034" fill="rgb(0, 0, 0)" stroke="rgb(60, 60, 60)" stroke-width="1px" opacity="0.25"></line></g></g></g><g><g><line x1="0" y1="168.80453193478468" x2="290" y2="168.80453193478468" fill="rgb(0, 0, 0)" stroke="rgb(153, 153, 153)" stroke-width="1.5px"></line></g></g><g><g><line x1="-8.169014084507037" y1="0" x2="-8.169014084507037" y2="178" fill="rgb(0, 0, 0)" stroke="rgb(153, 153, 153)" stroke-width="1.5px"></line></g></g><g><g><g><g><g><path stroke="rgb(204, 51, 17)" stroke-width="2px" d="M14.704225352112681,-5.252725369564615L15.56197183098592,0.8934991355752118L16.20528169014085,2.1096305247648672L16.777112676056344,4.620331903966445L17.920774647887328,8.001551679296824L18.206690140845076,12.414214516424806L18.92147887323944,17.13309872450722L22.066549295774653,23.198059783994665L22.13802816901409,27.01408800620112L23.35316901408451,32.681722860026156L23.49612676056338,34.434580381942794L23.567605633802817,35.828193783472386L23.78204225352113,37.95306843437382L24.854225352112678,41.67640372527819L25.068661971830988,42.80354134737712L25.140140845070423,43.493798717877866L25.854929577464794,46.957411114611745L27.070070422535213,53.120844006857794L27.213028169014088,57.280083090652525L28.71408450704226,59.42307920547489L28.928521126760565,60.392198751584175L29.500352112676058,58.62929074749316L29.929225352112677,60.72110318568801L30.072183098591555,63.04979091567657L30.28661971830986,63.54167271034551L30.715492957746484,66.90223136890867L31.072887323943664,66.92995096772383L31.787676056338032,70.83061295408606L32.21654929577465,75.63650611039085L32.645422535211274,75.3682616868587L32.931338028169016,76.13526636705691L33.360211267605635,77.88198990911559L33.503169014084506,79.651220403347L33.8605633802817,79.50949031144901L33.93204225352113,79.08698188032457L34.36091549295775,79.58073965611939L35.00422535211268,80.81850486360304L36.29084507042254,82.64593067711812L36.43380281690141,84.1195771974019L37.29154929577465,85.77418123471602L37.791901408450705,86.56285119552672L37.86338028169014,86.74205196995514L38.00633802816901,88.23745746464758L38.220774647887325,89.52246970137718L38.363732394366195,88.93416248423067L39.22147887323944,91.31988990006384L39.43591549295775,92.4375665872484L39.721830985915496,94.78448194941288L39.93626760563381,95.31822246441877L40.15070422535212,94.67047677593969L40.43661971830986,95.82063938340652L40.79401408450705,96.66518513375233L41.151408450704224,98.74787256499202L43.00985915492958,98.13183011871108L43.29577464788732,99.81641864868429L43.581690140845076,102.09834918591629L43.65316901408451,104.00346377663837L44.153521126760566,104.60627731976527L44.79683098591549,104.28413520826982L45.08274647887325,104.7957467358925L45.36866197183099,104.03314430670896L45.72605633802817,105.02701484213259L46.01197183098592,101.80875051185527L46.655281690140846,104.8094798735745L46.941197183098595,105.81624090167062L47.01267605633803,106.70672712133168L47.084154929577466,107.85508435213589L47.227112676056336,108.00894351721217L47.29859154929578,107.43669677857311L47.72746478873239,107.75225761507663L48.084859154929575,109.178466138438L48.22781690140845,110.4948256519802L48.58521126760564,111.45685571751868L48.72816901408451,112.28354504434712L49.014084507042256,110.19316798914163L49.300000000000004,111.0082957174256L49.65739436619719,113.02960380832245L49.72887323943662,114.03907617850459L49.80035211267606,113.7130278705705L51.4443661971831,115.22552676733174L51.73028169014085,116.41350414607774L54.08908450704226,118.19569038645108L54.44647887323944,118.57360522644925L54.58943661971831,119.56138424584857L55.01830985915493,117.35981965557744L55.59014084507043,117.77441496482659L56.01901408450704,118.32974623233568L56.30492957746479,118.51689195144964L56.805281690140845,118.84426092777551L56.948239436619716,119.3213311040027L57.37711267605634,119.42300787337525L57.52007042253521,119.36042694516124L58.52077464788733,121.31217010156128L58.59225352112676,122.802641733966L59.307042253521125,123.5842058133777L59.52147887323944,122.11580856315223L60.16478873239437,124.55085073980214L60.45070422535211,124.26827435439182L60.73661971830986,125.31904597740302L61.379929577464786,126.36811980322591L61.45140845070423,128.03498238614935L61.88028169014084,127.88097685402428L61.95176056338028,127.91554922131994L62.30915492957747,128.03044699242375L63.166901408450705,129.7662220037292L63.595774647887325,130.287419445216L63.81021126760564,130.23033717233693L64.45352112676056,131.50532809941913L64.66795774647888,132.51099578971375L65.23978873239436,132.3067974134257L66.09753521126761,133.7356831259591L66.59788732394367,135.18569895013306L67.52711267605635,136.26068038643854L67.95598591549296,134.64083086620337L68.17042253521127,134.90625844873637L68.31338028169014,134.54720293057414L68.59929577464789,134.57414960924655L68.88521126760563,135.65371890687592L69.02816901408451,136.63434224911288L69.3855633802817,136.81992708286916L69.45704225352112,136.91790320863157L70.10035211267606,135.98597264051324L70.52922535211268,137.47537117846556L70.81514084507043,137.10299465213058L70.88661971830986,136.87100407622387L71.60140845070423,137.2122616140153L71.95880281690141,138.68521407482058L72.95950704225353,137.91718585782726L74.53204225352113,138.29825767781978L74.60352112676057,138.66915768933143L74.88943661971831,140.24594593247707L74.96091549295774,141.32305443130434L75.03239436619718,142.24286522128813L76.31901408450705,141.27584774351826L77.17676056338028,141.9553237352553L77.24823943661973,142.36561887030217L77.67711267605634,141.1846115526286L78.1774647887324,141.82532016359824L80.03591549295776,141.84896378291222L80.17887323943661,142.12860804604713L80.893661971831,143.52859851305098L81.67992957746479,144.8055000881701L81.8943661971831,145.72023212023316L82.10880281690142,146.0439963355266L83.53838028169014,146.18128637068696L83.96725352112676,147.7120811061858L84.46760563380282,147.5170701369821L84.89647887323945,147.88381200864833L85.61126760563381,148.71130242999496L86.04014084507043,148.4800762140631L86.25457746478872,148.35521480083955L86.82640845070422,148.55747113965108L87.04084507042253,149.7290024532879L87.25528169014085,150.04229369170704L87.46971830985916,150.09693000191643L87.54119718309859,150.13096842317688L88.82781690140844,149.9501991077216L90.97218309859156,150.76280116007635L91.18661971830987,150.86546938688429L91.2580985915493,151.16082317339442L91.40105633802816,151.85883252187054L91.47253521126761,152.44485225898472L93.04507042253522,152.95295375349738L93.40246478873239,152.80302047417516L93.90281690140844,152.80674339113992L94.04577464788733,152.37415352491251L94.33169014084507,152.69275009894008L94.61760563380281,153.64068281873213L94.90352112676055,154.00321825167023L96.69049295774647,154.32502516059452L96.76197183098591,154.1908017123216L97.54823943661972,155.18852166321295L98.1200704225352,155.60990857805166L98.40598591549295,155.33551657367497L98.54894366197183,154.8342584423383L99.2637323943662,155.66929643007558L99.76408450704226,155.1812754595842L100.83626760563381,155.8542922176388L100.90774647887324,155.82918434755035L101.12218309859155,156.22864803727975L102.83767605633803,155.87482173416495L102.90915492957747,155.65438794732444L104.05281690140846,155.91976890268143L104.12429577464789,156.28828492523755L104.76760563380282,155.44557131648875L105.19647887323943,155.8675746120312L105.48239436619718,155.2389343852872L106.12570422535211,155.14376351274097L106.62605633802818,156.2863304909424L106.6975352112676,156.8474391954677L107.05492957746478,156.78749647365157L107.62676056338029,156.10454678094848L108.27007042253521,156.80026219734586L108.6274647887324,157.32460231835535L108.98485915492958,157.5546571737873L109.1992957746479,157.19832804677387L109.55669014084506,158.0726450903145L109.77112676056338,158.52592475250324L110.05704225352112,158.31376669939422L110.62887323943663,157.33328138684644L111.20070422535211,157.97593866814645L111.70105633802817,158.32906002022895L112.20140845070422,157.95429171744001L112.84471830985915,158.13398237552838L113.13063380281689,158.53426378270498L113.20211267605634,158.77491584362485L113.27359154929577,158.23383439285305L113.41654929577466,157.9199624170926L113.63098591549297,157.6256306614614L114.13133802816901,157.96640992403655L114.77464788732394,157.20051351738104L115.48943661971832,158.27422536857065L115.77535211267606,158.96662840080845L115.91830985915492,159.0649662085004L116.13274647887323,159.5180669655247L116.49014084507043,157.99970052558479L116.70457746478874,157.57762840586742L116.77605633802817,157.57668717718406L116.8475352112676,157.744255112812L118.2056338028169,157.87490178125142L118.84894366197183,157.92753402721164L119.27781690140846,157.8833567859092L119.77816901408451,158.03718718869087L119.84964788732394,158.26274193776447L120.49295774647888,158.65927009215483L120.99330985915493,158.75113560700044L121.85105633802817,159.17570812454616L122.49436619718308,159.09981006205544L122.78028169014085,159.04078444674454L123.49507042253522,158.89201499159915L123.78098591549296,158.55987757234968L124.13838028169013,158.38645977415888L124.42429577464789,159.036789884112L125.35352112676057,158.463467916379L125.56795774647888,157.14702933905073L125.99683098591548,158.00151783092312L126.06830985915494,158.5338641613596L126.13978873239436,158.4265133312717L128.5700704225352,157.71440146570495L128.99894366197182,158.5562373969923L129.4992957746479,158.90844537073676L130.21408450704223,158.81296106660054L130.35704225352112,159.19057796905207L130.5,159.8284617482236L130.92887323943663,159.96040741206542L131.14330985915493,160.37678283665193L131.2862676056338,159.81746172616798L131.5007042253521,159.55882978888386L132.57288732394366,159.8363207541207L132.71584507042252,160.10280948769574L133.57359154929577,160.17349343093503L133.6450704225352,160.02424327602594L133.71654929577463,160.17797017845584L134.71725352112676,159.35036676348045L135.0031690140845,159.7914362703455L135.28908450704225,159.5336081169401L135.86091549295776,159.1355152983952L136.1468309859155,158.73410814035134L136.86161971830987,159.04633858369934L137.07605633802817,159.13377272398793L137.2904929577465,158.74434680834145L137.5049295774648,158.33377923009797L137.86232394366198,158.10917618072733L139.22042253521127,157.8289495640258L140.07816901408452,158.52491878117414L140.14964788732394,158.8073361589239L140.36408450704226,158.41011849549332L140.43556338028168,158.22576593535263L140.57852112676056,157.4267675209241L140.72147887323942,157.0231233068567L141.0073943661972,157.84268629838792L141.29330985915493,158.75759355455438L141.65070422535211,158.93990972518634L141.79366197183097,158.555884885701L142.86584507042255,159.21900056055838L143.1517605633803,159.67546691402927L145.01021126760563,159.272669623795L145.22464788732395,158.79646748613496L145.29612676056337,158.73234598832016L145.5820422535211,159.40702660290538L145.725,159.70723251227645L146.08239436619718,160.06121617599004L146.72570422535213,159.48740398850532L147.01161971830984,159.77040912608732L147.29753521126761,159.78294152174823L147.58345070422533,159.7433943388584L148.29823943661972,159.7724387221854L148.44119718309858,159.96895074693523L148.58415492957747,160.39035138859455L148.65563380281688,160.7109736814091L148.94154929577465,160.40400094190966L149.15598591549298,160.36233159337135L149.72781690140846,159.64168501045063L150.0137323943662,159.9094641568065L151.0144366197183,159.96292893970374L151.30035211267605,159.87997705352447L151.44330985915494,160.09127705634376L151.80070422535212,160.28770375100788L151.87218309859156,160.4100775817836L152.01514084507042,160.48478889111337L152.22957746478875,160.11100572210066L152.3725352112676,160.1077880120008L152.51549295774646,160.1543792390494L152.5869718309859,160.16952331917912L153.08732394366197,160.97847719986044L153.3017605633803,161.51511697181977L153.65915492957745,161.83456314062033L155.01725352112675,161.95757080270994L155.73204225352114,161.69381208008897L156.16091549295774,161.82547483872716L156.58978873239437,161.8886623035546L156.8757042253521,161.61526596797134L156.94718309859155,161.56714550415353L157.73345070422533,162.10678165883246L157.8049295774648,162.36842896312757L158.87711267605636,162.02941712224094L159.5919014084507,162.0890857770726L160.23521126760562,161.5982534309198L161.45035211267606,161.5878096618976L162.7369718309859,161.41458335987636L162.80845070422532,161.3066633737171L162.95140845070424,161.66028985238003L163.66619718309857,162.44805507509616L163.95211267605634,162.56961524342066L164.66690140845068,161.82784606066664L165.2387323943662,162.36766829891602L165.3102112676056,162.7039775533454L166.09647887323942,161.1900859239902L166.66830985915493,161.4718534195318L167.09718309859156,161.70219523538472L167.16866197183097,161.9461931792918L167.31161971830986,161.24773818486736L167.45457746478874,161.19466508042262L167.8119718309859,161.40873339032873L169.59894366197182,162.07473037918737L169.67042253521126,162.31577085239485L170.38521126760565,161.80638445130495L170.5281690140845,161.4444558669347L170.81408450704225,161.52727768715275L170.88556338028167,161.90937260682279L171.88626760563378,161.79774864654235L172.3151408450704,161.91942021052563L172.67253521126761,162.1880784668939L172.81549295774647,162.304069124781L172.95845070422536,162.13677008064684L173.1014084507042,162.25268949908627L174.0306338028169,162.6597387173355L174.31654929577465,163.06936558257942L174.45950704225353,162.99559768156277L174.67394366197183,163.15741011995217L175.38873239436617,162.37418835320247L176.10352112676057,162.73613253454906L176.24647887323943,162.87813572398846L177.10422535211268,163.1260719146335L177.17570422535212,163.26081929710375L177.24718309859153,163.34476691638272L177.5330985915493,163.39707968010651L177.81901408450705,162.6335554161143L178.24788732394364,161.95105198236325L179.4630281690141,162.05437768839477L179.89190140845068,161.91910490546906L179.96338028169012,162.07644176129793L180.53521126760563,162.3672760817047L180.96408450704223,162.24446175703974L181.39295774647886,162.2438329570744L181.75035211267604,162.76809451293715L183.39436619718307,162.9875419590327L183.537323943662,163.10386320726485L183.89471830985914,162.68258184206627L184.25211267605633,162.6151127372754L185.18133802816902,162.95458456335024L185.68169014084506,162.65207021486515L186.75387323943661,162.67279911585663L187.61161971830987,162.70257823882028L187.82605633802817,162.6477370860365L188.2549295774648,162.15787233910882L188.82676056338028,162.39131321942773L188.89823943661972,162.5945844137168L188.96971830985913,162.89248511183322L189.04119718309857,163.195430134627L189.68450704225353,163.32656121042038L191.32852112676056,162.45156756027305L191.4,161.92267102577125L191.47147887323942,161.6111905547941L191.9718309859155,161.91688971082436L192.7580985915493,162.42904985326933L192.90105633802816,161.8029150744571L193.7588028169014,162.3340045054684L193.83028169014085,162.0975400712516L194.04471830985915,161.97559478613078L194.18767605633803,161.91995955700452L194.25915492957748,161.91218963567744L196.33204225352114,162.0655066549782L197.18978873239433,162.4807045353623L197.2612676056338,162.568019853581L197.8330985915493,162.0501505219084L197.90457746478873,161.76546069917032L198.33345070422536,161.970633206128L198.54788732394366,161.8908279462663L198.97676056338028,161.49343614459227L199.26267605633802,161.31788455220953L200.47781690140843,161.22553880787694L200.62077464788732,161.07037681218978L200.69225352112673,161.15637983250542L200.7637323943662,161.4125654688791L201.54999999999998,161.6258663217509L202.83661971830986,162.27256252212248L204.05176056338027,162.65191062180944L204.55211267605634,162.44910724650995L204.62359154929575,162.63285451004714L204.83802816901408,161.74214646354852L205.98169014084507,161.9459240701624L206.2676056338028,162.3683350731966L206.625,162.42761985370373L206.76795774647886,162.63699170484796L206.91091549295774,162.9205504699507L207.05387323943663,163.39433856177934L207.19683098591548,163.57324707957724L207.48274647887322,163.55939880611697L207.55422535211267,163.57977954874735L208.34049295774648,163.00178633823828L208.55492957746478,163.3104930189801L209.12676056338026,163.1764852691182L209.34119718309856,162.3556923815762L209.41267605633803,161.931694425246L209.9845070422535,161.97086422300566L211.05669014084506,161.3696564378492L211.34260563380283,161.24317615181195L211.4855633802817,161.80029664671696L212.55774647887324,162.08870287948562L213.4869718309859,162.33271346492174L215.13098591549294,162.91244851751725L216.2031690140845,163.41248703714473L216.27464788732394,163.8091701233315L216.70352112676056,163.8660210562879L216.77499999999998,163.65511404869122L217.1323943661972,162.8092533035835L217.48978873239437,163.12737459326283L217.7757042253521,163.70310476633384L217.918661971831,163.52173661707562L219.06232394366197,163.74527030535216L219.84859154929575,162.70546439323118L220.34894366197182,162.94712027979637L220.4204225352113,163.21754052175635L220.9207746478873,163.6324695750629L221.13521126760563,163.85822441955185L222.8507042253521,163.37678471118008L223.06514084507043,163.2732337987482L223.56549295774647,163.57081046178814L223.77992957746477,163.98534864509753L223.8514084507042,164.239873621172L223.99436619718307,164.05310078892808L224.06584507042254,163.96961988264172L225.49542253521128,163.72379864650438L225.85281690140843,163.13892682907598L226.49612676056336,163.35679865317698L226.63908450704224,163.7997350372896L226.78204225352113,163.89534788047314L227.28239436619717,164.08258675385278L228.21161971830986,164.25312794382708L228.35457746478872,164.43709517614315L228.78345070422534,164.5470341221216L229.35528169014083,164.08699887481487L229.78415492957745,164.19469909847146L229.8556338028169,163.89536397363491L230.21302816901408,163.87148669872403L230.57042253521126,163.1260839350508L231.07077464788733,163.20469914698225L231.92852112676056,162.34742443860503L233.143661971831,162.70171703300434L233.28661971830985,163.12647850874828L233.4295774647887,162.64013603248037L233.64401408450703,161.96231278030683L234.00140845070422,162.44428609622673L235.21654929577466,162.68642796238154L235.5739436619718,163.32283191960462L237.1464788732394,163.80226069151323L237.36091549295773,164.14591214840618L237.71830985915494,164.22505837524506L238.21866197183098,163.32035873386587L238.50457746478872,163.518155769162L238.6475352112676,163.64556960308994L239.0764084507042,163.64942239193456L239.14788732394368,163.75046889802252L239.57676056338028,163.3909175084124L240.07711267605632,163.5241051477326L240.50598591549294,163.33294154269137L240.72042253521127,163.67029809633928L241.14929577464787,163.27629063345412L241.93556338028168,163.37184036933007L242.07852112676053,163.38634371309257L242.79330985915493,163.2420813037619L243.00774647887323,163.26570972663896L243.1507042253521,163.61316003512476L243.5080985915493,163.39918435903684L244.65176056338026,163.38137314764947L244.79471830985915,163.44355652037547L245.22359154929578,163.55996748442325L245.50950704225352,163.20569300006798L245.65246478873237,162.5816891632926L246.65316901408448,163.1016188916343L247.51091549295774,163.40555081857323L247.86830985915492,163.97436186465026L248.72605633802814,163.40667148193913L248.79753521126761,163.2494418524388L249.2264084507042,163.67851828044218L249.29788732394366,163.94583289508824L250.2985915492958,163.6319694882663L250.5845070422535,163.9844606143495L250.72746478873236,163.95047852478413L250.87042253521128,163.70646495849596L251.08485915492957,163.6291389102983L251.2992957746479,163.80267640030866L252.5144366197183,163.56558606416266L253.30070422535212,163.17482774970185L253.37218309859156,163.085269723998L253.8010563380282,163.48798628655044L254.3014084507042,163.47247210235963L256.0169014084507,163.13692058255933L256.44577464788733,163.43431599632788L256.5887323943662,163.88179280234345L258.08978873239437,164.13464087302216L258.30422535211267,164.32172322022734L258.5901408450704,164.2107677894458L258.66161971830985,164.14758332386583L258.7330985915493,164.2605445070911L259.1619718309859,163.3562377726565L259.3764084507042,163.28921301677977L259.5193661971831,163.48462180541486L260.16267605633806,163.40660808141664L260.66302816901407,163.06393532086204L261.02042253521125,163.3552248445331L261.59225352112674,163.44586697810894L261.8781690140845,162.87253085026276L262.1640845070423,162.45781677654892L263.0933098591549,162.9023097914003L263.2362676056338,163.40361875322054L263.4507042253521,163.027513851729L264.3084507042253,163.63375046098966L264.5943661971831,163.8145812898829L264.9517605633803,163.5268962320256L265.09471830985916,163.0161345264082L265.80950704225353,163.49965603200815L265.9524647887324,163.54629058637423L266.09542253521124,163.6581582032671L267.0246478873239,163.99115245199334L268.16830985915493,163.19331080997296L268.5257042253521,163.3454517254315L269.0260563380282,163.403217471027L270.8130281690141,162.59323948400822L270.8845070422535,162.0886231980955L270.95598591549293,161.9070589903644L271.456338028169,162.39836046342958L272.17112676056337,163.01520167110525L272.7429577464789,162.73496259836517L273.2433098591549,163.0679613221108L273.5292253521127,163.04309687555192L274.31549295774647,162.93614220872146L274.74436619718307,163.32957250120387L275.1732394366197,163.59491315156873L276.4598591549296,163.73724161850248L276.7457746478873,163.92664432051853L277.5320422535211,164.1095024254319L277.8894366197183,164.2661529027359L278.2468309859155,164.42821752201453L278.5327464788732,163.59191132717075L278.6042253521127,162.99740371677137L279.39049295774646,163.24599524575723L279.46197183098593,163.29223287918282L280.2482394366197,162.83292138243317L280.3911971830986,162.92978653618704L280.462676056338,163.23243297824052L280.9630281690141,163.63545034802132L281.1774647887324,163.967967120597L281.2489436619718,164.3049306427773L281.32042253521126,164.51904960714467L281.74929577464786,164.10095518493773L283.3218309859155,164.09171331260433L284.5369718309859,163.79613613742262L284.8943661971831,163.7637202455661L284.9658450704225,163.74352514493947L285.1088028169014,164.06248226009436L285.6806338028169,164.17296844418166L289.8264084507042,164.49026353769068L290.82711267605634,164.01192930343248" style="fill: none;" fill="none"></path></g></g></g></g><g opacity="0.2"><g><g><g><path stroke="rgb(204, 51, 17)" stroke-width="2px" d="M14.704225352112681,-0.829644477948932L15.56197183098592,11.050257378961959L16.20528169014085,4.11931183607112L16.777112676056344,8.76931587697527L17.920774647887328,13.589084620519344L18.206690140845076,19.70622763728221L18.92147887323944,24.931148753660466L22.066549295774653,33.22052858915271L22.13802816901409,33.32015055854146L23.35316901408451,42.04760220683201L23.49612676056338,37.331212307985226L23.567605633802817,38.131167653857204L23.78204225352113,41.46446606698558L24.854225352112678,47.829289365105495L25.068661971830988,44.666158691048594L25.140140845070423,44.634462754537395L25.854929577464794,52.68109950495928L27.070070422535213,63.30603947599485L27.213028169014088,64.1533084201013L28.71408450704226,62.9644229177658L28.928521126760565,61.993688081095854L29.500352112676058,55.71605019961913L29.929225352112677,64.17786485411042L30.072183098591555,66.89799371616141L30.28661971830986,64.3545171614827L30.715492957746484,72.45562140679941L31.072887323943664,66.97575815621671L31.787676056338032,77.27653448592598L32.21654929577465,83.57834015913852L32.645422535211274,74.92498244054431L32.931338028169016,77.40275685979825L33.360211267605635,80.76848531150962L33.503169014084506,82.57490899195757L33.8605633802817,79.27527851502342L33.93204225352113,78.38877829255127L34.36091549295775,80.39668420338775L35.00422535211268,82.86393649294607L36.29084507042254,85.66578818857668L36.43380281690141,86.55480738874614L37.29154929577465,88.50844732290359L37.791901408450705,87.86614399548709L37.86338028169014,87.03818481470024L38.00633802816901,90.70864479407304L38.220774647887325,91.64597798647675L38.363732394366195,87.96197310417163L39.22147887323944,95.26235191614887L39.43591549295775,94.28454954776821L39.721830985915496,98.66280627468736L39.93626760563381,96.20023928364601L40.15070422535212,93.60006413954059L40.43661971830986,97.72130597346438L40.79401408450705,98.06081378750685L41.151408450704224,102.18955497788946L43.00985915492958,97.11380772074547L43.29577464788732,102.60023470749941L43.581690140845076,105.8692847951883L43.65316901408451,107.15170353796422L44.153521126760566,105.60243869209434L44.79683098591549,103.75178896036088L45.08274647887325,105.64119496323713L45.36866197183099,102.77292862134735L45.72605633802817,106.66940567388039L46.01197183098592,96.49050468224577L46.655281690140846,109.76824484002297L46.941197183098595,107.4799335290019L47.01267605633803,108.17827331456468L47.084154929577466,109.75276752134285L47.227112676056336,108.26319884835945L47.29859154929578,106.49104765875309L47.72746478873239,108.27372817513418L48.084859154929575,111.53530409614123L48.22781690140845,112.67013593563219L48.58521126760564,113.04662953935016L48.72816901408451,113.64966560300529L49.014084507042256,106.7387783196641L49.300000000000004,112.35531050448373L49.65739436619719,116.3698556402289L49.72887323943662,115.70724935257215L49.80035211267606,113.17422655533726L51.4443661971831,117.7249612837303L51.73028169014085,118.37666039795772L54.08908450704226,121.14078860330144L54.44647887323944,119.19811701774597L54.58943661971831,121.19370872618221L55.01830985915493,113.72169037245031L55.59014084507043,118.45954196127812L56.01901408450704,119.24744219959871L56.30492957746479,118.82615397534354L56.805281690140845,119.38524467379943L56.948239436619716,120.10969906100411L57.37711267605634,119.5910307575108L57.52007042253521,119.2570107163089L58.52077464788733,124.53746449529396L58.59225352112676,125.26567575780719L59.307042253521125,124.87575600296259L59.52147887323944,119.68925289500777L60.16478873239437,128.57480637919974L60.45070422535211,123.80131125595511L60.73661971830986,127.05546698837381L61.379929577464786,128.10173517056717L61.45140845070423,130.7895059648265L61.88028169014084,127.62647964841707L61.95176056338028,127.97268074605522L62.30915492957747,128.22031784493748L63.166901408450705,132.63462474124458L63.595774647887325,131.1487085859223L63.81021126760564,130.1360075808153L64.45352112676056,133.61227597096342L64.66795774647888,134.17288165457728L65.23978873239436,131.96935553430782L66.09753521126761,136.09694519202884L66.59788732394367,137.5818789460492L67.52711267605635,138.0371085955057L67.95598591549296,131.9639973088917L68.17042253521127,135.34488280926172L68.31338028169014,133.9538565437968L68.59929577464789,134.61867953182718L68.88521126760563,137.43772864805123L69.02816901408451,138.25484183058143L69.3855633802817,137.1266097126574L69.45704225352112,137.07981070558108L70.10035211267606,134.4459388369649L70.52922535211268,139.93663189237617L70.81514084507043,136.48763503434088L70.88661971830986,136.48763503434088L71.60140845070423,137.77619648415867L71.95880281690141,141.11929731906912L72.95950704225353,136.64800395016988L74.53204225352113,138.92798644136184L74.60352112676057,139.28207733700188L74.88943661971831,142.85161987274157L74.96091549295774,143.10299765350433L75.03239436619718,143.76287085035952L76.31901408450705,139.6778321237553L77.17676056338028,143.0781713290276L77.24823943661973,143.04363974333717L77.67711267605634,139.23297346533252L78.1774647887324,142.88410388941807L80.03591549295776,141.88803533419238L80.17887323943661,142.59072575409238L80.893661971831,145.84211061104403L81.67992957746479,146.91560534360568L81.8943661971831,147.23184500080419L82.10880281690142,146.57902314223168L83.53838028169014,146.40816088502362L83.96725352112676,150.24174986007372L84.46760563380282,147.19481063084447L84.89647887323945,148.48986024750258L85.61126760563381,150.07874681328127L86.04014084507043,148.09797029224472L86.25457746478872,148.1488788315072L86.82640845070422,148.89170376320436L87.04084507042253,151.66498125539863L87.25528169014085,150.560013695779L87.46971830985916,150.1872175914667L87.54119718309859,150.1872175914667L88.82781690140844,149.65147421772522L90.97218309859156,152.10564221741586L91.18661971830987,151.03513067415574L91.2580985915493,151.64890118134093L91.40105633802816,153.0123068563549L91.47253521126761,153.4132615327835L93.04507042253522,153.79260158129944L93.40246478873239,152.55525274733762L93.90281690140844,152.81289558548752L94.04577464788733,151.65929016507252L94.33169014084507,153.21923727564877L94.61760563380281,155.2071604962665L94.90352112676055,154.6023152668438L96.69049295774647,154.85681747958608L96.76197183098591,153.96899479382284L97.54823943661972,156.8372737306011L98.1200704225352,156.30625883785143L98.40598591549295,154.88207832771556L98.54894366197183,154.00591940832572L99.2637323943662,157.049213316973L99.76408450704226,154.3748110972072L100.83626760563381,156.96646579925152L100.90774647887324,155.7876930927358L101.12218309859155,156.888769731448L102.83767605633803,155.29011672928291L102.90915492957747,155.29011672928291L104.05281690140846,156.35831621087087L104.12429577464789,156.89726498373216L104.76760563380282,154.05297031317178L105.19647887323943,156.56494345320615L105.48239436619718,154.2000939044874L106.12570422535211,154.98649175253854L106.62605633802818,158.17444515253257L106.6975352112676,157.77468249233576L107.05492957746478,156.688439933356L107.62676056338029,154.97595882722425L108.27007042253521,157.94994576343493L108.6274647887324,158.19108479949304L108.98485915492958,157.93482739907665L109.1992957746479,156.60948707560848L109.55669014084506,159.5174713983405L109.77112676056338,159.27497841177006L110.05704225352112,157.96317129598066L110.62887323943663,155.71300990218523L111.20070422535211,159.0379426104539L111.70105633802817,158.9126000795059L112.20140845070422,157.3349796414784L112.84471830985915,158.43092476276726L113.13063380281689,159.1957367712223L113.20211267605634,159.17259816180277L113.27359154929577,157.3396865312328L113.41654929577466,157.401282733011L113.63098591549297,157.1392415798746L114.13133802816901,158.52955443487025L114.77464788732394,155.93485446871688L115.48943661971832,160.04855556297684L115.77535211267606,160.11083818617755L115.91830985915492,159.22747139203383L116.13274647887323,160.26682498044812L116.49014084507043,155.49056977735515L116.70457746478874,156.8801458313743L116.77605633802817,157.5751317780601L116.8475352112676,158.02116446001682L118.2056338028169,158.09079799991918L118.84894366197183,158.0145098607215L119.27781690140846,157.81035301579934L119.77816901408451,158.2913949895741L119.84964788732394,158.63547564777204L120.49295774647888,159.314540755776L120.99330985915493,158.9029451978461L121.85105633802817,159.87732265619331L122.49436619718308,158.97438700388116L122.78028169014085,158.94324344319358L123.49507042253522,158.6461705073669L123.78098591549296,158.01101387953156L124.13838028169013,158.0998834126924L124.42429577464789,160.1114733284112L125.35352112676057,157.51604195909073L125.56795774647888,154.97158840091944L125.99683098591548,159.41357706285012L126.06830985915494,159.41357706285012L126.13978873239436,158.24911394892487L128.5700704225352,156.53762244117422L128.99894366197182,159.9473880208438L129.4992957746479,159.49047605413944L130.21408450704223,158.65517135446026L130.35704225352112,159.81459741262583L130.5,160.88257738330014L130.92887323943663,160.1784502464778L131.14330985915493,161.06485150911186L131.2862676056338,158.89317246401546L131.5007042253521,159.13143536732417L132.57288732394366,160.29488009455181L132.71584507042252,160.54318742142854L133.57359154929577,160.2903000533172L133.6450704225352,159.77760442587115L133.71654929577463,160.43200694294873L134.71725352112676,157.9827356559747L135.0031690140845,160.52031240503234L135.28908450704225,159.10754196423036L135.86091549295776,158.47765899613137L136.1468309859155,158.0707748261303L136.86161971830987,159.5623056028129L137.07605633802817,159.27825938022082L137.2904929577465,158.10081273553573L137.5049295774648,157.65530813926057L137.86232394366198,157.73801517341195L139.22042253521127,157.36586950512648L140.07816901408452,159.67502175805316L140.14964788732394,159.27403649403826L140.36408450704226,157.75370840446612L140.43556338028168,157.92111966222888L140.57852112676056,156.106406745887L140.72147887323942,156.356093213053L141.0073943661972,159.19703044619683L141.29330985915493,160.26949599644215L141.65070422535211,159.24119082413523L141.79366197183097,157.92127619870007L142.86584507042255,160.31481240521663L143.1517605633803,160.42978664403552L145.01021126760563,158.60703908847415L145.22464788732395,158.00953398013442L145.29612676056337,158.62638393755455L145.5820422535211,160.5219497405356L145.725,160.20332874977825L146.08239436619718,160.6461812223921L146.72570422535213,158.53916793332502L147.01161971830984,160.2380807460172L147.29753521126761,159.80365155489613L147.58345070422533,159.67804183238525L148.29823943661972,159.8204351434393L148.44119718309858,160.29369077722473L148.58415492957747,161.08672433223848L148.65563380281688,161.2408083987127L148.94154929577465,159.89672238300213L149.15598591549298,160.293472165946L149.72781690140846,158.45080219570366L150.0137323943662,160.35197452333097L151.0144366197183,160.0512805570644L151.30035211267605,159.74289741137676L151.44330985915494,160.44045451458362L151.80070422535212,160.61230277163315L151.87218309859156,160.61230277163315L152.01514084507042,160.60825081608007L152.22957746478875,159.49332159930248L152.3725352112676,160.10247068204802L152.51549295774646,160.23137216862835L152.5869718309859,160.19454921286825L153.08732394366197,162.3152895809333L153.3017605633803,162.4019248708401L153.65915492957745,162.36245428959316L155.01725352112675,162.16084341141507L155.73204225352114,161.2579455437684L156.16091549295774,162.0430501666624L156.58978873239437,161.99308084622706L156.8757042253521,161.16347308450082L156.94718309859155,161.487625480391L157.73345070422533,162.99854113990668L157.8049295774648,162.80080633866032L158.87711267605636,161.46919331090842L159.5919014084507,162.1876894162241L160.23521126760562,160.78714321433316L161.45035211267606,161.57055112582108L162.7369718309859,161.12832344963965L162.80845070422532,161.12832344963965L162.95140845070424,162.24466464338005L163.66619718309857,163.7498527773565L163.95211267605634,162.77049583988264L164.66690140845068,160.60205772948427L165.2387323943662,163.25973528679233L165.3102112676056,163.25973528679233L166.09647887323942,158.68834988927333L166.66830985915493,161.93747981136846L167.09718309859156,162.08283966847853L167.16866197183097,162.3494046356688L167.31161971830986,160.0935274115877L167.45457746478874,161.10696071949673L167.8119718309859,161.76248553110196L169.59894366197182,163.1753036525532L169.67042253521126,162.71409502960515L170.38521126760565,160.96461328982215L170.5281690140845,160.84636168109208L170.81408450704225,161.66414239271202L170.88556338028167,162.5407920629354L171.88626760563378,161.61328783154306L172.3151408450704,162.12048489052984L172.67253521126761,162.63204158020272L172.81549295774647,162.49574599444594L172.95845070422536,161.8603050819848L173.1014084507042,162.44424864414668L174.0306338028169,163.33239564828847L174.31654929577465,163.74628212647056L174.45950704225353,162.87369475760156L174.67394366197183,163.424808393471L175.38873239436617,161.07989880231366L176.10352112676057,163.33425249470534L176.24647887323943,163.1127988195342L177.10422535211268,163.53579140209206L177.17570422535212,163.4834920272867L177.24718309859153,163.4834920272867L177.5330985915493,163.48352756286494L177.81901408450705,161.37181638039237L178.24788732394364,160.82320148043516L179.4630281690141,162.22512547316302L179.89190140845068,161.6955639405812L179.96338028169012,162.3364440455987L180.53521126760563,162.84788558200546L180.96408450704223,162.04150864227515L181.39295774647886,162.24279385262236L181.75035211267604,163.63444716360692L183.39436619718307,163.350183229371L183.537323943662,163.29608638405162L183.89471830985914,161.98640600514665L184.25211267605633,162.5036186993849L185.18133802816902,163.51556850935717L185.68169014084506,162.15215923580362L186.75387323943661,162.70705403712373L187.61161971830987,162.7517888319406L187.82605633802817,162.55711099005688L188.2549295774648,161.34836109949094L188.82676056338028,162.77707891820407L188.89823943661972,162.93049410613617L188.96971830985913,163.38477194187706L189.04119718309857,163.69605281155145L189.68450704225353,163.54325792187734L191.32852112676056,161.00562314636915L191.4,161.04865898069266L191.47147887323942,161.09646287994323L191.9718309859155,162.4220636477126L192.7580985915493,163.2754046775219L192.90105633802816,160.76821489620772L193.7588028169014,163.21164035565423L193.83028169014085,161.70677788950866L194.04471830985915,161.77407777650146L194.18767605633803,161.82802123407174L194.25915492957748,161.89934968611044L196.33204225352114,162.318866079446L197.18978873239433,163.16682729260177L197.2612676056338,162.71231015397962L197.8330985915493,161.1943611488791L197.90457746478873,161.29500510350505L198.33345070422536,162.30968485555678L198.54788732394366,161.75894816670703L198.97676056338028,160.83673828665349L199.26267605633802,161.02778205339138L200.47781690140843,161.0729356282504L200.62077464788732,160.81396852753966L200.69225352112673,161.29850153451238L200.7637323943662,161.83591732951788L201.54999999999998,161.97835022450718L202.83661971830986,163.34124085854558L204.05176056338027,163.27879090325496L204.55211267605634,162.11397063427762L204.62359154929575,162.9365005184919L204.83802816901408,160.2702336970535L205.98169014084507,162.282670619023L206.2676056338028,163.06637765911248L206.625,162.52558913289727L206.76795774647886,162.98298285408626L206.91091549295774,163.38913697037253L207.05387323943663,164.17728280901864L207.19683098591548,163.86889696442634L207.48274647887322,163.5365142587277L207.55422535211267,163.61345913139647L208.34049295774648,162.0466410593334L208.55492957746478,163.8206369502856L209.12676056338026,162.95503479653468L209.34119718309856,160.99931580614208L209.41267605633803,161.2310293674378L209.9845070422535,162.0355930930435L211.05669014084506,160.37614861251103L211.34260563380283,161.03416496294935L211.4855633802817,162.72094934784647L212.55774647887324,162.56529991666036L213.4869718309859,162.73594581167688L215.13098591549294,163.87047222512206L216.2031690140845,164.23881063854503L216.27464788732394,164.46469681482853L216.70352112676056,163.9599683539851L216.77499999999998,163.3065860228749L217.1323943661972,161.41145159482454L217.48978873239437,163.6530763531308L217.7757042253521,164.65451033085174L217.918661971831,163.22202214230668L219.06232394366197,164.1146641721858L219.84859154929575,160.98716443765727L220.34894366197182,163.34646143982323L220.4204225352113,163.66441535130824L220.9207746478873,164.3181480902088L221.13521126760563,164.2312887912139L222.8507042253521,162.5811960153827L223.06514084507043,163.10211385592316L223.56549295774647,164.06256181742177L223.77992957746477,164.67038123979708L223.8514084507042,164.66048120762926L223.99436619718307,163.74445496800513L224.06584507042254,163.83166602424276L225.49542253521128,163.3175741634445L225.85281690140843,162.17241451539462L226.49612676056336,163.716836176824L226.63908450704224,164.53169622376743L226.78204225352113,164.0533500059462L227.28239436619717,164.39200271702393L228.21161971830986,164.53495065298884L228.35457746478872,164.74110468737098L228.78345070422534,164.72871041746538L229.35528169014083,163.3267814767456L229.78415492957745,164.37267586064138L229.8556338028169,163.40070672489975L230.21302816901408,163.83202902692165L230.57042253521126,161.8942910391133L231.07077464788733,163.3346123486621L231.92852112676056,160.93076092847508L233.143661971831,163.28719259351035L233.28661971830985,163.8284052975771L233.4295774647887,161.83644541519942L233.64401408450703,160.8421963715426L234.00140845070422,163.24075658911292L235.21654929577466,163.08657221334826L235.5739436619718,164.3745021194719L237.1464788732394,164.59452627479985L237.36091549295773,164.71380301748923L237.71830985915494,164.3558490896234L238.21866197183098,161.82532457848328L238.50457746478872,163.84501930494315L238.6475352112676,163.85612349841378L239.0764084507042,163.6557892021473L239.14788732394368,163.91745025954185L239.57676056338028,162.79675168420255L240.07711267605632,163.74420037133072L240.50598591549294,163.01703988237125L240.72042253521127,164.22778651257977L241.14929577464787,162.6251854626916L241.93556338028168,163.52973820872194L242.07852112676053,163.41031077718816L242.79330985915493,163.00368480240107L243.00774647887323,163.3047561655048L243.1507042253521,164.18732858203896L243.5080985915493,163.04558529749102L244.65176056338026,163.35193976649742L244.79471830985915,163.54631578087486L245.22359154929578,163.75233891838025L245.50950704225352,162.62024736677L245.65246478873237,161.5505104091518L246.65316901408448,163.96081311114858L247.51091549295774,163.90780437423098L247.86830985915492,164.91433343416216L248.72605633802814,162.46855183093376L248.79753521126761,162.98961676177908L249.2264084507042,164.3875756137209L249.29788732394366,164.3875756137209L250.2985915492958,163.11330396452598L250.5845070422535,164.566959212625L250.72746478873236,163.89432244574104L250.87042253521128,163.3032276858235L251.08485915492957,163.50135607733503L251.2992957746479,164.08945055488815L252.5144366197183,163.17378956703013L253.30070422535212,162.52909186134886L253.37218309859156,162.93727330486402L253.8010563380282,164.153483417771L254.3014084507042,163.44683460434672L256.0169014084507,162.5824150206612L256.44577464788733,163.92576783393486L256.5887323943662,164.62125712634267L258.08978873239437,164.55247733995273L258.30422535211267,164.63088052078126L258.5901408450704,164.02741173274313L258.66161971830985,164.04316973750954L258.7330985915493,164.44721510960923L259.1619718309859,161.8618529038163L259.3764084507042,163.1784532743097L259.5193661971831,163.80753871607706L260.16267605633806,163.2776888505124L260.66302816901407,162.49766176694823L261.02042253521125,163.83658657728398L261.59225352112674,163.59565490706845L261.8781690140845,161.92508149310584L262.1640845070423,161.77249351945682L263.0933098591549,163.63684334114149L263.2362676056338,164.2320417856184L263.4507042253521,162.40599301982124L264.3084507042253,164.63556851820292L264.5943661971831,164.11340783205927L264.9517605633803,163.05149095073887L265.09471830985916,162.17209064683354L265.80950704225353,164.29868493914012L265.9524647887324,163.62335511520732L266.09542253521124,163.8430216656657L267.0246478873239,164.5414320725675L268.16830985915493,161.8748616243531L268.5257042253521,163.59686761490272L269.0260563380282,163.49867651480955L270.8130281690141,161.2547347468392L270.8845070422535,161.2547347468392L270.95598591549293,161.60702052506866L271.456338028169,163.2102459215718L272.17112676056337,164.03454403816608L272.7429577464789,162.27186195561436L273.2433098591549,163.61824833774347L273.5292253521127,163.00200788296257L274.31549295774647,162.75939749403878L274.74436619718307,163.97972388639363L275.1732394366197,164.03339385495678L276.4598591549296,163.97244224157865L276.7457746478873,164.23963605355834L277.5320422535211,164.411679081562L277.8894366197183,164.52502093286958L278.2468309859155,164.69603252946965L278.5327464788732,162.20989870280027L278.6042253521127,162.01496806351196L279.39049295774646,163.65679769286112L279.46197183098593,163.3686414882654L280.2482394366197,162.0738999965578L280.3911971830986,163.0898581297909L280.462676056338,163.73256224455176L280.9630281690141,164.301444569171L281.1774647887324,164.51745770233342L281.2489436619718,164.86176956669857L281.32042253521126,164.87288545542282L281.74929577464786,163.4100458347125L283.3218309859155,164.07644093471646L284.5369718309859,163.30768897525238L284.8943661971831,163.71015233939468L284.9658450704225,163.71015233939468L285.1088028169014,164.5895652381885L285.6806338028169,164.35554906138694L289.8264084507042,165.01459999195094L290.82711267605634,163.22147246538773" style="fill: none;" fill="none"></path></g></g></g></g></g></g><g transform="translate(40, 178)" clip-path="url(#clip_1)"><clipPath id="clip_1"><rect width="290" height="22"></rect></clipPath><g><g><line x1="27.57042253521127" y1="0" x2="27.57042253521127" y2="5" style="visibility: inherit;" fill="rgb(0, 0, 0)" stroke="rgb(204, 204, 204)" stroke-width="1px"></line><line x1="63.30985915492958" y1="0" x2="63.30985915492958" y2="5" style="visibility: inherit;" fill="rgb(0, 0, 0)" stroke="rgb(204, 204, 204)" stroke-width="1px"></line><line x1="99.04929577464789" y1="0" x2="99.04929577464789" y2="5" style="visibility: inherit;" fill="rgb(0, 0, 0)" stroke="rgb(204, 204, 204)" stroke-width="1px"></line><line x1="134.7887323943662" y1="0" x2="134.7887323943662" y2="5" style="visibility: inherit;" fill="rgb(0, 0, 0)" stroke="rgb(204, 204, 204)" stroke-width="1px"></line><line x1="170.5281690140845" y1="0" x2="170.5281690140845" y2="5" style="visibility: inherit;" fill="rgb(0, 0, 0)" stroke="rgb(204, 204, 204)" stroke-width="1px"></line><line x1="206.2676056338028" y1="0" x2="206.2676056338028" y2="5" style="visibility: inherit;" fill="rgb(0, 0, 0)" stroke="rgb(204, 204, 204)" stroke-width="1px"></line><line x1="242.00704225352112" y1="0" x2="242.00704225352112" y2="5" style="visibility: inherit;" fill="rgb(0, 0, 0)" stroke="rgb(204, 204, 204)" stroke-width="1px"></line><line x1="277.7464788732394" y1="0" x2="277.7464788732394" y2="5" style="visibility: inherit;" fill="rgb(0, 0, 0)" stroke="rgb(204, 204, 204)" stroke-width="1px"></line></g><g transform="translate(0, 8)"><text x="27.57042253521127" y="0" dx="0em" dy="0.95em" style="text-anchor: middle; visibility: inherit; font-family: &quot;Helvetica Neue&quot;, sans-serif; font-size: 12px; font-weight: 200;" fill="rgb(50, 49, 63)" stroke="none" stroke-width="1px">500</text><text x="63.30985915492958" y="0" dx="0em" dy="0.95em" style="text-anchor: middle; visibility: inherit; font-family: &quot;Helvetica Neue&quot;, sans-serif; font-size: 12px; font-weight: 200;" fill="rgb(50, 49, 63)" stroke="none" stroke-width="1px">1k</text><text x="99.04929577464789" y="0" dx="0em" dy="0.95em" style="text-anchor: middle; visibility: inherit; font-family: &quot;Helvetica Neue&quot;, sans-serif; font-size: 12px; font-weight: 200;" fill="rgb(50, 49, 63)" stroke="none" stroke-width="1px">1.5k</text><text x="134.7887323943662" y="0" dx="0em" dy="0.95em" style="text-anchor: middle; visibility: inherit; font-family: &quot;Helvetica Neue&quot;, sans-serif; font-size: 12px; font-weight: 200;" fill="rgb(50, 49, 63)" stroke="none" stroke-width="1px">2k</text><text x="170.5281690140845" y="0" dx="0em" dy="0.95em" style="text-anchor: middle; visibility: inherit; font-family: &quot;Helvetica Neue&quot;, sans-serif; font-size: 12px; font-weight: 200;" fill="rgb(50, 49, 63)" stroke="none" stroke-width="1px">2.5k</text><text x="206.2676056338028" y="0" dx="0em" dy="0.95em" style="text-anchor: middle; visibility: inherit; font-family: &quot;Helvetica Neue&quot;, sans-serif; font-size: 12px; font-weight: 200;" fill="rgb(50, 49, 63)" stroke="none" stroke-width="1px">3k</text><text x="242.00704225352112" y="0" dx="0em" dy="0.95em" style="text-anchor: middle; visibility: inherit; font-family: &quot;Helvetica Neue&quot;, sans-serif; font-size: 12px; font-weight: 200;" fill="rgb(50, 49, 63)" stroke="none" stroke-width="1px">3.5k</text><text x="277.7464788732394" y="0" dx="0em" dy="0.95em" style="text-anchor: middle; visibility: inherit; font-family: &quot;Helvetica Neue&quot;, sans-serif; font-size: 12px; font-weight: 200;" fill="rgb(50, 49, 63)" stroke="none" stroke-width="1px">4k</text></g><line x1="0" y1="0" x2="290" y2="0" fill="rgb(0, 0, 0)" stroke="rgb(204, 204, 204)" stroke-width="1px"></line></g></g></g></g></svg>