<svg viewBox="0 0 330 200" xmlns="http://www.w3.org/2000/svg"><g><g><g><g><g><line x1="40" y1="172.20336773428497" x2="35" y2="172.20336773428497" style="visibility: inherit;" fill="rgb(0, 0, 0)" stroke="rgb(204, 204, 204)" stroke-width="1px"></line><line x1="40" y1="157.60244607529881" x2="35" y2="157.60244607529881" style="visibility: inherit;" fill="rgb(0, 0, 0)" stroke="rgb(204, 204, 204)" stroke-width="1px"></line><line x1="40" y1="143.00152441631263" x2="35" y2="143.00152441631263" style="visibility: inherit;" fill="rgb(0, 0, 0)" stroke="rgb(204, 204, 204)" stroke-width="1px"></line><line x1="40" y1="128.40060275732648" x2="35" y2="128.40060275732648" style="visibility: inherit;" fill="rgb(0, 0, 0)" stroke="rgb(204, 204, 204)" stroke-width="1px"></line><line x1="40" y1="113.79968109834027" x2="35" y2="113.79968109834027" style="visibility: inherit;" fill="rgb(0, 0, 0)" stroke="rgb(204, 204, 204)" stroke-width="1px"></line><line x1="40" y1="99.19875943935409" x2="35" y2="99.19875943935409" style="visibility: inherit;" fill="rgb(0, 0, 0)" stroke="rgb(204, 204, 204)" stroke-width="1px"></line><line x1="40" y1="84.59783778036793" x2="35" y2="84.59783778036793" style="visibility: inherit;" fill="rgb(0, 0, 0)" stroke="rgb(204, 204, 204)" stroke-width="1px"></line><line x1="40" y1="69.99691612138174" x2="35" y2="69.99691612138174" style="visibility: inherit;" fill="rgb(0, 0, 0)" stroke="rgb(204, 204, 204)" stroke-width="1px"></line><line x1="40" y1="55.39599446239558" x2="35" y2="55.39599446239558" style="visibility: inherit;" fill="rgb(0, 0, 0)" stroke="rgb(204, 204, 204)" stroke-width="1px"></line><line x1="40" y1="40.7950728034094" x2="35" y2="40.7950728034094" style="visibility: inherit;" fill="rgb(0, 0, 0)" stroke="rgb(204, 204, 204)" stroke-width="1px"></line><line x1="40" y1="26.194151144423216" x2="35" y2="26.194151144423216" style="visibility: inherit;" fill="rgb(0, 0, 0)" stroke="rgb(204, 204, 204)" stroke-width="1px"></line><line x1="40" y1="11.593229485437007" x2="35" y2="11.593229485437007" style="visibility: inherit;" fill="rgb(0, 0, 0)" stroke="rgb(204, 204, 204)" stroke-width="1px"></line></g><g transform="translate(30, 0)"><text x="0" y="172.20336773428497" dx="0em" dy="0.3em" style="text-anchor: end; visibility: inherit; font-family: &quot;Helvetica Neue&quot;, sans-serif; font-size: 12px; font-weight: 200;" fill="rgb(50, 49, 63)" stroke="none" stroke-width="1px">1.1</text><text x="0" y="157.60244607529881" dx="0em" dy="0.3em" style="text-anchor: end; visibility: hidden; font-family: &quot;Helvetica Neue&quot;, sans-serif; font-size: 12px; font-weight: 200;" fill="rgb(50, 49, 63)" stroke="none" stroke-width="1px">1.2</text><text x="0" y="143.00152441631263" dx="0em" dy="0.3em" style="text-anchor: end; visibility: inherit; font-family: &quot;Helvetica Neue&quot;, sans-serif; font-size: 12px; font-weight: 200;" fill="rgb(50, 49, 63)" stroke="none" stroke-width="1px">1.3</text><text x="0" y="128.40060275732648" dx="0em" dy="0.3em" style="text-anchor: end; visibility: hidden; font-family: &quot;Helvetica Neue&quot;, sans-serif; font-size: 12px; font-weight: 200;" fill="rgb(50, 49, 63)" stroke="none" stroke-width="1px">1.4</text><text x="0" y="113.79968109834027" dx="0em" dy="0.3em" style="text-anchor: end; visibility: inherit; font-family: &quot;Helvetica Neue&quot;, sans-serif; font-size: 12px; font-weight: 200;" fill="rgb(50, 49, 63)" stroke="none" stroke-width="1px">1.5</text><text x="0" y="99.19875943935409" dx="0em" dy="0.3em" style="text-anchor: end; visibility: hidden; font-family: &quot;Helvetica Neue&quot;, sans-serif; font-size: 12px; font-weight: 200;" fill="rgb(50, 49, 63)" stroke="none" stroke-width="1px">1.6</text><text x="0" y="84.59783778036793" dx="0em" dy="0.3em" style="text-anchor: end; visibility: inherit; font-family: &quot;Helvetica Neue&quot;, sans-serif; font-size: 12px; font-weight: 200;" fill="rgb(50, 49, 63)" stroke="none" stroke-width="1px">1.7</text><text x="0" y="69.99691612138174" dx="0em" dy="0.3em" style="text-anchor: end; visibility: hidden; font-family: &quot;Helvetica Neue&quot;, sans-serif; font-size: 12px; font-weight: 200;" fill="rgb(50, 49, 63)" stroke="none" stroke-width="1px">1.8</text><text x="0" y="55.39599446239558" dx="0em" dy="0.3em" style="text-anchor: end; visibility: inherit; font-family: &quot;Helvetica Neue&quot;, sans-serif; font-size: 12px; font-weight: 200;" fill="rgb(50, 49, 63)" stroke="none" stroke-width="1px">1.9</text><text x="0" y="40.7950728034094" dx="0em" dy="0.3em" style="text-anchor: end; visibility: hidden; font-family: &quot;Helvetica Neue&quot;, sans-serif; font-size: 12px; font-weight: 200;" fill="rgb(50, 49, 63)" stroke="none" stroke-width="1px">2</text><text x="0" y="26.194151144423216" dx="0em" dy="0.3em" style="text-anchor: end; visibility: inherit; font-family: &quot;Helvetica Neue&quot;, sans-serif; font-size: 12px; font-weight: 200;" fill="rgb(50, 49, 63)" stroke="none" stroke-width="1px">2.1</text><text x="0" y="11.593229485437007" dx="0em" dy="0.3em" style="text-anchor: end; visibility: hidden; font-family: &quot;Helvetica Neue&quot;, sans-serif; font-size: 12px; font-weight: 200;" fill="rgb(50, 49, 63)" stroke="none" stroke-width="1px">2.2</text></g><line x1="40" y1="0" x2="40" y2="178" fill="rgb(0, 0, 0)" stroke="rgb(204, 204, 204)" stroke-width="1px"></line></g></g><g transform="translate(40, 0)" clip-path="url(#clip_0)"><clipPath id="clip_0"><rect width="290" height="178"></rect></clipPath><g><g><g><line x1="13.407792207792207" y1="0" x2="13.407792207792207" y2="178" fill="rgb(0, 0, 0)" stroke="rgb(60, 60, 60)" stroke-width="1px" opacity="0.25"></line><line x1="35.251948051948055" y1="0" x2="35.251948051948055" y2="178" fill="rgb(0, 0, 0)" stroke="rgb(60, 60, 60)" stroke-width="1px" opacity="0.25"></line><line x1="57.0961038961039" y1="0" x2="57.0961038961039" y2="178" fill="rgb(0, 0, 0)" stroke="rgb(60, 60, 60)" stroke-width="1px" opacity="0.25"></line><line x1="78.94025974025975" y1="0" x2="78.94025974025975" y2="178" fill="rgb(0, 0, 0)" stroke="rgb(60, 60, 60)" stroke-width="1px" opacity="0.25"></line><line x1="100.78441558441558" y1="0" x2="100.78441558441558" y2="178" fill="rgb(0, 0, 0)" stroke="rgb(60, 60, 60)" stroke-width="1px" opacity="0.25"></line><line x1="122.62857142857143" y1="0" x2="122.62857142857143" y2="178" fill="rgb(0, 0, 0)" stroke="rgb(60, 60, 60)" stroke-width="1px" opacity="0.25"></line><line x1="144.47272727272727" y1="0" x2="144.47272727272727" y2="178" fill="rgb(0, 0, 0)" stroke="rgb(60, 60, 60)" stroke-width="1px" opacity="0.25"></line><line x1="166.31688311688313" y1="0" x2="166.31688311688313" y2="178" fill="rgb(0, 0, 0)" stroke="rgb(60, 60, 60)" stroke-width="1px" opacity="0.25"></line><line x1="188.16103896103897" y1="0" x2="188.16103896103897" y2="178" fill="rgb(0, 0, 0)" stroke="rgb(60, 60, 60)" stroke-width="1px" opacity="0.25"></line><line x1="210.00519480519483" y1="0" x2="210.00519480519483" y2="178" fill="rgb(0, 0, 0)" stroke="rgb(60, 60, 60)" stroke-width="1px" opacity="0.25"></line><line x1="231.84935064935064" y1="0" x2="231.84935064935064" y2="178" fill="rgb(0, 0, 0)" stroke="rgb(60, 60, 60)" stroke-width="1px" opacity="0.25"></line><line x1="253.6935064935065" y1="0" x2="253.6935064935065" y2="178" fill="rgb(0, 0, 0)" stroke="rgb(60, 60, 60)" stroke-width="1px" opacity="0.25"></line><line x1="275.53766233766237" y1="0" x2="275.53766233766237" y2="178" fill="rgb(0, 0, 0)" stroke="rgb(60, 60, 60)" stroke-width="1px" opacity="0.25"></line></g><g><line x1="0" y1="172.20336773428497" x2="290" y2="172.20336773428497" fill="rgb(0, 0, 0)" stroke="rgb(60, 60, 60)" stroke-width="1px" opacity="0.25"></line><line x1="0" y1="157.60244607529881" x2="290" y2="157.60244607529881" fill="rgb(0, 0, 0)" stroke="rgb(60, 60, 60)" stroke-width="1px" opacity="0.25"></line><line x1="0" y1="143.00152441631263" x2="290" y2="143.00152441631263" fill="rgb(0, 0, 0)" stroke="rgb(60, 60, 60)" stroke-width="1px" opacity="0.25"></line><line x1="0" y1="128.40060275732648" x2="290" y2="128.40060275732648" fill="rgb(0, 0, 0)" stroke="rgb(60, 60, 60)" stroke-width="1px" opacity="0.25"></line><line x1="0" y1="113.79968109834027" x2="290" y2="113.79968109834027" fill="rgb(0, 0, 0)" stroke="rgb(60, 60, 60)" stroke-width="1px" opacity="0.25"></line><line x1="0" y1="99.19875943935409" x2="290" y2="99.19875943935409" fill="rgb(0, 0, 0)" stroke="rgb(60, 60, 60)" stroke-width="1px" opacity="0.25"></line><line x1="0" y1="84.59783778036793" x2="290" y2="84.59783778036793" fill="rgb(0, 0, 0)" stroke="rgb(60, 60, 60)" stroke-width="1px" opacity="0.25"></line><line x1="0" y1="69.99691612138174" x2="290" y2="69.99691612138174" fill="rgb(0, 0, 0)" stroke="rgb(60, 60, 60)" stroke-width="1px" opacity="0.25"></line><line x1="0" y1="55.39599446239558" x2="290" y2="55.39599446239558" fill="rgb(0, 0, 0)" stroke="rgb(60, 60, 60)" stroke-width="1px" opacity="0.25"></line><line x1="0" y1="40.7950728034094" x2="290" y2="40.7950728034094" fill="rgb(0, 0, 0)" stroke="rgb(60, 60, 60)" stroke-width="1px" opacity="0.25"></line><line x1="0" y1="26.194151144423216" x2="290" y2="26.194151144423216" fill="rgb(0, 0, 0)" stroke="rgb(60, 60, 60)" stroke-width="1px" opacity="0.25"></line><line x1="0" y1="11.593229485437007" x2="290" y2="11.593229485437007" fill="rgb(0, 0, 0)" stroke="rgb(60, 60, 60)" stroke-width="1px" opacity="0.25"></line></g></g></g><g><g><line x1="0" y1="332.8135059831329" x2="290" y2="332.8135059831329" fill="rgb(0, 0, 0)" stroke="rgb(153, 153, 153)" stroke-width="1.5px"></line></g></g><g><g><line x1="13.407792207792207" y1="0" x2="13.407792207792207" y2="178" fill="rgb(0, 0, 0)" stroke="rgb(153, 153, 153)" stroke-width="1.5px"></line></g></g><g><g><g><g><g><path stroke="rgb(187, 187, 187)" stroke-width="2px" d="M13.71361038961039,12.245168736013909L14.281558441558442,12.392843331849292L14.54368831168831,12.755246428579397L15.242701298701299,13.13325863764959L15.33007792207792,13.239484622233846L15.461142857142859,13.349531745457426L15.810649350649351,13.565622999466882L15.941714285714287,13.609725767543722L16.59703896103896,13.711607453917509L16.728103896103896,13.846894076169804L17.60187012987013,13.952112792742668L17.951376623376625,14.23393769882071L18.08244155844156,14.26217521853124L18.12612987012987,14.125293778573848L18.999896103896102,14.120538630820164L19.567844155844156,14.087128658132457L20.048415584415583,14.01906370309618L20.266857142857145,14.068006702250813L20.39792207792208,14.225232016232354L20.79111688311688,14.355747363348172L21.27168831168831,14.67872673870093L21.49012987012987,14.392983954019627L21.577506493506494,14.359664777322422L21.621194805194804,14.430512953012851L21.795948051948052,14.32886991868611L13.495168831168831,25.334460603233737L13.844675324675325,20.310042389091848L13.888363636363636,17.42976983301034L14.106805194805196,15.609666579800631L14.587376623376624,14.543751383555701L14.849506493506492,13.820589877886732L15.067948051948052,13.661069082491963L15.723272727272727,13.588893427111458L15.985402597402597,13.753450509089589L16.203844155844155,13.658639131246844L16.509662337662338,13.668209457265249L16.684415584415586,13.839939298595198L16.77179220779221,13.926703112616877L17.60187012987013,13.898535960095302L17.820311688311687,13.86034398627578L18.08244155844156,13.870593689689343L18.300883116883117,13.884787953903299L18.388259740259738,14.130818572250064L18.737766233766234,14.239960093083056L18.781454545454547,14.324071365322112L19.262025974025978,14.583409773206085L19.65522077922078,14.643884477979498L20.004727272727273,14.628014854517431L20.70374025974026,14.324625987866852L20.878493506493506,14.086898941334198L21.315376623376626,14.32333732612355L23.23766233766234,14.233437724557291L23.28135064935065,14.215135133633026L24.024051948051948,14.341769419494995L24.111428571428572,14.375608354978567L24.155116883116882,14.310334987631308L24.28618181818182,14.357533948270571L24.54831168831169,14.27861452850533L24.941506493506495,14.107973246167603L25.07257142857143,14.21802374675309L25.116259740259743,14.362388646233086L25.553142857142856,14.428757519129022L26.295844155844154,14.324272951807842L26.38322077922078,14.210856999659768L27.2132987012987,14.515436376758515L27.300675324675325,14.57905587319911L27.431740259740263,14.597456407767453L27.781246753246755,14.594076850785626L28.043376623376624,14.650687553664625L28.130753246753248,14.807220523560545L28.261818181818185,14.667933564440887L28.523948051948054,14.743066897264725L28.742389610389612,14.748521668612938L29.179272727272725,14.737076901145059L29.4414025974026,14.589035884822124L29.70353246753247,14.597177642401277L29.878285714285713,14.528480718654947L30.14041558441559,14.536248782586853L30.22779220779221,14.585394450784321L30.358857142857143,14.528397286988394L30.446233766233767,14.526695127228976L30.489922077922078,14.76501395837883L30.708363636363636,14.881516857839102L30.75205194805195,15.08313199360623L31.145246753246756,14.80262025625592L31.93163636363636,14.827488536955713L32.019012987012985,14.761547900623441L32.54327272727273,14.387317600278266L32.84909090909091,14.511390573379913L32.892779220779225,14.663402192537745L32.980155844155846,14.693142305200382L33.11122077922078,14.560063520158536L33.1985974025974,14.562762400991033L33.722857142857144,14.73712760432835L33.85392207792208,14.869616310492404L34.028675324675326,14.581893203545974L34.15974025974026,14.55632215363778L34.290805194805195,14.712222138973203L34.46555844155844,14.721299827246952L34.50924675324676,14.899901504897173L34.684000000000005,14.997272178252928L34.90244155844156,15.154263268435017L36.03833766233767,15.250585721003091L36.21309090909091,15.079352127861966L36.38784415584416,15.317765599351503L36.43153246753247,15.328299763674437L36.737350649350645,15.412358964099951L37.130545454545455,15.37328076263691L37.3052987012987,15.244127866394791L37.480051948051944,15.015169092538514L37.698493506493506,15.267962918182832L37.873246753246754,15.55889691921729L38.266441558441564,15.485401480609795L38.441194805194804,15.693928056102067L38.48488311688312,15.696696119625273L38.52857142857143,15.555698603798106L38.61594805194805,15.218831834825806L38.65963636363636,14.935640810408955L38.921766233766235,14.885451248599992L39.14020779220779,15.027995604462973L39.22758441558442,15.09924100833021L39.44602597402598,15.388413203526909L39.489714285714285,15.495835027660718L39.5334025974026,15.578100620940376L39.70815584415585,15.849084938045507L39.88290909090909,15.703893477189695L40.10135064935065,15.865587993285516L40.14503896103896,15.892948154010668L40.18872727272728,16.105998440788028L41.193558441558444,16.305384873960037L41.36831168831169,16.176508907419787L41.45568831168831,15.983091473851744L41.674129870129875,16.015944761861988L42.810025974025976,16.1937937356183L43.02846753246754,16.317573147619214L43.11584415584416,16.558434170590516L43.37797402597403,16.83559520931857L43.72748051948052,17.41120852832691L43.9896103896104,17.610793767761493L44.16436363636364,17.440425885244736L44.47018181818182,17.485368615113288L44.55755844155844,17.61687585003054L44.81968831168831,17.985902503033685L44.90706493506493,18.403752962094444L45.5187012987013,19.076228742394875L45.56238961038961,19.508633113971513L45.99927272727273,19.658462637762284L46.130337662337666,19.94119691034757L46.52353246753247,20.80041122799267L46.69828571428572,20.91468819547913L46.82935064935066,21.175246977759144L46.873038961038965,20.90585247380909L47.26623376623377,19.406643081546008L47.30992207792208,18.44875019795353L47.48467532467532,18.182179346018557L47.57205194805196,18.271627334482304L47.615740259740264,18.390334853926106L47.834181818181825,18.696542657147376L48.35844155844156,19.612626702121702L48.53319480519481,19.443817334020338L48.62057142857143,20.109951700201833L48.75163636363637,20.1784046614288L49.14483116883117,20.98480723706635L49.27589610389611,21.479374218832078L49.6254025974026,21.451964745204663L50.149662337662335,22.877503129455533L50.455480519480524,24.020531474325793L51.023428571428575,25.17773397575678L51.28555844155844,26.362809703175913L51.416623376623384,27.237009491556478L51.504000000000005,27.6988637503963L51.67875324675325,28.34455234024597L51.8535064935065,28.517056847246607L51.94088311688312,28.960734299295893L52.15932467532468,27.254575735095074L52.20301298701299,25.329387970587533L52.5962077922078,24.983440859664313L52.85833766233767,24.927948205383473L53.03309090909091,24.803385947326063L53.07677922077923,24.917707045543494L53.51366233766234,26.14411783380777L53.732103896103894,26.45249807805405L54.343740259740265,24.92690204981062L55.30488311688312,27.424212873190612L55.34857142857143,29.376903159073123L55.52332467532468,29.638064414129957L55.56701298701299,29.95906792182609L55.6107012987013,30.985016602577474L56.397090909090906,31.3167692437913L56.92135064935066,32.76760655640223L56.965038961038964,31.123256929400213L57.22716883116883,31.466819308230185L57.31454545454545,29.80202007330834L57.532987012987014,30.6564057709586L58.66888311688312,30.69366903992082L58.75625974025974,31.654190412870406L59.19314285714286,32.17047921208933L59.67371428571429,34.495576818220485L59.804779220779224,34.621633990230436L59.93584415584416,36.57153872679308L60.80961038961039,34.47838075032277L61.07174025974026,32.38007396673024L61.37755844155844,32.83470756282645L61.63968831168831,33.28695341189419L62.07657142857143,35.242625162594464L62.3387012987013,36.85212605382992L62.46976623376624,35.88365388220268L62.819272727272725,35.31445713688839L62.95033766233767,35.86824204887546L63.0814025974026,33.755373455049266L63.212467532467535,33.920294338735886L63.25615584415585,34.64710602321378L64.04254545454546,35.15407188876506L64.69787012987013,35.90192297331879L65.3531948051948,36.80157789933966L65.48425974025974,38.763035384565654L65.52794805194806,39.27080960311366L65.61532467532467,40.02457788542375L65.65901298701299,40.59077372519343L66.62015584415585,37.39740634867948L66.8385974025974,34.61418093955001L66.96966233766234,34.2573710392202L67.14441558441558,34.51415199740714L67.23179220779221,34.804905837653365L67.40654545454547,33.949575208466854L67.5812987012987,35.29751140299456L67.75605194805195,35.30639070778375L68.84825974025975,35.4891471721393L68.89194805194806,33.987246827298435L69.37251948051949,35.2956780120179L69.72202597402598,34.42035886104833L69.76571428571428,34.365381955136456L69.89677922077922,34.84392007508427L69.98415584415585,36.04335692164889L70.42103896103896,34.73277110103379L70.72685714285714,34.65784006180817L71.38218181818182,35.21694245596433L71.42587012987013,36.00342968998606L71.55693506493508,36.80753091810476L72.60545454545455,37.208508388390044L72.64914285714286,37.71658186914229L72.73651948051949,39.27989839948816L73.04233766233767,40.773989255914216L73.34815584415584,42.50212196013308L73.39184415584415,44.060571610431026L73.78503896103896,42.090565653664555L74.04716883116885,43.08417061279414L74.22192207792209,42.6588812839517L74.6151168831169,40.89100082942531L74.92093506493507,40.6736085276703L74.9646233766234,40.82158296358389L75.18306493506493,40.43095720986756L75.53257142857144,41.48125599689075L75.92576623376624,38.113403471381815L75.96945454545455,36.892062939740924L76.1442077922078,37.632327831497946L76.36264935064935,37.16057674933958L76.49371428571429,38.56085509574319L76.58109090909092,37.52719070078422L76.71215584415584,38.05489009979905L76.84322077922077,37.21991444594218L77.01797402597403,39.03876462039389L77.36748051948054,40.37522973982101L77.71698701298702,42.027255634686185L77.89174025974027,41.49916383465438L78.0228051948052,42.21910714748685L78.32862337662338,42.267445850909866L78.72181818181818,42.771450463012826L78.89657142857143,42.87073892371677L78.94025974025975,43.550624631304004L78.98394805194806,41.282587379845495L79.07132467532468,40.897395569839915L79.2023896103896,42.72498083134644L79.5082077922078,45.998405696447804L79.90140259740261,42.78768545355658L80.33828571428572,41.17386516111668L80.51303896103896,37.86708060138031L80.60041558441559,36.90819036043936L80.73148051948053,38.229707493609396L80.94992207792208,39.16881764221384L81.08098701298701,41.192521220367695L81.12467532467532,39.89464692889965L81.16836363636365,39.80562645265101L81.3868051948052,41.763268982029814L81.99844155844156,43.287314547632405L82.39163636363637,42.69815969880108L82.65376623376625,40.8184859280023L82.95958441558442,40.80455399699193L83.00327272727273,40.69665799324329L83.39646753246754,41.207105336196406L83.70228571428572,41.31067009549707L84.22654545454546,41.11517438795249L84.61974025974027,42.29677710071965L84.79449350649351,41.701512726743715L85.23137662337663,43.36215840302853L85.40612987012987,41.6944189772326L85.62457142857144,43.815236891001035L85.79932467532468,44.09522628351675L86.36727272727272,44.61458106484034L86.49833766233768,46.59526969653601L86.76046753246753,47.77151996085664L86.80415584415584,49.11556127255312L86.84784415584416,50.63843060003691L88.33324675324675,50.424961617891285L88.59537662337662,50.09356386828385L88.90119480519482,48.054539217291506L89.16332467532467,43.888426614748L89.33807792207793,43.297661162374965L89.42545454545456,41.61493122406549L89.51283116883116,41.92405076820884L89.77496103896104,43.256991022130904L89.90602597402597,46.01251957927124L89.99340259740259,46.51279573948847L90.12446753246753,48.684191476534664L90.25553246753246,51.147007111202726L90.7797922077922,51.777481062244334L90.86716883116883,53.11784867552632L91.39142857142856,52.62358152892378L91.43511688311688,52.85669750779695L91.47880519480519,53.26347424536273L92.09044155844155,54.42531032297981L92.2651948051948,51.90601745942055L92.43994805194804,48.458689631802685L92.61470129870129,48.816710911003355L92.78945454545453,47.06270713586804L92.9642077922078,47.62872730793953L93.31371428571428,48.2447144510796L93.4010909090909,45.37548855572365L93.53215584415584,39.42608174624041L93.66322077922078,35.506981585648816L93.7942857142857,32.79014851287374L94.01272727272728,31.49529332646594L94.84280519480518,33.17297222044735L95.36706493506493,35.67761857504203L95.41075324675325,37.70263084401276L95.54181818181817,36.76847951212051L95.58550649350649,36.85117444105407L95.67288311688311,38.2666696758929L95.76025974025973,40.58877539802472L95.93501298701298,42.23342074913634L96.10976623376622,42.75828462928604L96.32820779220779,45.01266515787657L96.41558441558442,44.8927221355396L96.72140259740259,45.35889111939596L97.07090909090908,46.20784635612927L97.24566233766232,47.607343225035066L97.55148051948052,50.65803396545394L97.59516883116882,53.01316588321784L98.38155844155844,53.45678449710503L98.51262337662337,55.48673021001214L98.55631168831168,53.4762014879136L98.73106493506494,54.76249292801373L98.81844155844156,56.95690470967578L99.0368831168831,52.46837830409784L99.43007792207791,51.12169491656462L99.60483116883115,50.68577783471878L99.6922077922078,50.95835625966856L99.77958441558441,47.46438354655132L99.95433766233765,48.05516614595456L100.39122077922077,45.56155206835754L100.4785974025974,44.89800563941458L100.56597402597401,46.29618188500518L100.60966233766234,47.627289609513554L100.78441558441558,47.758353917171405L100.91548051948051,49.1109613279649L101.264987012987,52.503110346645784L101.43974025974025,52.77478674237456L102.05137662337663,53.3618130949483L102.22612987012987,50.82512896410846L102.3135064935065,50.442871967537556L102.53194805194805,49.824947486493784L102.57563636363636,50.805741674400764L102.66301298701299,52.593199609255805L102.79407792207792,56.119936368653356L102.88145454545453,55.77729105566115L102.96883116883116,56.47725051177244L103.01251948051949,57.76573989598231L103.31833766233765,56.598609627659215L103.44940259740258,53.307228836106816L103.66784415584415,52.664869508608106L104.49792207792208,52.52377096776367L104.9348051948052,55.106999396492114L105.19693506493506,57.411285546337595L105.45906493506494,58.01505220282003L105.63381818181819,54.85812344192419L105.67750649350648,54.196026377247264L106.15807792207792,57.04808135360838L106.20176623376622,55.41835026354056L106.28914285714285,55.807346846025794L106.85709090909091,55.17690883716159L107.29397402597401,56.06204939067209L107.68716883116882,57.61576143796789L108.42987012987012,57.91851475631269L109.21625974025973,58.49449403912867L109.25994805194806,55.20459969423348L109.34732467532467,54.92661214661712L109.69683116883117,55.8883185930781L109.7842077922078,57.0216357777028L109.95896103896104,57.34587981264667L110.39584415584416,59.527776195018234L110.74535064935066,60.44141122478551L110.78903896103895,56.764346889010795L111.26961038961039,56.34420479950752L111.61911688311689,57.13636160253567L111.88124675324674,57.229781177397584L111.92493506493506,58.129024387560406L112.01231168831168,54.98334935652643L112.09968831168831,55.18812580134254L112.31812987012987,53.759723104179415L113.41033766233765,54.69570546820064L113.45402597402597,56.24397767646818L113.89090909090909,55.688702837122776L113.9782857142857,56.45011887254091L114.15303896103896,54.78030418629214L114.19672727272727,54.331147836292914L114.80836363636364,56.66217178130883L115.0704935064935,57.859284909614004L115.28893506493506,61.98651552961027L115.37631168831167,60.15060955184576L115.46368831168832,61.58132881395905L115.55106493506494,63.88862683309081L116.11901298701298,61.30332050303987L116.29376623376622,56.937910017339874L116.38114285714285,54.09826123560826L116.51220779220779,56.61477747160454L116.9054025974026,54.96466785110921L116.94909090909091,55.42914128843495L117.38597402597404,58.82225610761597L117.47335064935065,62.81020190272838L117.99761038961039,62.0684592440157L118.0412987012987,61.621839726984334L118.08498701298701,62.11910456874736L118.25974025974025,61.53829547830075L118.43449350649351,59.25457966844537L118.69662337662336,61.735117744153L119.43932467532467,59.92458973945088L119.57038961038961,61.73339061658213L119.70145454545454,60.162492737806645L119.74514285714285,60.205509598358915L120.09464935064935,62.01609155352814L120.35677922077922,61.35209268371332L120.61890909090909,60.76063240420122L120.83735064935065,63.53886804804715L121.66742857142857,63.94085858165269L121.84218181818181,60.60849041413334L121.92955844155844,60.745620322086324L122.14800000000001,62.910554729987325L122.36644155844155,66.70350383203694L122.9343896103896,65.75823439866866L123.2402077922078,65.04794236297126L123.89553246753246,65.71217242539294L124.4197922077922,67.23456709588221L124.55085714285715,64.04917903404265L124.81298701298701,64.63621152647829L125.1624935064935,62.553800644182516L125.20618181818182,62.54347005905909L125.24987012987013,63.42737015218317L125.29355844155843,65.47514467923821L125.68675324675324,68.8989369399486L126.69158441558442,64.25251923426845L126.73527272727273,62.35776724798225L126.77896103896103,62.156147336347416L127.08477922077923,63.62236438779712L127.56535064935065,68.2058470799734L127.65272727272728,67.8154446742838L128.176987012987,69.22617860341782L128.2206753246753,64.20144004946813L128.35174025974024,63.99683589003273L128.4391168831169,65.36250886085956L128.4828051948052,66.75695949600222L128.57018181818182,64.0605783782825L129.40025974025974,63.393258724003076L129.74976623376622,61.692574193396965L130.27402597402596,68.03462478088677L130.3177142857143,72.02215414294909L130.66722077922077,69.17806340150872L130.71090909090907,68.5588572698744L130.97303896103895,67.41851561183827L131.10410389610388,69.73407829521135L131.36623376623376,70.34364315081122L131.4536103896104,72.70037434474418L131.54098701298702,75.24700577137098L132.2836883116883,72.66228794889615L132.37106493506494,72.56194209144944L132.41475324675324,73.19757680765179L132.45844155844156,73.56740168939088L132.93901298701297,73.5691586346662L133.3758961038961,75.30802995788092L133.7254025974026,72.47989072367956L134.46810389610388,72.99424167063135L134.77392207792207,74.21186901516955L134.8176103896104,75.91992959092673L134.94867532467532,71.87539702879087L135.6476883116883,70.10931737207038L135.82244155844157,74.0536464672992L136.04088311688312,77.03957960576449L136.12825974025975,79.74919898153084L136.21563636363638,75.51800929125638L136.30301298701298,74.00067595484667L136.3903896103896,74.76092182294853L136.56514285714286,73.79018847663082L136.60883116883116,74.42615825247583L137.0894025974026,72.62873982751468L137.22046753246752,74.88200426468784L137.56997402597403,75.00121109124457L137.70103896103896,72.44923430082432L137.74472727272726,71.48142390702789L138.09423376623377,73.81246215854844L138.74955844155843,77.67828254273574L138.83693506493506,81.09542162749084L138.9243116883117,77.94936562144234L139.01168831168832,79.03761321523467L139.49225974025975,77.54782444457719L139.66701298701298,75.3681615737694L140.23496103896105,67.07606096632574L141.2397922077922,60.96392388533326L141.89511688311688,61.19399979032305L141.93880519480518,61.42029302254693L142.20093506493507,63.7983806624802L142.2446233766234,66.63673992660807L142.332,64.11336365797648L142.46306493506492,60.46872060555516L142.68150649350648,56.30907870668189L142.85625974025973,56.0743724647581L142.94363636363636,52.989153033192L143.64264935064935,57.665162622639315L144.12322077922076,56.9487939335244L144.42903896103897,59.25121734297967L144.47272727272727,62.44282719188102L144.77854545454545,66.46325327323216L144.90961038961038,72.78834205147385L145.95812987012988,69.59845402326117L146.0891948051948,72.75181718645482L146.395012987013,75.69124241572192L146.52607792207792,80.2151340422212L146.56976623376622,78.72118091171032L146.65714285714284,80.7260530354436L146.70083116883114,82.16026608749618L147.00664935064935,83.3026552111026L147.5745974025974,83.66977690385134L147.79303896103897,80.56056362411258L148.18623376623376,80.1112383952872L148.27361038961038,82.02545476566377L148.360987012987,84.44475817614196L148.6668051948052,86.64537698561479L149.23475324675326,87.65988555200742L149.32212987012986,84.4418486315467L149.58425974025974,88.24619809761316L149.93376623376625,84.51881630633486L150.1958961038961,87.88971740857814L150.2395844155844,84.31124383048753L150.45802597402596,89.87984471100837L150.67646753246754,89.79521947134522L150.98228571428572,91.88798064780265L151.50654545454543,88.11941716732068L151.68129870129872,90.116480353224L152.24924675324675,90.2380091563227L152.33662337662338,91.60613346517556L152.42399999999998,87.39696152771863L152.55506493506496,88.45903438686128L152.7735064935065,88.3479726744385L153.5162077922078,89.93675175781678L153.73464935064936,89.43715350387258L154.52103896103898,86.52323160778035L154.6957922077922,89.16008970707661L154.82685714285714,86.608170128561L155.0452987012987,89.3826979651431L155.35111688311687,91.70783309616228L155.52587012987013,89.85791908514028L155.61324675324676,90.80900085975833L155.8753766233766,89.85570425368407L155.91906493506494,90.00734748779679L156.1811948051948,92.1196546616498L156.487012987013,93.28450730062404L156.74914285714286,93.23934097970356L156.88020779220778,95.0789250460194L157.14233766233764,94.48060130757595L157.6229090909091,93.0853260141416L157.7102857142857,93.9684793608364L158.1471688311688,93.47061212852125L158.27823376623377,90.91587296993062L158.3656103896104,90.1165646968703L158.58405194805195,84.08091567063248L159.28306493506494,82.68649276862347L159.37044155844157,85.16269897635866L159.63257142857142,85.3164966180033L159.80732467532468,84.07537797610394L159.8947012987013,84.72158568109306L160.50633766233767,86.730514331121L161.03059740259738,89.1876809471547L161.24903896103896,86.41666378813815L161.7732987012987,93.6907709194156L161.816987012987,99.55177052676363L162.07911688311688,103.87946567228586L162.1228051948052,106.46356163643675L162.73444155844155,110.19020142296408L162.9091948051948,107.88531603812089L162.99657142857143,109.20806112073383L163.08394805194806,103.28867009585217L163.215012987013,104.79677154928285L163.34607792207794,104.76170781538168L164.08877922077923,100.0179034567594L164.56935064935064,96.98496442982989L164.61303896103897,89.82669766200867L164.87516883116882,92.3730950114543L165.18098701298703,88.76486526529303L166.2295064935065,87.90792990128926L166.49163636363636,87.85937965480136L166.579012987013,92.06228107056994L167.49646753246753,94.61688042654013L167.62753246753246,101.57518996620001L167.8022857142857,104.2528762246554L167.84597402597404,106.85800708993939L167.88966233766234,109.20193683205189L168.15179220779223,109.63450153078193L168.28285714285715,104.31969996349534L168.37023376623375,103.45423030189079L168.76342857142856,102.01624176286992L169.06924675324677,100.23771631575801L169.2876883116883,98.55748137434965L169.63719480519478,99.67330434894812L169.81194805194806,96.7020022839679L169.98670129870132,100.5370313413762L170.55464935064933,102.86324021185108L170.64202597402596,106.52459401957043L170.7730909090909,101.19024608762375L171.29735064935065,105.35899373154956L171.47210389610387,104.77562072824358L171.69054545454546,102.43464273214408L171.77792207792209,103.04347135084548L172.2148051948052,99.30456872252302L172.30218181818182,90.69485327171598L172.38955844155842,89.8062512436232L172.9575064935065,78.86511394041818L173.6565194805195,83.6414486862603L173.87496103896103,84.93961951715278L174.18077922077921,89.58741853262165L175.27298701298702,98.29930348291256L175.31667532467532,96.46178456027756L175.36036363636362,96.90658578522338L175.66618181818183,97.89350112485778L176.10306493506494,102.30166442760881L176.45257142857142,104.26808424154999L176.75838961038963,106.33330761598519L176.93314285714285,102.85462744161784L177.41371428571426,109.35539367134199L177.67584415584417,112.66374148612327L177.93797402597403,113.40152361083561L178.06903896103896,106.03107754580745L178.72436363636365,99.6502970223001L178.89911688311687,97.9793850192044L179.37968831168834,82.17919799927292L179.59812987012987,71.36025686690829L179.81657142857142,70.19388619654961L179.99132467532468,69.79014337708897L180.03501298701298,71.4961211993651L180.5155844155844,74.43071021695924L180.55927272727274,77.60838110402052L181.03984415584415,86.1951021513247L181.12722077922078,86.8166327340209L181.17090909090908,88.29418345788542L181.4767272727273,88.9400347742041L181.60779220779222,94.1378534342497L181.65148051948051,98.20148050490525L181.69516883116884,102.55257984485335L181.9572987012987,106.06132439909067L182.91844155844154,113.22004207087838L183.66114285714286,105.72736417622058L183.87958441558442,96.32519538274427L183.92327272727272,93.18859523126928L184.01064935064935,95.54171920574952L184.36015584415586,97.65693986279813L184.88441558441556,102.83941151186315L186.8940779220779,112.40760003118277L187.50571428571428,118.39542634223038L187.5494025974026,113.9130659353336L188.02997402597404,114.77409473602864L188.07366233766234,116.7162258600276L188.16103896103897,112.08905950048612L188.2484155844156,107.39334524844163L188.37948051948052,108.88196282809912L188.42316883116882,110.37146010712073L188.51054545454545,104.39388254394815L189.51537662337662,101.35428090782489L189.73381818181818,98.1327299819348L189.86488311688314,100.49713812785558L189.99594805194806,97.18068903277022L190.21438961038962,105.52738229574392L190.69496103896103,107.55652857690067L191.08815584415586,112.99588650854867L191.2192207792208,108.24258105131783L191.2629090909091,106.48211185595066L191.6561038961039,107.8755599036969L191.91823376623378,107.29792694766115L192.61724675324675,109.96687878310884L192.87937662337663,111.03865506342524L193.05412987012988,108.22136244953985L193.44732467532467,111.02910069745579L193.5347012987013,116.64091754934657L193.9278961038961,121.9965997174157L194.10264935064936,122.50217541705825L194.3647792207792,118.67116300038519L194.58322077922077,112.88057787847885L194.84535064935065,119.46261466294281L195.23854545454546,114.90193277187393L195.5443636363636,111.92976334532715L195.7191168831169,113.26777159696162L196.11231168831168,109.65747919844257L196.76763636363637,111.21292109869306L197.07345454545455,112.95457639144307L197.20451948051948,119.04314010440004L197.2918961038961,124.72833025381357L197.3355844155844,116.33532255732672L197.51033766233766,118.99226733126375L197.554025974026,121.99044329419166L198.12197402597403,123.8869300661593L198.38410389610388,126.28822572705468L198.4277922077922,127.32744371852262L198.51516883116884,129.20525188729613L198.77729870129872,127.42450775215252L198.90836363636365,119.73092728019321L200.08794805194805,115.17187107218624L200.3500779220779,122.9219794198099L200.52483116883118,123.52040998121637L200.6558961038961,128.8866524352433L201.0054025974026,122.85550459124308L201.09277922077922,124.39856561740794L201.8354805194805,119.15648498484477L201.87916883116884,117.76503867204886L202.70924675324676,111.47542644668093L202.75293506493506,109.10544335470863L202.884,103.55681235469262L203.18981818181817,103.61467128664928L203.27719480519482,107.38366923562491L203.6267012987013,113.66699802963451L203.71407792207793,120.45008009578257L203.75776623376623,115.49975430272357L204.3257142857143,123.49871905244859L204.41309090909093,120.39154012270727L204.84997402597403,127.55265918434742L204.98103896103896,123.44986870640395L205.4616103896104,128.66899775907598L205.59267532467533,123.48301247752322L205.68005194805195,125.12248170424051L205.76742857142858,130.54172374317193L206.29168831168832,127.22741167465566L207.0343896103896,130.6004944912164L207.68971428571427,132.92546385894306L207.95184415584416,131.89077974312553L208.25766233766234,133.19364138192373L208.60716883116882,133.36991919058485L208.78192207792208,128.5942769551654L209.0877402597403,127.5379379099796L209.1314285714286,128.74250211956286L209.17511688311689,130.6855373781892L209.612,123.61513960644079L210.52945454545454,126.34357425788266L210.7478961038961,135.69011331063174L210.96633766233768,139.80544809070787L211.22846753246753,139.25157031403285L211.66535064935064,144.02248187602683L211.88379220779223,142.80442816563917L212.14592207792208,141.22594291098815L212.32067532467534,134.79030954083476L212.36436363636363,133.8992646794247L212.71387012987012,133.4434257608147L212.84493506493507,137.57943734545924L212.8886233766234,142.02155263724438L212.97600000000003,137.98491668747153L213.10706493506495,140.07593875772494L213.15075324675325,142.57709050682726L213.19444155844155,146.1683323579287L213.50025974025974,148.14100706884005L213.63132467532466,143.19300722367402L213.675012987013,142.05183618571567L213.7187012987013,143.6746574045352L213.7623896103896,146.5614295127872L213.84976623376625,137.93576096410266L213.98083116883117,130.8581507096838L214.0245194805195,127.60606183574434L214.28664935064936,126.38482485613756L214.5487792207792,121.9474093787248L214.63615584415584,123.38044927492575L214.7672207792208,111.52556483453927L215.640987012987,125.23660921971273L215.72836363636367,124.1466777791088L215.99049350649352,121.87804873013744L216.29631168831168,121.89472153351394L216.82057142857144,128.4029567893569L217.38851948051948,125.87815475476506L217.65064935064936,124.06907196683801L217.738025974026,125.34218435459167L218.43703896103895,111.62973663718793L218.56810389610388,108.09587994990966L218.65548051948053,109.03222932873152L218.69916883116883,110.12512869162869L219.52924675324675,115.20093108376088L219.92244155844156,126.92057796138408L220.57776623376625,122.71745360742901L220.70883116883118,127.1211651480272L221.27677922077922,131.64338095355384L221.62628571428573,131.4668924543713L221.9757922077922,136.1415071642935L222.0194805194805,140.88928916513316L222.15054545454547,136.4806078942227L222.23792207792206,136.55883897556714L222.2816103896104,138.95147933760688L222.89324675324676,142.7715604312814L223.24275324675324,147.56885386471606L223.89807792207793,150.0222321433154L224.20389610389608,152.6942018780602L224.466025974026,153.40985242759086L224.59709090909092,143.2976264314066L224.9029090909091,138.58796759045157L225.47085714285717,133.62549791665762L225.55823376623377,136.38168274678517L225.6019220779221,139.75456474090885L225.90774025974025,140.4290699928701L226.69412987012987,134.55750301379146L227.39314285714286,137.99051759780008L227.69896103896104,137.61682693987842L227.9174025974026,134.4851464308764L227.9610909090909,134.86539983896748L228.2232207792208,133.5981651140762L228.6164155844156,132.36907437491465L228.79116883116882,138.52685834396678L228.87854545454545,136.52320239036925L229.14067532467536,134.02399083846316L229.27174025974028,139.0292551886198L230.27657142857143,135.4882960636949L230.49501298701298,127.37884959502426L231.06296103896105,117.9391861487318L231.2377142857143,118.85091871283055L232.02410389610392,125.3285777455728L232.3736103896104,135.84600287034178L232.54836363636363,136.73493244944345L233.37844155844155,145.78292678850454L233.5095064935065,143.91537224293796L233.5531948051948,145.3172139903411L233.64057142857143,150.65899424946159L233.72794805194803,142.38792123891375L233.77163636363636,139.13369838469345L233.94638961038962,146.55170016213762L233.99007792207794,152.87745897262784L234.47064935064935,147.6378242969032L234.7327792207792,139.74727145674143L234.9075324675325,142.2891714150096L235.91236363636366,141.318037817849L236.4803116883117,137.80056059668127L236.8298181818182,133.62609740230783L237.1793246753247,135.2346564954673L237.6598961038961,146.36384460045318L237.7035844155844,139.77302960290672L238.3589090909091,138.4769220348114L238.48997402597402,143.0560056997412L238.97054545454546,134.8464140658964L239.0142337662338,125.96253354077149L239.1452987012987,121.8598863779462L239.888,119.05874404713916L240.06275324675326,125.83240458332389L240.2375064935065,126.72190623385046L240.63070129870133,134.34766294139635L240.84914285714288,135.55888517425035L240.93651948051948,141.67038193479556L241.0238961038961,150.06653779352115L241.41709090909092,142.50013857367406L241.6355324675325,151.49160162465125L241.85397402597403,156.04319682500258L242.4656103896104,153.3267309743938L242.50929870129872,153.7739234637705L242.59667532467535,140.54796348893456L242.8151168831169,145.7768903623509L243.20831168831168,138.62712372070834L243.4704415584416,149.99978550805346L244.0383896103896,154.698300416706L244.43158441558444,147.5939152101758L244.6937142857143,152.7869404944305L244.73740259740262,140.80002242130556L244.91215584415585,143.74393735412468L245.1742857142857,141.065500133896L245.4364155844156,136.1887839699942L245.65485714285717,131.6531634961803L245.7859220779221,136.81693903428175L245.8732987012987,145.06773416627394L246.35387012987016,147.80845820013363L246.5286233766234,159.27834506795014L246.9218181818182,151.42087686784078L247.09657142857142,147.7427156935869L247.27132467532468,137.99762779758765L247.48976623376626,127.66587406746055L247.7082077922078,133.99252312081967L248.01402597402597,141.42661374896008L248.23246753246752,144.70756724821928L248.31984415584418,148.41432920912223L248.4072207792208,141.29521532723953L248.4509090909091,138.32875147807883L248.8441038961039,135.82538966366383L248.88779220779222,134.82187305053355L248.93148051948052,134.996745750696L249.19361038961037,138.0335007918101L249.71787012987014,140.85714102053655L249.9363116883117,135.49927625869753L250.2858181818182,133.65805068905883L250.37319480519483,137.18638959035283L250.81007792207794,149.55707470405736L250.89745454545454,148.65747348210036L251.55277922077923,144.79398818048526L252.03335064935064,153.010758693114L252.1207272727273,150.51403509047836L252.29548051948055,156.9608653943083L252.38285714285715,148.7521383887762L252.81974025974026,150.53924589987386L252.95080519480518,158.53480089349608L253.3003116883117,142.716334806528L253.86825974025973,152.34948239534256L254.4362077922078,159.7542746669145L254.74202597402598,166.19370496464552L254.8730909090909,159.4124372170286L255.0478441558442,164.2079621421623L255.65948051948052,169.6724213097143L256.14005194805196,165.53019674932924L256.4458701298701,163.27638162008265L256.7516883116883,158.5750021162534L257.18857142857144,161.45483543696568L257.3196363636364,153.86681975619015L257.4943896103896,156.21902966589784L257.53807792207795,157.50413455030457L257.7565194805195,155.1154394332409L258.01864935064935,142.4731726860174L258.106025974026,139.4548058980506L258.54290909090906,120.75029830395815L258.5865974025974,107.29528014592265L259.3292987012987,96.46817578003206L259.46036363636364,87.88495824677933L259.76618181818185,87.21925030427622L260.20306493506496,102.64528040402674L260.29044155844156,117.22601280812867L260.8147012987013,134.8133182505006L260.9457662337662,133.75407197848057L261.0331428571429,139.16133693414918L261.33896103896103,144.24356059971078L261.7758441558442,155.30630983283578L262.12535064935065,163.01867034361706L262.21272727272725,155.86368725060115L262.3001038961039,157.28264467273198L262.4311688311688,165.52660986256694L262.51854545454546,157.22655241136135L262.91174025974027,159.83428164940796L263.3486233766234,168.63446139342278L263.3923116883117,158.536578122927L263.7418181818182,156.99198000844058L263.82919480519485,161.4217988954466L264.00394805194804,153.55985559575404L264.04763636363634,152.5516534893883L264.8777142857143,164.31965636987803L265.0961558441559,166.5877714416114L265.1835324675325,171.98859159203485L265.2272207792208,159.05997307670953L265.3582857142857,160.6153471145473L265.75148051948054,165.14680485917162L266.53787012987016,162.7394920863432L266.97475324675327,167.05748601754874L267.4116363636364,159.86908674232362L267.63007792207793,165.88343344041195L267.8048311688312,156.35829978576047L267.8485194805195,152.3487036575096L268.02327272727274,143.3775828439733L268.2854025974026,137.33034174684644L268.3290909090909,135.09235907484106L268.37277922077925,135.0920798789949L268.50384415584415,142.178379018928L268.6349090909091,137.71966594454003L269.24654545454547,138.73334571861992L269.464987012987,150.97273549988432L269.596051948052,153.20477440762812L270.33875324675324,165.5257021435463L270.3824415584416,175.3138177382978L270.5571948051948,174.99569123566758L270.77563636363635,167.93596837202531L271.08145454545456,160.62890253846714L271.4746493506494,163.88827863383045L271.56202597402597,168.81085770376762L271.9989090909091,161.0522019452458L272.261038961039,157.09686743412132L272.3484155844156,159.0524832828077L272.61054545454544,154.89453613821925L272.6979220779221,154.10090358146837L272.7852987012987,158.82505684501035L273.09111688311685,159.4821059881757L273.30955844155847,152.61935059508463L273.39693506493506,152.6966852809275L273.4843116883117,143.58110060707526L273.528,141.11074482870188L273.8338181818182,140.04897561165595L274.1833246753247,143.54831599507258L274.4891428571429,148.07782603705348L274.6638961038961,159.89018091609208L274.88233766233765,161.60658087505962L275.0134025974026,154.64887701979333L275.53766233766237,158.40907267605817" style="fill: none;" fill="none"></path></g></g></g></g><g opacity="0.2"><g><g><g><path stroke="rgb(187, 187, 187)" stroke-width="2px" d="M13.71361038961039,12.245168736013909L14.281558441558442,12.48484460505469L14.54368831168831,13.121682709373033L15.242701298701299,13.606882747527038L15.33007792207792,13.388581022798718L15.461142857142859,13.514319474356483L15.810649350649351,13.901838976776503L15.941714285714287,13.67995168712278L16.59703896103896,13.876148230029656L16.728103896103896,14.06729713299302L17.60187012987013,14.124457303939295L17.951376623376625,14.69710335270048L18.08244155844156,14.30867875622161L18.12612987012987,13.899576241629433L18.999896103896102,14.11269108117449L19.567844155844156,14.03196365338863L20.048415584415583,13.906642937550316L20.266857142857145,14.148860032217812L20.39792207792208,14.48499804114411L20.79111688311688,14.57139971245266L21.27168831168831,15.21241517396561L21.49012987012987,13.920811140702028L21.577506493506494,14.304605832956867L21.621194805194804,14.547588776443376L21.795948051948052,14.160904745462261L13.495168831168831,43.52128573123207L13.844675324675325,12.00712899854102L13.888363636363636,12.67007558532572L14.106805194805196,12.601915040433624L14.587376623376624,12.782307248620924L14.849506493506492,12.625551919893155L15.067948051948052,13.397457906837246L15.723272727272727,13.469621752374138L15.985402597402597,14.025384315807116L16.203844155844155,13.501961459322416L16.509662337662338,13.684024610387524L16.684415584415586,14.123726266430225L16.77179220779221,14.070082037789462L17.60187012987013,13.851989180920839L17.820311688311687,13.79723099036147L18.08244155844156,13.887531528384983L18.300883116883117,13.908244257808263L18.388259740259738,14.537389062626517L18.737766233766234,14.420318627247582L18.781454545454547,14.463066915872417L19.262025974025978,15.011971651244238L19.65522077922078,14.743820130660197L20.004727272727273,14.601789986043428L20.70374025974026,13.823269850207879L20.878493506493506,13.694050267654575L21.315376623376626,14.714056460648607L23.23766233766234,14.084876844520352L23.28135064935065,14.184889738021326L24.024051948051948,14.551035096128942L24.111428571428572,14.431527869053127L24.155116883116882,14.202469449548659L24.28618181818182,14.435531169697953L24.54831168831169,14.14819861732866L24.941506493506495,13.825985132384375L25.07257142857143,14.399884388303946L25.116259740259743,14.600954514604524L25.553142857142856,14.538433401925204L26.295844155844154,14.151610125704252L26.38322077922078,14.023434882449635L27.2132987012987,15.018759856685477L27.300675324675325,14.684188356707153L27.431740259740263,14.62786365719981L27.781246753246755,14.588492065640594L28.043376623376624,14.744237866379677L28.130753246753248,15.065894370364674L28.261818181818185,14.437759093535078L28.523948051948054,14.867226224451002L28.742389610389612,14.757535786782512L29.179272727272725,14.718164195223295L29.4414025974026,14.344395160235536L29.70353246753247,14.61063205877204L29.878285714285713,14.414957685514509L30.14041558441559,14.54908566277146L30.22779220779221,14.66660864517982L30.358857142857143,14.43420833991965L30.446233766233767,14.523882274363956L30.489922077922078,15.158840567944765L30.708363636363636,15.074040216894161L30.75205194805195,15.416305016372576L31.145246753246756,14.339069029812407L31.93163636363636,14.86858386553925L32.019012987012985,14.652579687267917L32.54327272727273,13.768894584058046L32.84909090909091,14.71642362972554L32.892779220779225,14.914604417299842L32.980155844155846,14.742288433022168L33.11122077922078,14.34014818042101L33.1985974025974,14.567222355258025L33.722857142857144,15.025269571647073L33.85392207792208,15.088556533145436L34.028675324675326,14.106425045382537L34.15974025974026,14.514065484956632L34.290805194805195,14.96984996619858L34.46555844155844,14.736300887709916L34.50924675324676,15.195044330298032L34.684000000000005,15.158179153055585L34.90244155844156,15.413694168125943L36.03833766233767,15.409760490101036L36.21309090909091,14.796385208692385L36.38784415584416,15.71174860396141L36.43153246753247,15.345707679783658L36.737350649350645,15.55126846506846L37.130545454545455,15.308703257301403L37.3052987012987,15.030700136000092L37.480051948051944,14.636810163858257L37.698493506493506,15.685709744114973L37.873246753246754,16.03967114373833L38.266441558441564,15.363948806200142L38.441194805194804,16.03852237050978L38.48488311688312,15.701270399664935L38.52857142857143,15.322697403903362L38.61594805194805,14.66215279750557L38.65963636363636,14.467662008786476L38.921766233766235,14.802511999244473L39.14020779220779,15.263552988289632L39.22758441558442,15.216975455569752L39.44602597402598,15.866276008852026L39.489714285714285,15.673351729080935L39.5334025974026,15.714046150418426L39.70815584415585,16.29689191299647L39.88290909090909,15.463961699701088L40.10135064935065,16.132791397868175L40.14503896103896,15.938161363909302L40.18872727272728,16.45806827808852L41.193558441558444,16.634874921350416L41.36831168831169,15.96353880886656L41.45568831168831,15.663465317053692L41.674129870129875,16.07023547387888L42.810025974025976,16.487692702860272L43.02846753246754,16.522121088405868L43.11584415584416,16.956461802715495L43.37797402597403,17.293609339630507L43.72748051948052,18.362420989181544L43.9896103896104,17.940612346455765L44.16436363636364,17.15888957010432L44.47018181818182,17.559637370307286L44.55755844155844,17.83419417192306L44.81968831168831,18.595726388500537L44.90706493506493,19.09425915836735L45.5187012987013,20.187508347506878L45.56238961038961,20.22318994021083L45.99927272727273,19.906058906519974L46.130337662337666,20.40842092048186L46.52353246753247,22.22027998102422L46.69828571428572,21.103533157665026L46.82935064935066,21.605825549006994L46.873038961038965,20.46067269672443L47.26623376623377,16.9291697357107L47.30992207792208,16.865813151592448L47.48467532467532,17.74166571006242L47.57205194805196,18.419441914887983L47.615740259740264,18.586501391362447L47.834181818181825,19.20255714363762L48.35844155844156,21.126473810925432L48.53319480519481,19.16485649495627L48.62057142857143,21.210751992326692L48.75163636363637,20.291524541652677L49.14483116883117,22.317403535798917L49.27589610389611,22.29665599506569L49.6254025974026,21.406670044753923L50.149662337662335,25.23323366894698L50.455480519480524,25.909408553514595L51.023428571428575,27.090034130641357L51.28555844155844,28.321170918512962L51.416623376623384,28.681642033097887L51.504000000000005,28.462087101211154L51.67875324675325,29.411565580236157L51.8535064935065,28.802123976852442L51.94088311688312,29.693920115281884L52.15932467532468,24.4351147656067L52.20301298701299,22.14797689024752L52.5962077922078,24.411756376626812L52.85833766233767,24.83624549021914L53.03309090909091,24.59754433785713L53.07677922077923,25.10662493464031L53.51366233766234,28.17078605950701L53.732103896103894,26.96210256655641L54.343740259740265,22.40582426308484L55.30488311688312,31.551068690075823L55.34857142857143,32.60376270311767L55.52332467532468,30.069638583627125L55.56701298701299,30.489532604305396L55.6107012987013,32.680417207638754L56.397090909090906,31.864997083250785L56.92135064935066,35.165144078303L56.965038961038964,28.40593645825362L57.22716883116883,32.03456297404202L57.31454545454545,27.05090621825184L57.532987012987014,32.06829513338852L58.66888311688312,30.755247333192585L58.75625974025974,33.24147109018489L59.19314285714286,33.02365672379591L59.67371428571429,38.33784686760964L59.804779220779224,34.82994597474547L59.93584415584416,39.79379509517122L60.80961038961039,31.019395553131773L61.07174025974026,28.912580263339947L61.37755844155844,33.5859986248104L61.63968831168831,34.034298674412014L62.07657142857143,38.474411636563445L62.3387012987013,39.511858295844974L62.46976623376624,34.28323435190083L62.819272727272725,34.37384819171393L62.95033766233767,36.7833826328752L63.0814025974026,30.2638160705566L63.212467532467535,34.19282937994748L63.25615584415585,35.848176790931774L64.04254545454546,35.991843067116406L64.69787012987013,37.137761768217985L65.3531948051948,38.28827556223359L65.48425974025974,42.004382899939145L65.52794805194806,40.10991660087336L65.61532467532467,41.270194967331406L65.65901298701299,41.526423614255805L66.62015584415585,32.12030323046142L66.8385974025974,30.01484558175784L66.96966233766234,33.667735580584946L67.14441558441558,34.93848763918544L67.23179220779221,35.285382342887885L67.40654545454547,32.536124327874916L67.5812987012987,37.52500278015836L67.75605194805195,35.32106393559184L68.84825974025975,35.791155865225335L68.89194805194806,31.505326628794847L69.37251948051949,37.45788657456495L69.72202597402598,32.973876550560135L69.76571428571428,34.274531524412055L69.89677922077922,35.63471383828718L69.98415584415585,38.02545017207271L70.42103896103896,32.56700195980508L70.72685714285714,34.534015028817294L71.38218181818182,36.14087028503414L71.42587012987013,37.30311549050464L71.55693506493508,38.136324194279666L72.60545454545455,37.87113163504179L72.64914285714286,38.556183403647964L72.73651948051949,41.86331006634617L73.04233766233767,43.243004119451115L73.34815584415584,45.35789563315251L73.39184415584415,46.63594066118861L73.78503896103896,38.835091619008125L74.04716883116885,44.72612257443262L74.22192207792209,41.95608220737648L74.6151168831169,37.96954320828482L74.92093506493507,40.31436342423959L74.9646233766234,41.06611366271969L75.18306493506493,39.785440380782006L75.53257142857144,43.21689563698479L75.92576623376624,32.54796017325964L75.96945454545455,34.87377341397894L76.1442077922078,38.855630291881624L76.36264935064935,36.380998701104346L76.49371428571429,40.87484292017146L76.58109090909092,35.81903972449936L76.71215584415584,38.92692385466964L76.84322077922077,35.840100567022205L77.01797402597403,42.04445071769746L77.36748051948054,42.58376493717665L77.71698701298702,44.75726129118746L77.89174025974027,40.626481629296904L78.0228051948052,43.408827794422166L78.32862337662338,42.34732651996171L78.72181818181818,43.604328111129945L78.89657142857143,43.03481508026471L78.94025974025975,44.67414928866967L78.98394805194806,37.53461070170596L79.07132467532468,40.26085844083863L79.2023896103896,45.74510183378297L79.5082077922078,51.40780540721204L79.90140259740261,37.48190637843396L80.33828571428572,38.50699502268142L80.51303896103896,32.40255333157725L80.60041558441559,35.32360516121858L80.73148051948053,40.41354084630163L80.94992207792208,40.720715845345325L81.08098701298701,44.53673164262196L81.12467532467532,37.74988384246822L81.16836363636365,39.658518344685746L81.3868051948052,44.99831220697146L81.99844155844156,45.805830163999616L82.39163636363637,41.72456959052016L82.65376623376625,37.712287627716734L82.95958441558442,40.78153120383686L83.00327272727273,40.51835770057639L83.39646753246754,42.05062972521449L83.70228571428572,41.48181292054838L84.22654545454546,40.7921138420632L84.61974025974027,44.249399090252695L84.79449350649351,40.71782650661905L85.23137662337663,46.1064084198068L85.40612987012987,38.93844639826477L85.62457142857144,47.319930684841154L85.79932467532468,44.55791432472964L86.36727272727272,45.47282517296924L86.49833766233768,49.86839706403316L86.76046753246753,49.71529692285068L86.80415584415584,51.33661627835389L86.84784415584416,53.15500245951286L88.33324675324675,50.07219987816522L88.59537662337662,49.545922494264204L88.90119480519482,44.68501041737568L89.16332467532467,37.00384265882076L89.33807792207793,42.32140949970014L89.42545454545456,38.834186524949274L89.51283116883116,42.434876964498756L89.77496103896104,45.459701309116184L89.90602597402597,50.56608533815303L89.99340259740259,47.339512046690885L90.12446753246753,52.27246612953148L90.25553246753246,55.216858942497694L90.7797922077922,52.81935180892589L90.86716883116883,55.33283282161305L91.39142857142856,51.80679523626229L91.43511688311688,53.241926300470695L91.47880519480519,53.93568089656564L92.09044155844155,56.34526755469183L92.2651948051948,47.74283588383051L92.43994805194804,42.7619118158718L92.61470129870129,49.408348197321715L92.78945454545453,44.16418100348264L92.9642077922078,48.56408690263595L93.31371428571428,49.26264545950468L93.4010909090909,40.63403568355716L93.53215584415584,29.59456863667006L93.66322077922078,29.030590604087706L93.7942857142857,28.3005278117096L94.01272727272728,29.355519371208487L94.84280519480518,35.94536996832639L95.36706493506493,39.81659650319179L95.41075324675325,41.04900390387678L95.54181818181817,35.22477585225607L95.58550649350649,36.98782945624143L95.67288311688311,40.60580371118357L95.76025974025973,44.4261012995847L95.93501298701298,44.95122991025718L96.10976623376622,43.62563263282246L96.32820779220779,48.73807382979149L96.41558441558442,44.694513904993414L96.72140259740259,46.12924463913734L97.07090909090908,47.61076177386093L97.24566233766232,49.920039642351526L97.55148051948052,55.699361104130176L97.59516883116882,56.90506823007959L98.38155844155844,54.189873081857684L98.51262337662337,58.84125588412657L98.55631168831168,50.153762777389986L98.73106493506494,56.88811512213147L98.81844155844156,60.58321383427912L99.0368831168831,45.050999124588486L99.43007792207791,48.89627382788237L99.60483116883115,49.965416184877995L99.6922077922078,51.408797529545765L99.77958441558441,41.6905241293841L99.95433766233765,49.03144614443798L100.39122077922077,41.44080519742127L100.4785974025974,43.80148196506059L100.56597402597401,48.60669594602098L100.60966233766234,49.8269716051866L100.78441558441558,47.97494029295606L100.91548051948051,51.34617198293657L101.264987012987,58.10870408308668L101.43974025974025,53.22373739101917L102.05137662337663,54.331885820819465L102.22612987012987,46.633207973357145L102.3135064935065,49.81118467612197L102.53194805194805,48.803814988641676L102.57563636363636,52.42652358173771L102.66301298701299,55.54700940611174L102.79407792207792,61.94793902410336L102.88145454545453,55.21106285939017L102.96883116883116,57.633947437919204L103.01251948051949,59.89499423646704L103.31833766233765,54.66990364048334L103.44940259740258,47.86815659966882L103.66784415584415,51.60335794088475L104.49792207792208,52.29060282201809L104.9348051948052,59.37583576545185L105.19693506493506,61.219164250193614L105.45906493506494,59.012788613930255L105.63381818181819,49.64123586092123L105.67750649350648,53.10189780617637L106.15807792207792,61.76115894053936L106.20176623376622,52.7251872154974L106.28914285714285,56.45017143724148L106.85709090909091,54.13509748564334L107.29397402597401,57.52476176424507L107.68716883116882,60.183301505515075L108.42987012987012,58.41882063782158L109.21625974025973,59.44631126245592L109.25994805194806,49.76798384046771L109.34732467532467,54.46723219392483L109.69683116883117,57.477557627945984L109.7842077922078,58.89446497139291L109.95896103896104,57.88169953086957L110.39584415584416,63.13340337331391L110.74535064935066,61.95121128723916L110.78903896103895,50.68792492299583L111.26961038961039,55.64991163833896L111.61911688311689,58.445416478627266L111.88124675324674,57.38415888333647L111.92493506493506,59.615041681808236L112.01231168831168,49.78505878800067L112.09968831168831,55.52652295020316L112.31812987012987,51.399259230618085L113.41033766233765,56.2424349450845L113.45402597402597,58.80252830180153L113.89090909090909,54.77110011852278L113.9782857142857,57.708374018603166L114.15303896103896,52.020902198141044L114.19672727272727,53.58890803244803L114.80836363636364,60.51423522360311L115.0704935064935,59.83753816938618L115.28893506493506,68.80684623586414L115.37631168831167,57.11673840026148L115.46368831168832,63.945620857186L115.55106493506494,67.70148271086028L116.11901298701298,57.03105036080704L116.29376623376622,49.72398234468449L116.38114285714285,49.405685132110136L116.51220779220779,60.773370614908785L116.9054025974026,52.23782887612617L116.94909090909091,56.19669288380351L117.38597402597404,64.42944584859677L117.47335064935065,69.4003616649434L117.99761038961039,60.84271474433932L118.0412987012987,60.8837920900863L118.08498701298701,62.94084461229734L118.25974025974025,60.57849690178021L118.43449350649351,55.48069386064728L118.69662337662336,65.83425626183433L119.43932467532467,56.93265619321899L119.57038961038961,64.72247005014373L119.70145454545454,57.56655274184615L119.74514285714285,60.276595816194714L120.09464935064935,65.0081142539802L120.35677922077922,60.2548213418178L120.61890909090909,59.783232525856235L120.83735064935065,68.12995771944246L121.66742857142857,64.60515593559508L121.84218181818181,55.10168572351128L121.92955844155844,60.97223022302721L122.14800000000001,66.48815190803067L122.36644155844155,72.97142767972109L122.9343896103896,64.19615785493276L123.2402077922078,63.87417064350319L123.89553246753246,66.80982581767067L124.4197922077922,69.75035457523185L124.55085714285715,58.7852618920638L124.81298701298701,65.60629439859343L125.1624935064935,59.1125752339165L125.20618181818182,62.52639856162706L125.24987012987013,64.88803264029012L125.29355844155843,68.85913282341669L125.68675324675324,74.55682176335065L126.69158441558442,56.574221540266436L126.73527272727273,59.226651896639325L126.77896103896103,61.82296642136461L127.08477922077923,66.04531723409202L127.56535064935065,75.78014341213733L127.65272727272728,67.1702969322556L128.176987012987,71.55744448631039L128.2206753246753,55.897959627423944L128.35174025974024,63.65872344619116L128.4391168831169,67.61931061371128L128.4828051948052,69.06131691163584L128.57018181818182,59.6047549397165L129.40025974025974,62.29049971971641L129.74976623376622,58.88215917332377L130.27402597402596,78.5149895448289L130.3177142857143,78.6116257412642L130.66722077922077,64.47814687122396L130.71090909090907,67.53560681892428L130.97303896103895,65.53407833609162L131.10410389610388,73.56059169505596L131.36623376623376,71.35096120131178L131.4536103896104,76.59491952729113L131.54098701298702,79.45536486630063L132.2836883116883,68.39099032714067L132.37106493506494,72.39611856574834L132.41475324675324,74.24797582142912L132.45844155844156,74.17854466372368L132.93901298701297,73.57206202168616L133.3758961038961,78.18154941242409L133.7254025974026,67.80633437644498L134.46810389610388,73.84421684291505L134.77392207792207,76.22402242537466L134.8176103896104,78.74253367235032L134.94867532467532,65.19172650833829L135.6476883116883,67.1908356051291L135.82244155844157,80.57172876525033L136.04088311688312,81.97389351893128L136.12825974025975,84.22689890487949L136.21563636363638,68.52588415321664L136.30301298701298,71.4932524307532L136.3903896103896,76.01724324424144L136.56514285714286,72.18603231016938L136.60883116883116,75.4771109589783L137.0894025974026,69.65847012260541L137.22046753246752,78.60556857333204L137.56997402597403,75.19820274361815L137.70103896103896,68.23204188588574L137.74472727272726,69.88209797775689L138.09423376623377,77.66454924262611L138.74955844155843,84.06662763384627L138.83693506493506,86.74231194526915L138.9243116883117,72.75044548412619L139.01168831168832,80.83596401346442L139.49225974025975,75.085918863358L139.66701298701298,71.76622531776601L140.23496103896105,53.37319975031134L141.2397922077922,50.86349576475432L141.89511688311688,61.57420480042555L141.93880519480518,61.79424709065165L142.20093506493507,67.72821779690578L142.2446233766234,71.32718507661245L142.332,59.94343417426954L142.46306493506492,54.4458754552674L142.68150649350648,49.43518771729708L142.85625974025973,55.68651573075674L142.94363636363636,47.89076654548467L143.64264935064935,65.39236149326445L144.12322077922076,55.7649804233955L144.42903896103897,63.056017831283754L144.47272727272727,67.71702596075521L144.77854545454545,73.10708735461607L144.90961038961038,83.2406770881969L145.95812987012988,64.32710059732882L146.0891948051948,77.9628125463213L146.395012987013,80.54870108371505L146.52607792207792,87.69095495285524L146.56976623376622,76.25239364298805L146.65714285714284,84.03914410463673L146.70083116883114,84.530331688103L147.00664935064935,85.19047596443632L147.5745974025974,84.27645280460057L147.79303896103897,75.42252682496873L148.18623376623376,79.36871951582243L148.27361038961038,85.18873539893856L148.360987012987,88.44270519133535L148.6668051948052,90.2819433471574L149.23475324675326,89.33638114050234L149.32212987012986,79.12397860118318L149.58425974025974,94.53296127363282L149.93376623376625,78.35924374408982L150.1958961038961,93.46019854040188L150.2395844155844,78.39774505290016L150.45802597402596,99.08206844725366L150.67646753246754,89.65537457927579L150.98228571428572,95.34631012507845L151.50654545454543,81.89179104440221L151.68129870129872,93.41666699730304L152.24924675324675,90.43883792112497L152.33662337662338,93.86698610288205L152.42399999999998,80.44122116422871L152.55506493506496,90.21413091536489L152.7735064935065,88.16444098520935L153.5162077922078,92.5622408001104L153.73464935064936,88.61155745027249L154.52103896103898,81.70791770521943L154.6957922077922,93.51755017355288L154.82685714285714,82.39107225743304L155.0452987012987,93.96766041127216L155.35111688311687,95.55016515617545L155.52587012987013,86.80089937992356L155.61324675324676,92.38068241303965L155.8753766233766,88.2803626473598L155.91906493506494,90.25794094894337L156.1811948051948,95.61028428846788L156.487012987013,95.20944945999003L156.74914285714286,93.16470273584812L156.88020779220778,98.11887431210634L157.14233766233764,93.49185942680603L157.6229090909091,90.77960583427533L157.7102857142857,95.42790783561317L158.1471688311688,92.64787662259992L158.27823376623377,86.69411568663634L158.3656103896104,88.79569187427992L158.58405194805195,74.10688558218114L159.28306493506494,80.38218118254487L159.37044155844157,89.25467899603775L159.63257142857142,85.57065028045581L159.80732467532468,82.0244047296761L159.8947012987013,85.78945676917851L160.50633766233767,90.05030889071625L161.03059740259738,93.2481976627754L161.24903896103896,81.83750280652724L161.7732987012987,105.71137766420564L161.816987012987,109.23718897604172L162.07911688311688,111.03106799499228L162.1228051948052,110.73383162494078L162.73444155844155,116.34854780759679L162.9091948051948,104.07644708651L162.99657142857143,111.39392368430914L163.08394805194806,93.5067586674668L163.215012987013,107.28893920309531L163.34607792207794,104.70376429755565L164.08877922077923,92.17867238137028L164.56935064935064,91.97297235084567L164.61303896103897,77.99751942234651L164.87516883116882,96.5810672891854L165.18098701298703,82.80219382800261L166.2295064935065,86.49182716448733L166.49163636363636,87.77914940662644L166.579012987013,99.00765927222464L167.49646753246753,98.83840668322303L167.62753246753246,113.07393490839662L167.8022857142857,108.67780603637343L167.84597402597404,111.16303767103203L167.88966233766234,113.07532736079483L168.15179220779223,110.34932330083186L168.28285714285715,95.53688464142758L168.37023376623375,102.024024468523L168.76342857142856,99.6399370949389L169.06924675324677,97.29866763259956L169.2876883116883,95.7808597072478L169.63719480519478,101.51722401254186L169.81194805194806,91.79186651080433L169.98670129870132,106.87449315242502L170.55464935064933,106.70734664767566L170.64202597402596,112.57505402543026L170.7730909090909,92.37513000910181L171.29735064935065,112.24793214578231L171.47210389610387,103.81158523471673L171.69054545454546,98.5661300224093L171.77792207792209,104.04957275522467L172.2148051948052,93.1259577478681L172.30218181818182,76.46712720844602L172.38955844155842,88.33781871444067L172.9575064935065,60.78466688498921L173.6565194805195,91.53443687368646L173.87496103896103,87.0848726408822L174.18077922077921,97.26799886852912L175.27298701298702,112.6958666766294L175.31667532467532,93.42524798520698L175.36036363636362,97.64162865827707L175.66618181818183,99.52439835719797L176.10306493506494,109.58624198096138L176.45257142857142,107.51763210384526L176.75838961038963,109.74613032758509L176.93314285714285,97.10603924896309L177.41371428571426,120.09803919154926L177.67584415584417,118.13085206598728L177.93797402597403,114.62072324928599L178.06903896103896,93.85126879643732L178.72436363636365,89.10593026859966L178.89911688311687,95.21816969313379L179.37968831168834,56.069074621508165L179.59812987012987,53.4817414147513L179.81657142857142,68.26643546012137L179.99132467532468,69.12295033591131L180.03501298701298,74.31528348922728L180.5155844155844,79.28017694895166L180.55927272727274,82.85954546115363L181.03984415584415,100.38482950535786L181.12722077922078,87.84372438659315L181.17090909090908,90.73586542331675L181.4767272727273,90.00731692292172L181.60779220779222,102.72735217485557L181.65148051948051,104.91670508055093L181.69516883116884,109.74285806444931L181.9572987012987,111.85959457757833L182.91844155844154,125.04996543831538L183.66114285714286,93.34556489671978L183.87958441558442,80.7879244057264L183.92327272727272,88.00530108174968L184.01064935064935,99.43030338638937L184.36015584415586,101.15238407855757L184.88441558441556,111.40354901151171L186.8940779220779,128.21922190793646L187.50571428571428,128.2904284424496L187.5494025974026,106.5058761913106L188.02997402597404,116.19696195839737L188.07366233766234,119.92563617899668L188.16103896103897,104.44257503896263L188.2484155844156,99.6335840308721L188.37948051948052,111.34193299289122L188.42316883116882,112.83288399261262L188.51054545454545,94.51581670347994L189.51537662337662,96.33127873460268L189.73381818181818,92.80905298769197L189.86488311688314,104.40436962628692L189.99594805194806,91.7001909260376L190.21438961038962,119.32045896108248L190.69496103896103,110.90973317414384L191.08815584415586,121.98453370063535L191.2192207792208,100.38764922146422L191.2629090909091,103.57290148800966L191.6561038961039,110.17826052371257L191.91823376623378,106.34337699644026L192.61724675324675,114.37737478704494L192.87937662337663,112.80978668845742L193.05412987012988,103.56573035815892L193.44732467532467,115.6689440089986L193.5347012987013,125.91455653801489L193.9278961038961,130.8469710455512L194.10264935064936,123.33764931858957L194.3647792207792,112.34033876805809L194.58322077922077,103.3115207672119L194.84535064935065,130.33956139164584L195.23854545454546,107.36531521713677L195.5443636363636,107.01819423991962L195.7191168831169,115.47885685098883L196.11231168831168,103.69139918709679L196.76763636363637,113.78331978266138L197.07345454545455,115.83269641102731L197.20451948051948,129.10461276533414L197.2918961038961,134.12322007631926L197.3355844155844,102.46571036923315L197.51033766233766,123.38292142718618L197.554025974026,126.94498871834045L198.12197402597403,127.0209121853525L198.38410389610388,130.25641457781813L198.4277922077922,129.04477212352137L198.51516883116884,132.30836724312073L198.77729870129872,124.48179264288342L198.90836363636365,107.01713249496599L200.08794805194805,107.63793999105003L200.3500779220779,135.72918764413225L200.52483116883118,124.50932838905791L200.6558961038961,137.75447484600926L201.0054025974026,112.88891279598533L201.09277922077922,126.94850466064592L201.8354805194805,110.4938424541104L201.87916883116884,115.46564595886088L202.70924675324676,101.08171711934875L202.75293506493506,105.18899914701962L202.884,94.38758924326038L203.18981818181817,103.71028432274743L203.27719480519482,113.6120133263724L203.6267012987013,124.0503238616451L203.71407792207793,131.6592581520432L203.75776623376623,107.31924244841122L204.3257142857143,136.7171674319676L204.41309090909093,115.25686512740525L204.84997402597403,139.3865508962886L204.98103896103896,116.66992582110214L205.4616103896104,137.29371234744374L205.59267532467533,114.9130686302888L205.68005194805195,127.83173721682638L205.76742857142858,139.49712902236092L206.29168831168832,121.75044504684236L207.0343896103896,136.17458094935262L207.68971428571427,136.7675219918176L207.95184415584416,130.18094365783548L208.25766233766234,135.3466461590358L208.60716883116882,133.6612217762503L208.78192207792208,120.70243315498948L209.0877402597403,125.79231662310761L209.1314285714286,130.73306843937814L209.17511688311689,133.89644179761683L209.612,111.931166630846L210.52945454545454,130.85236679859423L210.7478961038961,151.1354550344054L210.96633766233768,146.60612068483906L211.22846753246753,138.33627626928865L211.66535064935064,151.9065081442556L211.88379220779223,140.79157017738586L212.14592207792208,138.61746462545085L212.32067532467534,124.15529736681466L212.36436363636363,132.42679531958794L212.71387012987012,132.6901428793982L212.84493506493507,144.41427877048193L212.8886233766234,149.36223652791318L212.97600000000003,131.31429547604327L213.10706493506495,143.53139432740102L213.15075324675325,146.71029352987966L213.19444155844155,152.10293096067718L213.50025974025974,151.40089127281294L213.63132467532466,135.01633904452697L213.675012987013,140.16602834314793L213.7187012987013,146.35640175287622L213.7623896103896,151.33187785082697L213.84976623376625,123.68167208922073L213.98083116883117,119.16225896299159L214.0245194805195,122.23192027483117L214.28664935064936,124.36670645217191L214.5487792207792,114.61449202480402L214.63615584415584,125.74857621214905L214.7672207792208,91.93513245692449L215.640987012987,147.89438283234696L215.72836363636367,122.34554439052457L215.99049350649352,118.12909409483456L216.29631168831168,121.92227367278066L216.82057142857144,139.15794502381354L217.38851948051948,121.70586916444486L217.65064935064936,121.07952667007797L217.738025974026,127.44602790252404L218.43703896103895,88.9696439901255L218.56810389610388,102.25611147199356L218.65548051948053,110.5795653048748L218.69916883116883,111.931166630846L219.52924675324675,123.58879551426055L219.92244155844156,146.2875275761301L220.57776623376625,115.77170699598601L220.70883116883118,134.39838607585924L221.27677922077922,139.11643253669212L221.62628571428573,131.17524169842767L221.9757922077922,143.8664009687538L222.0194805194805,148.7350933734173L222.15054545454547,129.19517438818232L222.23792207792206,136.68811739381007L222.2816103896104,142.90536513482368L222.89324675324676,149.08432043488673L223.24275324675324,155.4964767003389L223.89807792207793,154.07648855596094L224.20389610389608,157.10968502062258L224.466025974026,154.59247919777022L224.59709090909092,126.58697180110737L224.9029090909091,130.80516266229515L225.47085714285717,125.42491805784164L225.55823376623377,140.9363330098341L225.6019220779221,145.32831933597265L225.90774025974025,141.5437033402755L226.69412987012987,124.85462177250241L227.39314285714286,143.66364249392038L227.69896103896104,136.9992956934986L227.9174025974026,129.3099820884142L227.9610909090909,135.49377616056097L228.2232207792208,131.50403452095347L228.6164155844156,130.3379774770429L228.79116883116882,148.70271885515905L228.87854545454545,133.21212106651973L229.14067532467536,129.8939940298757L229.27174025974028,147.3005541014781L230.27657142857143,129.63679066627256L230.49501298701298,113.97782797703543L231.06296103896105,102.3399545120204L231.2377142857143,120.3575749129194L232.02410389610392,136.03303816307525L232.3736103896104,153.2262571216179L232.54836363636363,138.20390626318442L233.37844155844155,160.73491743369036L233.5095064935065,140.82920120344733L233.5531948051948,147.63378536602318L233.64057142857143,159.48639239649617L233.72794805194803,128.71980854509064L233.77163636363636,133.75603037891298L233.94638961038962,158.81009567234372L233.99007792207794,163.33090125097107L234.47064935064935,138.97922375850413L234.7327792207792,126.70797591451125L234.9075324675325,146.48971166434924L235.91236363636366,139.71322022890715L236.4803116883117,131.98785951236425L236.8298181818182,126.72771392725579L237.1793246753247,137.89283239742576L237.6598961038961,164.75504934688865L237.7035844155844,128.88157670245192L238.3589090909091,136.33507849390054L238.48997402597402,150.62303255186652L238.97054545454546,121.27990057017945L239.0142337662338,111.28174423797887L239.1452987012987,115.0801803237282L239.888,114.42980061983732L240.06275324675326,137.02601337388913L240.2375064935065,128.19182540700183L240.63070129870133,146.94937760665118L240.84914285714288,137.5604540099746L240.93651948051948,151.76975191309702L241.0238961038961,163.94135238234347L241.41709090909092,129.99651333769344L241.6355324675325,166.35017319165067L241.85397402597403,163.5647984425593L242.4656103896104,148.83771711516488L242.50929870129872,154.51291794886785L242.59667532467535,118.69180151460355L242.8151168831169,154.41779604441558L243.20831168831168,126.81199210865705L243.4704415584416,168.79333535822855L244.0383896103896,162.4626897750362L244.43158441558444,135.85377732246153L244.6937142857143,161.3685180861829L244.73740259740262,120.99140183892666L244.91215584415585,148.60881534655522L245.1742857142857,136.639329342908L245.4364155844156,128.12991349224671L245.65485714285717,124.15796043202623L245.7859220779221,145.35018083862445L245.8732987012987,158.70233726237774L246.35387012987016,152.33755918977445L246.5286233766234,178.23256129779026L246.9218181818182,138.43625435147965L247.09657142857142,141.66448118016467L247.27132467532468,121.89367618165257L247.48976623376626,110.59244548955819L247.7082077922078,144.44743654321414L248.01402597402597,153.7115964050117L248.23246753246752,150.12940817670338L248.31984415584418,154.53982709146314L248.4072207792208,129.53073801049436L248.4509090909091,133.426610952808L248.8441038961039,131.68853446371543L248.88779220779222,133.1635418834774L248.93148051948052,135.2857263666144L249.19361038961037,143.05179891014978L249.71787012987014,145.52326267172114L249.9363116883117,126.64529815093712L250.2858181818182,130.61538880607498L250.37319480519483,143.01703981715963L250.81007792207794,169.99987795561688L250.89745454545454,147.17086456624043L251.55277922077923,138.40950185977917L252.03335064935064,166.58913542883735L252.1207272727273,146.38814966755527L252.29548051948055,167.61438072397962L252.38285714285715,135.1870537085467L252.81974025974026,153.49247661449942L252.95080519480518,171.747614583222L253.3003116883117,116.57600490684331L253.86825974025973,168.26845042672574L254.4362077922078,171.99084120587818L254.74202597402598,176.83499163702336L254.8730909090909,148.20625735823458L255.0478441558442,172.13266248263523L255.65948051948052,178.70254879349386L256.14005194805196,158.685088258295L256.4458701298701,159.55190728183166L256.7516883116883,150.8058789574056L257.18857142857144,166.2138172905566L257.3196363636364,141.32747288848947L257.4943896103896,160.10610333631664L257.53807792207795,159.62779593753373L257.7565194805195,151.16807323183332L258.01864935064935,121.58157538225024L258.106025974026,134.46689473385084L258.54290909090906,89.84072739913165L258.5865974025974,85.06059496699388L259.3292987012987,78.57617042207495L259.46036363636364,73.70102051941478L259.76618181818185,86.11915468576315L260.20306493506496,128.1371020277524L260.29044155844156,141.32096317352787L260.8147012987013,163.8766903741019L260.9457662337662,132.00364644142888L261.0331428571429,148.09694984497563L261.33896103896103,152.64203631229663L261.7758441558442,173.58772302179293L262.12535064935065,175.76349951660578L262.21272727272725,144.0399353488799L262.3001038961039,159.62750004139912L262.4311688311688,179.14992634338168L262.51854545454546,143.5105423527379L262.91174025974027,164.14360609318254L263.3486233766234,183.1769334902961L263.3923116883117,141.84962513216078L263.7418181818182,154.43950089617258L263.82919480519485,168.74216273259458L264.00394805194804,140.56783788830452L264.04763636363634,150.88557945154778L264.8777142857143,183.76651524135045L265.0961558441559,170.3358767193034L265.1835324675325,180.91355433398127L265.2272207792208,137.69517377950078L265.3582857142857,163.1856336545285L265.75148051948054,172.63512893052695L266.53787012987016,158.7613598384066L266.97475324675327,174.19305689060192L267.4116363636364,147.99011393472344L267.63007792207793,175.82226100780997L267.8048311688312,140.61782692940002L267.8485194805195,145.72276628907375L268.02327272727274,128.55262722903132L268.2854025974026,127.33715553063949L268.3290909090909,131.39404818715036L268.37277922077925,135.09161850230484L268.50384415584415,153.8886293217883L268.6349090909091,130.35155388792538L269.24654545454547,140.40847171133015L269.464987012987,171.19857060261035L269.596051948052,156.8932631066318L270.33875324675324,185.88628033844557L270.3824415584416,191.4888734824097L270.5571948051948,174.46998086129466L270.77563636363635,156.26963589444136L271.08145454545456,148.55383088248115L271.4746493506494,169.2744624731178L271.56202597402597,176.94551754613076L271.9989090909091,148.23086895437285L272.261038961039,150.56059846746206L272.3484155844156,162.28417737758653L272.61054545454544,148.02344576400546L272.6979220779221,152.7894099929915L272.7852987012987,166.6318140948423L273.09111688311685,160.56789276852584L273.30955844155847,141.27851078103762L273.39693506493506,152.82448238777124L273.4843116883117,128.51741558901173L273.528,137.028432759931L273.8338181818182,138.2943808577577L274.1833246753247,149.3310455941934L274.4891428571429,155.56293149104314L274.6638961038961,179.4103323475007L274.88233766233765,164.4429659531413L275.0134025974026,143.1511329831066L275.53766233766237,164.6228708029892" style="fill: none;" fill="none"></path></g></g></g></g></g></g><g transform="translate(40, 178)" clip-path="url(#clip_1)"><clipPath id="clip_1"><rect width="290" height="22"></rect></clipPath><g><g><line x1="13.407792207792207" y1="0" x2="13.407792207792207" y2="5" style="visibility: inherit;" fill="rgb(0, 0, 0)" stroke="rgb(204, 204, 204)" stroke-width="1px"></line><line x1="35.251948051948055" y1="0" x2="35.251948051948055" y2="5" style="visibility: inherit;" fill="rgb(0, 0, 0)" stroke="rgb(204, 204, 204)" stroke-width="1px"></line><line x1="57.0961038961039" y1="0" x2="57.0961038961039" y2="5" style="visibility: inherit;" fill="rgb(0, 0, 0)" stroke="rgb(204, 204, 204)" stroke-width="1px"></line><line x1="78.94025974025975" y1="0" x2="78.94025974025975" y2="5" style="visibility: inherit;" fill="rgb(0, 0, 0)" stroke="rgb(204, 204, 204)" stroke-width="1px"></line><line x1="100.78441558441558" y1="0" x2="100.78441558441558" y2="5" style="visibility: inherit;" fill="rgb(0, 0, 0)" stroke="rgb(204, 204, 204)" stroke-width="1px"></line><line x1="122.62857142857143" y1="0" x2="122.62857142857143" y2="5" style="visibility: inherit;" fill="rgb(0, 0, 0)" stroke="rgb(204, 204, 204)" stroke-width="1px"></line><line x1="144.47272727272727" y1="0" x2="144.47272727272727" y2="5" style="visibility: inherit;" fill="rgb(0, 0, 0)" stroke="rgb(204, 204, 204)" stroke-width="1px"></line><line x1="166.31688311688313" y1="0" x2="166.31688311688313" y2="5" style="visibility: inherit;" fill="rgb(0, 0, 0)" stroke="rgb(204, 204, 204)" stroke-width="1px"></line><line x1="188.16103896103897" y1="0" x2="188.16103896103897" y2="5" style="visibility: inherit;" fill="rgb(0, 0, 0)" stroke="rgb(204, 204, 204)" stroke-width="1px"></line><line x1="210.00519480519483" y1="0" x2="210.00519480519483" y2="5" style="visibility: inherit;" fill="rgb(0, 0, 0)" stroke="rgb(204, 204, 204)" stroke-width="1px"></line><line x1="231.84935064935064" y1="0" x2="231.84935064935064" y2="5" style="visibility: inherit;" fill="rgb(0, 0, 0)" stroke="rgb(204, 204, 204)" stroke-width="1px"></line><line x1="253.6935064935065" y1="0" x2="253.6935064935065" y2="5" style="visibility: inherit;" fill="rgb(0, 0, 0)" stroke="rgb(204, 204, 204)" stroke-width="1px"></line><line x1="275.53766233766237" y1="0" x2="275.53766233766237" y2="5" style="visibility: inherit;" fill="rgb(0, 0, 0)" stroke="rgb(204, 204, 204)" stroke-width="1px"></line></g><g transform="translate(0, 8)"><text x="13.407792207792207" y="0" dx="0em" dy="0.95em" style="text-anchor: middle; visibility: inherit; font-family: &quot;Helvetica Neue&quot;, sans-serif; font-size: 12px; font-weight: 200;" fill="rgb(50, 49, 63)" stroke="none" stroke-width="1px">0</text><text x="35.251948051948055" y="0" dx="0em" dy="0.95em" style="text-anchor: middle; visibility: hidden; font-family: &quot;Helvetica Neue&quot;, sans-serif; font-size: 12px; font-weight: 200;" fill="rgb(50, 49, 63)" stroke="none" stroke-width="1px">500</text><text x="57.0961038961039" y="0" dx="0em" dy="0.95em" style="text-anchor: middle; visibility: inherit; font-family: &quot;Helvetica Neue&quot;, sans-serif; font-size: 12px; font-weight: 200;" fill="rgb(50, 49, 63)" stroke="none" stroke-width="1px">1k</text><text x="78.94025974025975" y="0" dx="0em" dy="0.95em" style="text-anchor: middle; visibility: hidden; font-family: &quot;Helvetica Neue&quot;, sans-serif; font-size: 12px; font-weight: 200;" fill="rgb(50, 49, 63)" stroke="none" stroke-width="1px">1.5k</text><text x="100.78441558441558" y="0" dx="0em" dy="0.95em" style="text-anchor: middle; visibility: inherit; font-family: &quot;Helvetica Neue&quot;, sans-serif; font-size: 12px; font-weight: 200;" fill="rgb(50, 49, 63)" stroke="none" stroke-width="1px">2k</text><text x="122.62857142857143" y="0" dx="0em" dy="0.95em" style="text-anchor: middle; visibility: hidden; font-family: &quot;Helvetica Neue&quot;, sans-serif; font-size: 12px; font-weight: 200;" fill="rgb(50, 49, 63)" stroke="none" stroke-width="1px">2.5k</text><text x="144.47272727272727" y="0" dx="0em" dy="0.95em" style="text-anchor: middle; visibility: inherit; font-family: &quot;Helvetica Neue&quot;, sans-serif; font-size: 12px; font-weight: 200;" fill="rgb(50, 49, 63)" stroke="none" stroke-width="1px">3k</text><text x="166.31688311688313" y="0" dx="0em" dy="0.95em" style="text-anchor: middle; visibility: hidden; font-family: &quot;Helvetica Neue&quot;, sans-serif; font-size: 12px; font-weight: 200;" fill="rgb(50, 49, 63)" stroke="none" stroke-width="1px">3.5k</text><text x="188.16103896103897" y="0" dx="0em" dy="0.95em" style="text-anchor: middle; visibility: inherit; font-family: &quot;Helvetica Neue&quot;, sans-serif; font-size: 12px; font-weight: 200;" fill="rgb(50, 49, 63)" stroke="none" stroke-width="1px">4k</text><text x="210.00519480519483" y="0" dx="0em" dy="0.95em" style="text-anchor: middle; visibility: hidden; font-family: &quot;Helvetica Neue&quot;, sans-serif; font-size: 12px; font-weight: 200;" fill="rgb(50, 49, 63)" stroke="none" stroke-width="1px">4.5k</text><text x="231.84935064935064" y="0" dx="0em" dy="0.95em" style="text-anchor: middle; visibility: inherit; font-family: &quot;Helvetica Neue&quot;, sans-serif; font-size: 12px; font-weight: 200;" fill="rgb(50, 49, 63)" stroke="none" stroke-width="1px">5k</text><text x="253.6935064935065" y="0" dx="0em" dy="0.95em" style="text-anchor: middle; visibility: hidden; font-family: &quot;Helvetica Neue&quot;, sans-serif; font-size: 12px; font-weight: 200;" fill="rgb(50, 49, 63)" stroke="none" stroke-width="1px">5.5k</text><text x="275.53766233766237" y="0" dx="0em" dy="0.95em" style="text-anchor: middle; visibility: inherit; font-family: &quot;Helvetica Neue&quot;, sans-serif; font-size: 12px; font-weight: 200;" fill="rgb(50, 49, 63)" stroke="none" stroke-width="1px">6k</text></g><line x1="0" y1="0" x2="290" y2="0" fill="rgb(0, 0, 0)" stroke="rgb(204, 204, 204)" stroke-width="1px"></line></g></g></g></g></svg>