<svg viewBox="0 0 330 200" xmlns="http://www.w3.org/2000/svg"><g><g><g><g><g><line x1="50" y1="178" x2="45" y2="178" style="visibility: inherit;" fill="rgb(0, 0, 0)" stroke="rgb(204, 204, 204)" stroke-width="1px"></line><line x1="50" y1="158.22222222222223" x2="45" y2="158.22222222222223" style="visibility: inherit;" fill="rgb(0, 0, 0)" stroke="rgb(204, 204, 204)" stroke-width="1px"></line><line x1="50" y1="138.44444444444446" x2="45" y2="138.44444444444446" style="visibility: inherit;" fill="rgb(0, 0, 0)" stroke="rgb(204, 204, 204)" stroke-width="1px"></line><line x1="50" y1="118.66666666666666" x2="45" y2="118.66666666666666" style="visibility: inherit;" fill="rgb(0, 0, 0)" stroke="rgb(204, 204, 204)" stroke-width="1px"></line><line x1="50" y1="98.88888888888889" x2="45" y2="98.88888888888889" style="visibility: inherit;" fill="rgb(0, 0, 0)" stroke="rgb(204, 204, 204)" stroke-width="1px"></line><line x1="50" y1="79.1111111111111" x2="45" y2="79.1111111111111" style="visibility: inherit;" fill="rgb(0, 0, 0)" stroke="rgb(204, 204, 204)" stroke-width="1px"></line><line x1="50" y1="59.33333333333334" x2="45" y2="59.33333333333334" style="visibility: inherit;" fill="rgb(0, 0, 0)" stroke="rgb(204, 204, 204)" stroke-width="1px"></line><line x1="50" y1="39.55555555555557" x2="45" y2="39.55555555555557" style="visibility: inherit;" fill="rgb(0, 0, 0)" stroke="rgb(204, 204, 204)" stroke-width="1px"></line><line x1="50" y1="19.7777777777778" x2="45" y2="19.7777777777778" style="visibility: inherit;" fill="rgb(0, 0, 0)" stroke="rgb(204, 204, 204)" stroke-width="1px"></line><line x1="50" y1="0" x2="45" y2="0" style="visibility: inherit;" fill="rgb(0, 0, 0)" stroke="rgb(204, 204, 204)" stroke-width="1px"></line></g><g transform="translate(40, 0)"><text x="0" y="178" dx="0em" dy="0.3em" style="text-anchor: end; visibility: hidden; font-family: &quot;Helvetica Neue&quot;, sans-serif; font-size: 12px; font-weight: 200;" fill="rgb(50, 49, 63)" stroke="none" stroke-width="1px">-0.1</text><text x="0" y="158.22222222222223" dx="0em" dy="0.3em" style="text-anchor: end; visibility: inherit; font-family: &quot;Helvetica Neue&quot;, sans-serif; font-size: 12px; font-weight: 200;" fill="rgb(50, 49, 63)" stroke="none" stroke-width="1px">0</text><text x="0" y="138.44444444444446" dx="0em" dy="0.3em" style="text-anchor: end; visibility: hidden; font-family: &quot;Helvetica Neue&quot;, sans-serif; font-size: 12px; font-weight: 200;" fill="rgb(50, 49, 63)" stroke="none" stroke-width="1px">0.1</text><text x="0" y="118.66666666666666" dx="0em" dy="0.3em" style="text-anchor: end; visibility: inherit; font-family: &quot;Helvetica Neue&quot;, sans-serif; font-size: 12px; font-weight: 200;" fill="rgb(50, 49, 63)" stroke="none" stroke-width="1px">0.2</text><text x="0" y="98.88888888888889" dx="0em" dy="0.3em" style="text-anchor: end; visibility: hidden; font-family: &quot;Helvetica Neue&quot;, sans-serif; font-size: 12px; font-weight: 200;" fill="rgb(50, 49, 63)" stroke="none" stroke-width="1px">0.3</text><text x="0" y="79.1111111111111" dx="0em" dy="0.3em" style="text-anchor: end; visibility: inherit; font-family: &quot;Helvetica Neue&quot;, sans-serif; font-size: 12px; font-weight: 200;" fill="rgb(50, 49, 63)" stroke="none" stroke-width="1px">0.4</text><text x="0" y="59.33333333333334" dx="0em" dy="0.3em" style="text-anchor: end; visibility: hidden; font-family: &quot;Helvetica Neue&quot;, sans-serif; font-size: 12px; font-weight: 200;" fill="rgb(50, 49, 63)" stroke="none" stroke-width="1px">0.5</text><text x="0" y="39.55555555555557" dx="0em" dy="0.3em" style="text-anchor: end; visibility: inherit; font-family: &quot;Helvetica Neue&quot;, sans-serif; font-size: 12px; font-weight: 200;" fill="rgb(50, 49, 63)" stroke="none" stroke-width="1px">0.6</text><text x="0" y="19.7777777777778" dx="0em" dy="0.3em" style="text-anchor: end; visibility: hidden; font-family: &quot;Helvetica Neue&quot;, sans-serif; font-size: 12px; font-weight: 200;" fill="rgb(50, 49, 63)" stroke="none" stroke-width="1px">0.7</text><text x="0" y="0" dx="0em" dy="0.3em" style="text-anchor: end; visibility: hidden; font-family: &quot;Helvetica Neue&quot;, sans-serif; font-size: 12px; font-weight: 200;" fill="rgb(50, 49, 63)" stroke="none" stroke-width="1px">0.8</text></g><line x1="50" y1="0" x2="50" y2="178" fill="rgb(0, 0, 0)" stroke="rgb(204, 204, 204)" stroke-width="1px"></line></g></g><g transform="translate(50, 0)" clip-path="url(#clip_0)"><clipPath id="clip_0"><rect width="280" height="178"></rect></clipPath><g><g><g><line x1="0" y1="0" x2="0" y2="178" fill="rgb(0, 0, 0)" stroke="rgb(60, 60, 60)" stroke-width="1px" opacity="0.25"></line><line x1="20" y1="0" x2="20" y2="178" fill="rgb(0, 0, 0)" stroke="rgb(60, 60, 60)" stroke-width="1px" opacity="0.25"></line><line x1="40" y1="0" x2="40" y2="178" fill="rgb(0, 0, 0)" stroke="rgb(60, 60, 60)" stroke-width="1px" opacity="0.25"></line><line x1="60" y1="0" x2="60" y2="178" fill="rgb(0, 0, 0)" stroke="rgb(60, 60, 60)" stroke-width="1px" opacity="0.25"></line><line x1="80" y1="0" x2="80" y2="178" fill="rgb(0, 0, 0)" stroke="rgb(60, 60, 60)" stroke-width="1px" opacity="0.25"></line><line x1="100" y1="0" x2="100" y2="178" fill="rgb(0, 0, 0)" stroke="rgb(60, 60, 60)" stroke-width="1px" opacity="0.25"></line><line x1="120" y1="0" x2="120" y2="178" fill="rgb(0, 0, 0)" stroke="rgb(60, 60, 60)" stroke-width="1px" opacity="0.25"></line><line x1="140" y1="0" x2="140" y2="178" fill="rgb(0, 0, 0)" stroke="rgb(60, 60, 60)" stroke-width="1px" opacity="0.25"></line><line x1="160" y1="0" x2="160" y2="178" fill="rgb(0, 0, 0)" stroke="rgb(60, 60, 60)" stroke-width="1px" opacity="0.25"></line><line x1="180" y1="0" x2="180" y2="178" fill="rgb(0, 0, 0)" stroke="rgb(60, 60, 60)" stroke-width="1px" opacity="0.25"></line><line x1="200" y1="0" x2="200" y2="178" fill="rgb(0, 0, 0)" stroke="rgb(60, 60, 60)" stroke-width="1px" opacity="0.25"></line><line x1="220" y1="0" x2="220" y2="178" fill="rgb(0, 0, 0)" stroke="rgb(60, 60, 60)" stroke-width="1px" opacity="0.25"></line><line x1="240" y1="0" x2="240" y2="178" fill="rgb(0, 0, 0)" stroke="rgb(60, 60, 60)" stroke-width="1px" opacity="0.25"></line><line x1="260" y1="0" x2="260" y2="178" fill="rgb(0, 0, 0)" stroke="rgb(60, 60, 60)" stroke-width="1px" opacity="0.25"></line><line x1="280" y1="0" x2="280" y2="178" fill="rgb(0, 0, 0)" stroke="rgb(60, 60, 60)" stroke-width="1px" opacity="0.25"></line></g><g><line x1="0" y1="178" x2="280" y2="178" fill="rgb(0, 0, 0)" stroke="rgb(60, 60, 60)" stroke-width="1px" opacity="0.25"></line><line x1="0" y1="158.22222222222223" x2="280" y2="158.22222222222223" fill="rgb(0, 0, 0)" stroke="rgb(60, 60, 60)" stroke-width="1px" opacity="0.25"></line><line x1="0" y1="138.44444444444446" x2="280" y2="138.44444444444446" fill="rgb(0, 0, 0)" stroke="rgb(60, 60, 60)" stroke-width="1px" opacity="0.25"></line><line x1="0" y1="118.66666666666666" x2="280" y2="118.66666666666666" fill="rgb(0, 0, 0)" stroke="rgb(60, 60, 60)" stroke-width="1px" opacity="0.25"></line><line x1="0" y1="98.88888888888889" x2="280" y2="98.88888888888889" fill="rgb(0, 0, 0)" stroke="rgb(60, 60, 60)" stroke-width="1px" opacity="0.25"></line><line x1="0" y1="79.1111111111111" x2="280" y2="79.1111111111111" fill="rgb(0, 0, 0)" stroke="rgb(60, 60, 60)" stroke-width="1px" opacity="0.25"></line><line x1="0" y1="59.33333333333334" x2="280" y2="59.33333333333334" fill="rgb(0, 0, 0)" stroke="rgb(60, 60, 60)" stroke-width="1px" opacity="0.25"></line><line x1="0" y1="39.55555555555557" x2="280" y2="39.55555555555557" fill="rgb(0, 0, 0)" stroke="rgb(60, 60, 60)" stroke-width="1px" opacity="0.25"></line><line x1="0" y1="19.7777777777778" x2="280" y2="19.7777777777778" fill="rgb(0, 0, 0)" stroke="rgb(60, 60, 60)" stroke-width="1px" opacity="0.25"></line><line x1="0" y1="0" x2="280" y2="0" fill="rgb(0, 0, 0)" stroke="rgb(60, 60, 60)" stroke-width="1px" opacity="0.25"></line></g></g></g><g><g><line x1="0" y1="158.22222222222223" x2="280" y2="158.22222222222223" fill="rgb(0, 0, 0)" stroke="rgb(153, 153, 153)" stroke-width="1.5px"></line></g></g><g><g><line x1="20" y1="0" x2="20" y2="178" fill="rgb(0, 0, 0)" stroke="rgb(153, 153, 153)" stroke-width="1.5px"></line></g></g><g><g><g><g><g><path stroke="rgb(187, 187, 187)" stroke-width="2px" d="M20.279999999999998,127.56289411915674L20.8,134.92247559855815L21.04,134.5875315333957L21.68,133.66599773708018L21.759999999999998,134.54585692023426L21.88,133.53061684452584L22.2,133.43246819061116L22.32,133.19404013329537L22.919999999999998,134.0681489803212L23.04,134.68302194737282L23.84,133.94323775104726L24.16,132.219163729764L24.28,132.397578673721L24.32,132.42236441625812L25.12,132.52304708382528L25.64,133.541346707721L26.08,133.1296949310268L26.28,133.36877237610446L26.400000000000002,133.24721846291416L26.76,133.39040227878723L27.2,132.95845438405894L27.4,133.2834139335742L27.48,133.32310052733817L27.52,133.0025066325646L27.68,133.08966210719012L20.080000000000002,140.4676082937202L20.4,138.90376907089043L20.439999999999998,136.32227570369946L20.64,136.38014272486666L21.080000000000002,136.79887332500564L21.319999999999997,138.21041591661873L21.52,136.55905447713482L22.12,135.01562178058822L22.360000000000003,134.44698663766312L22.56,135.22761083902526L22.84,134.96534660494484L23,134.2507222835444L23.080000000000002,133.9337236500216L23.84,133.29478122959847L24.04,133.42265044034764L24.28,133.28458724961746L24.48,133.2349867725823L24.560000000000002,133.08537740827427L24.88,132.7732634502688L24.919999999999998,132.9751695389754L25.36,133.22242351484195L25.72,133.41259342197154L26.04,133.31538903457624L26.68,134.89610954254115L26.840000000000003,135.20265792089526L27.24,134.98127071544212L29.000000000000004,134.93543311186494L29.04,134.5061056114442L29.72,132.89707294595547L29.8,132.38497800192684L29.84,132.23007917999956L29.96,132.09374780269738L30.2,132.90623172061456L30.56,134.36663736510354L30.68,134.25237712195675L30.72,133.81043659167256L31.12,134.33933109583413L31.8,134.65318581747985L31.88,134.63576084222473L32.64,134.4341848890063L32.72,134.37040098824912L32.839999999999996,133.89600494654263L33.16,133.2624850811884L33.4,132.81038243345438L33.48,132.4662751490901L33.6,132.62764249677696L33.84,132.4706453454013L34.04,131.89369656916995L34.44,131.38002850832163L34.68,131.08946649383242L34.92,130.76569245136355L35.08,130.60805267532442L35.32,131.26154101332668L35.4,131.58591555729032L35.52,130.79344667784102L35.6,130.23790342721256L35.64,130.04939103406016L35.84,130.38450627627583L35.88,130.34034942262298L36.239999999999995,130.92352697276309L36.96,131.04929228057603L37.04,131.23004969679957L37.52,131.06377680289245L37.800000000000004,131.26010043457956L37.84,131.22161580850658L37.92,131.9366394579984L38.040000000000006,132.7663294598321L38.120000000000005,132.6667015323693L38.599999999999994,132.70713007023878L38.72,132.6037814239598L38.879999999999995,133.48178721944032L39,133.587655323546L39.12,132.7254202108747L39.28,131.57854264601863L39.32,130.25629163874106L39.48,129.722992420159L39.68,129.04109970726878L40.72,128.5628006073728L40.879999999999995,129.97810492507287L41.04,129.77972339078065L41.08,129.6922423759802L41.36,129.87639040742073L41.72,129.78415901916998L41.88,130.0512350134935L42.04,130.2100259044291L42.24,129.5909066081198L42.400000000000006,128.95010172914812L42.76,129.0761412054043L42.919999999999995,129.04961050487708L42.96,129.1724492637566L43,129.3744080128902L43.08,129.6786362549286L43.12,129.7602750545588L43.36,128.96054566219277L43.56,128.85083100267389L43.64,129.33819171932785L43.84,129.34456235450037L43.88,129.15528395221025L43.92,129.0964476526129L44.08,128.56431267331675L44.24,128.647901531552L44.440000000000005,128.471368258095L44.480000000000004,128.44546221832798L44.52,128.15547888731078L45.44,127.84094720780125L45.6,127.41540710328002L45.68,127.40349925619371L45.88,127.05545076067213L46.92,126.83897653259848L47.12,126.20438774949329L47.199999999999996,125.45967940340151L47.44,125.14494529085391L47.76,124.59624765471001L48,124.85003805113635L48.16,125.84245608317119L48.44,126.1661006472035L48.52,126.62174148086666L48.760000000000005,125.9392580738567L48.84,124.96538432854537L49.4,123.73809191477125L49.44,123.14738465266367L49.839999999999996,122.83594161413697L49.96,122.3914932887173L50.32,121.94613028325301L50.480000000000004,122.97067578505829L50.6,123.48560734199009L50.64,124.15187162474324L51,125.74815386078001L51.04,126.70242718774273L51.2,127.6974023791853L51.28,127.54330495539449L51.31999999999999,127.79797396081068L51.519999999999996,127.67022164151894L52,126.04078364773926L52.16,126.31050005266965L52.24,124.96825338535444L52.36,124.37401227316411L52.72,123.46852179416416L52.84,124.24722280469356L53.160000000000004,124.68563108386459L53.63999999999999,123.76317157909119L53.919999999999995,122.11021754870049L54.44,122.01973376600588L54.68,122.11461480301168L54.8,121.19018099885467L54.88,120.31224718389518L55.04,119.49458152641795L55.2,119.75101647002367L55.28,120.17525970758842L55.480000000000004,121.04811171694936L55.52,122.12345916577219L55.879999999999995,121.59172857891284L56.12,121.60033480677549L56.28,122.47696374658337L56.32,123.03454753211443L56.72,122.54394021674489L56.92,123.47233585848466L57.480000000000004,124.24644687907016L58.36,122.0232646213684L58.4,120.5780257550348L58.559999999999995,120.6794502964947L58.6,119.70510873293088L58.64,119.16775096595597L59.36,119.13902512649443L59.84,118.75981546002714L59.88,119.45240819607533L60.120000000000005,118.72934830073017L60.199999999999996,119.2710374197571L60.4,118.5214961332897L61.44,118.70266313928067L61.52,118.1042116533078L61.92,118.28069959978653L62.36000000000001,117.06711029974895L62.48,117.33271167344753L62.599999999999994,115.0292844764638L63.4,117.09090565538776L63.64,118.9512588462476L63.92,119.55612475612578L64.16,118.67272889179205L64.56,118.01525783986443L64.8,117.3127147656552L64.92,116.88426336970589L65.24000000000001,116.97018309104949L65.36,116.12256509278366L65.48,115.78476984823493L65.60000000000001,115.18109797102794L65.64,114.78160694591327L66.36,114.85320813718477L66.96,115.19165758298709L67.56,115.21414740464704L67.68,114.64735224051621L67.72,114.69078415142846L67.8,114.17264883343127L67.84,114.02825402739242L68.72,115.49218530074005L68.92,116.55712240256166L69.04,116.42036792452478L69.2,115.32129426675993L69.28,114.64183004242811L69.44,115.36928582870027L69.60000000000001,115.73543894325576L69.76,115.89724294140335L70.76,116.94435422281335L70.8,118.62163191962696L71.24000000000001,117.89100392615228L71.56,118.00756384057699L71.60000000000001,118.42397710557347L71.72,118.53746657580942L71.80000000000001,118.4676454020911L72.19999999999999,118.7938410327784L72.47999999999999,118.02801782379694L73.08,116.43940295788343L73.11999999999999,114.91031224997086L73.24,114.68883642336313L74.2,113.35354363877545L74.24,112.19933110152124L74.32,110.89225289718816L74.6,110.87461028624567L74.88,110.66218753646838L74.92,110.17138568430885L75.28,111.34882949539207L75.52000000000001,110.99629445344989L75.68,112.24128372534413L76.04,113.5409174556175L76.32000000000001,114.61665791410142L76.35999999999999,114.76669308580226L76.55999999999999,115.34220886918789L76.88,114.8879698908958L77.24,115.74005500824279L77.28,115.37282347641411L77.44,115.99600298240789L77.64,117.26039086622804L77.75999999999999,117.21978875821569L77.84,117.44507406157686L77.96,116.39696530539642L78.08,116.58505765473383L78.24,115.25155665723938L78.56,116.3911658868802L78.88,114.79971954768067L79.04,114.97959626448124L79.16,113.83973955608758L79.44,113.12166916561308L79.8,111.08754347805497L79.96000000000001,112.13794203770766L80,112.4837190674961L80.04,113.58641362258244L80.12,113.54211576259114L80.24000000000001,112.36496836827398L80.52000000000001,110.21770921827127L80.88000000000001,111.36308079162424L81.27999999999999,113.0102452148109L81.44,114.88646903846413L81.52,115.83841573935914L81.64,116.08455889566775L81.83999999999999,115.76777503554094L81.96,114.60895083603643L82,114.78789491082247L82.03999999999999,114.31213657654706L82.24,114.08100301557948L82.8,111.88243116047768L83.16,111.38675914744731L83.4,112.17348983840685L83.68,111.42601254520739L83.72,111.6060844095117L84.08,110.95349737603124L84.36,111.08711482222506L84.84,111.42086224446194L85.19999999999999,111.14175767431217L85.36000000000001,112.06966183758293L85.75999999999999,111.30707112740778L85.92,111.76841937100868L86.11999999999999,110.79059665907718L86.28,110.4403131711247L86.8,110.44853133819527L86.92,110.11658453075464L87.16,110.74807589237204L87.2,110.4866951789183L87.24,109.97505876951136L88.60000000000001,108.03908941847965L88.84,107.11862387744152L89.12,107.64582020450054L89.36,109.65746390159704L89.52000000000001,110.3617791306859L89.60000000000001,111.61731599393998L89.68,111.25527762771762L89.91999999999999,109.61363927355305L90.03999999999999,109.01619598330373L90.11999999999999,109.19859625463883L90.24,107.9778730168785L90.36,107.57238284348335L90.84,106.99024763984919L90.92,105.75494798404888L91.39999999999999,105.56034731414475L91.44,105.03135516597337L91.48,104.1769687898381L92.04,103.60031463788994L92.2,104.58133523325354L92.36,106.89872046750774L92.52,106.85166842653382L92.68,107.76704690896244L92.84,108.0708246330882L93.16000000000001,108.04699391605354L93.24000000000001,109.86981783875711L93.36,112.88262369329814L93.48,115.16699102047983L93.60000000000001,117.14314604199322L93.80000000000001,118.13034214292253L94.55999999999999,116.98916915494203L95.03999999999999,114.81397531993396L95.08,112.82560214163233L95.2,112.73577550555268L95.24,112.76919969638469L95.32,111.91275818561252L95.39999999999999,110.53594777980825L95.56,108.61432919033648L95.72,108.84158557198695L95.92,108.3305930376532L96,107.97660843189628L96.28,108.04908129518958L96.6,108.02585036301473L96.76,108.53973272050841L97.04,105.27814318221654L97.08,103.23179573568228L97.80000000000001,103.49136467725855L97.92,101.8068015912112L97.96000000000001,101.70758934335815L98.12,101.93323228929141L98.2,101.25959370535826L98.4,103.62296031298287L98.75999999999999,104.44650762301038L98.91999999999999,104.16147388144634L99,103.6447723339045L99.08,104.52062948412869L99.24,104.31407392562677L99.64,105.56146663900081L99.72,106.06016196026866L99.8,106.20582729945525L99.84,106.20407186487458L100,105.89591800074331L100.12,104.91110309170728L100.44,102.87317308346088L100.6,102.65355120860866L101.16,101.60253913029257L101.32000000000001,102.21861547803373L101.4,103.20904515314629L101.60000000000001,103.0098110115337L101.64,102.53303430324411L101.72,101.63296815072646L101.84,100.2431289892363L101.92,101.12009147639631L102,101.88979623996104L102.04,102.16013123567473L102.32000000000001,101.97046966486621L102.44000000000001,103.12722942764366L102.63999999999999,103.98549155389121L103.39999999999999,102.90983536419066L103.8,101.13613754562546L104.03999999999999,98.17335198092198L104.28,96.97838657442695L104.44,97.9024919137553L104.48,97.54909808235867L104.92,96.94315907866603L104.96,97.86509917644582L105.04,97.99358022062165L105.56,100.14395110772799L105.96000000000001,100.27992798742605L106.32000000000001,99.46210899132704L107,99.9916767439282L107.72,99.90807288028718L107.75999999999999,100.42859212408722L107.83999999999999,100.43883790459942L108.16,101.82145784535098L108.24,102.56646836794411L108.39999999999999,101.95797792433163L108.8,99.69088895541087L109.12,99.5352877782155L109.16,100.8450148767201L109.6,101.23151096584711L109.92,100.99066302939603L110.16,101.39639771153387L110.2,101.48125536268772L110.28,102.43118783814131L110.36,101.15159119510699L110.56,101.37716994717393L111.55999999999999,99.96776721469168L111.6,98.72795141839553L112,98.64259907696834L112.08,98.46338550300413L112.24,99.48198720869536L112.28,100.0540587395024L112.84,98.0311319610161L113.08,97.00798290186775L113.28,96.23210694706543L113.36,97.47319596277607L113.44,96.67236826369465L113.52,96.36906425870671L114.04,98.27384317218089L114.2,99.63523742301763L114.28,100.67420900831489L114.4,98.52101893759L114.76,98.42978594414795L114.8,96.7881909802241L115.2,94.87752854757382L115.28,92.93222473949373L115.76,92.50696244886765L115.80000000000001,92.4610124734335L115.84,92.58437692971795L116.00000000000001,93.49678177025238L116.16,94.62737043804601L116.39999999999999,94.195457894853L117.08,95.04823516758303L117.2,95.0921206543357L117.32,96.167754350527L117.36,95.84821860273486L117.67999999999999,94.37623104724275L117.92,94.20228441885845L118.16,94.47906812043989L118.36,94.02650659620245L119.12,93.13763111404408L119.28,94.87937483014579L119.36,95.1344543675587L119.56,94.3109819575227L119.76,92.44348089792791L120.27999999999999,94.23994363452073L120.55999999999999,95.53491241766805L121.16,94.81899406692109L121.64,93.43028383403276L121.75999999999999,94.13698582912207L122,94.19297090642307L122.32,94.92941966745055L122.36,94.815898338518L122.4,95.16210564538518L122.44,94.58799539401593L122.8,92.461311317799L123.72,95.0880207097684L123.76,96.49440381283672L123.8,96.46450804497368L124.08,95.3589027058846L124.52000000000001,92.29874511987207L124.60000000000001,91.84168952869084L125.08,91.11744487487465L125.11999999999999,92.42568758677032L125.24,92.43964587412957L125.32,91.90326070609179L125.36,91.65616236371541L125.44,92.25692566430465L126.2,92.91279362700426L126.52,93.21421060911469L127,89.57181018972278L127.04,86.739036558176L127.36,86.85922924694023L127.4,86.12190173381907L127.64,87.179335291841L127.76,87.10743202762653L128,87.79868710251688L128.07999999999998,87.40060327246553L128.16,86.41292194808331L128.84,87.94089612076117L128.92,87.59407501487576L128.96,87.05575255259309L129,86.52430380455515L129.44,86.8622337925941L129.84,85.75176499817657L130.16,86.50154808001994L130.84,86.3609310994641L131.12,85.14529930781886L131.16,83.8513680471705L131.28,84.29304006206641L131.92,87.27545951830942L132.07999999999998,86.29182589670879L132.28,84.75435939167734L132.35999999999999,84.06374635406114L132.44,86.00977523716105L132.52,86.61881253662739L132.6,86.55914595874127L132.76,86.9951668187613L132.8,86.08028956477716L133.24,86.4351660087648L133.36,84.83284963176214L133.68,84.73383259549207L133.8,86.44130280978969L133.84,86.9592289374333L134.16,86.19652323734391L134.76,83.04515624755267L134.84,80.76660140085819L134.92000000000002,82.39213843797563L135,81.99179276397177L135.44,83.82504185689153L135.6,85.3877558688847L136.12,90.03701871331553L137.04,94.21385259973295L137.64,93.41641631291269L137.68,93.31540994746082L137.92,92.84349599239214L137.96,92.01458087223371L138.04,93.40285212945626L138.16,96.32423735419414L138.36,98.95413911792805L138.52,98.9056488012174L138.6,100.3921923785649L139.24,96.39105264971434L139.68,96.01839878396544L139.95999999999998,95.0129106523585L140,92.75450341979803L140.28,89.47925989317491L140.4,86.06457738102581L141.36,87.50852442425969L141.48000000000002,85.89505513039164L141.76000000000002,83.3666598798561L141.88,81.11452297445236L141.92000000000002,81.94318643431606L142,81.00976786238475L142.04000000000002,81.06724082066248L142.32000000000002,79.92157023092858L142.84,80.3596371841903L143.04000000000002,80.80694100896177L143.4,80.52929947892997L143.48000000000002,79.96868979411192L143.56,79.9221592625852L143.84,78.73592013145013L144.36,77.93597353050387L144.44000000000003,79.41528461552528L144.67999999999998,78.22939870014643L145,78.70354889626412L145.23999999999998,77.32115829647933L145.28,79.01350441385662L145.48,75.78025681127009L145.67999999999998,75.41463763510546L145.95999999999998,74.63503377280742L146.44,75.47217522078125L146.6,75.12452477212413L147.12,76.38252227589123L147.2,76.13735418847925L147.28,78.24681569988529L147.4,78.71330195617345L147.6,78.59757134752692L148.28,77.87467006482736L148.48,76.90181819801701L149.2,77.62607470761229L149.36,76.3745991816521L149.48,76.84020344893197L149.68,75.19321091224495L149.96,74.89086367403725L150.12,75.23747406822383L150.20000000000002,74.39343091581466L150.44,74.36294866844092L150.48000000000002,74.260286243787L150.72,73.85518655714233L151,72.90567253862604L151.24,72.69991772884201L151.36,71.99481266011729L151.60000000000002,72.68737500778008L152.04000000000002,73.71959348880323L152.12,74.23522437484591L152.52,75.63995617469445L152.64000000000001,77.45928601172076L152.71999999999997,79.07422795039489L152.92000000000002,82.52147481569826L153.55999999999997,83.07911747165467L153.64,81.03500202479492L153.88,80.92489733872198L154.04,81.01129994862983L154.11999999999998,80.59686653722578L154.67999999999998,79.82410092772179L155.16,78.60463500687777L155.35999999999999,79.59370199073328L155.84,75.59861641397393L155.88,72.16285406447193L156.12,69.64287920598855L156.16,68.30727375675217L156.72,65.98792836974083L156.88,65.40705264926562L156.96,64.10160734535663L157.04,66.14203090577641L157.16,65.62514665198101L157.28,67.08471617034988L157.96,69.0412455085839L158.4,71.06857767307943L158.44,74.09295488382452L158.68,73.40719379050567L158.96,74.59889109117063L159.92000000000002,74.41863566621033L160.16,74.18822157745855L160.24,72.05256306539223L161.08,71.04824277967133L161.20000000000002,68.26898315325492L161.36,65.32843600752183L161.4,62.73208775882566L161.44000000000003,61.02792205316197L161.68,61.08856336306046L161.8,64.01893500247606L161.88000000000002,66.03583503697178L162.23999999999998,70.15493936510015L162.51999999999998,73.28441954373929L162.72,73.79447824678472L163.04,71.77703114944221L163.2,72.2994301152917L163.35999999999999,70.42734957017177L163.88,67.92706921179749L163.95999999999998,64.76298310815785L164.07999999999998,66.0974030514452L164.56,64.66830537113813L164.72,65.10007220207326L164.92,66.47183365065132L165,67.06049682772536L165.4,69.7900353678622L165.48,73.36596672630296L165.56,74.08377862945726L166.08,80.22678124415631L166.72,76.61198948332998L166.92000000000002,75.23405468945353L167.20000000000002,72.44352599364454L168.20000000000002,68.605962868233L168.24,68.78424250703465L168.28,68.411400263589L168.56,67.15751203573979L168.96,63.70671138395784L169.28,63.419429752531045L169.56,63.90388275959167L169.72,66.41457604413303L170.16000000000003,63.43433857634081L170.39999999999998,61.79871675463676L170.64,60.53244602435578L170.76,61.781725706338065L171.35999999999999,66.923936257587L171.51999999999998,68.68011298288407L171.95999999999998,77.25479182093096L172.16,82.75680768659869L172.35999999999999,84.15828116121526L172.51999999999998,84.61855453336949L172.56,83.57386611280285L173,82.12430153753837L173.04,81.38433806781588L173.48,77.19811981394407L173.56,76.57875652421802L173.6,76.28034724006743L173.88,76.18198118648566L174,73.47909409771965L174.04,71.67081408319228L174.07999999999998,69.25975934372293L174.32,67.44852321290443L175.2,63.68014021901075L175.88,65.36135677570425L176.08,67.61731866608365L176.12,67.98741377871453L176.20000000000002,66.35429590704837L176.52,66.01338348886263L177,63.547326791626105L178.84,58.869471989039255L179.39999999999998,56.53957461641568L179.44000000000003,58.251113557619945L179.88,59.16640876220596L179.92,59.204860370252135L180,60.98102094014159L180.07999999999998,64.08937020748094L180.2,64.47410469517581L180.23999999999998,64.84552865875155L180.32,67.49245825171576L181.23999999999998,67.55637415023195L181.44,68.88631869409159L181.56,67.80689779717828L181.68,69.61014180652475L181.88,64.69220288424259L182.32,63.81117821874747L182.68,60.15814566688866L182.79999999999998,60.57980237244287L182.84,60.76923318225997L183.2,60.91650732804915L183.44,62.49474012417353L184.08,63.14806434762076L184.32,63.81609864355205L184.48,64.20077868785823L184.84,62.786416058000654L184.92000000000002,60.69976625557601L185.28,57.96355139191597L185.44,57.24092317544584L185.68,57.81337104025613L185.88,58.219839488760215L186.12,56.036302219234386L186.48000000000002,57.1835403687564L186.76000000000002,59.55028811872279L186.92000000000002,60.61759823350553L187.28,60.43933286616074L187.88000000000002,58.25086442574539L188.16000000000003,58.018355877216024L188.27999999999997,55.64232271990767L188.35999999999999,53.126253825116464L188.39999999999998,55.09509419884134L188.55999999999997,54.3409796188906L188.6,53.50505297194776L189.11999999999998,52.43192535541951L189.35999999999999,51.35327768574746L189.39999999999998,51.16958823605496L189.48,50.862673479096415L189.72,54.33104939905934L189.84,58.57964738140622L190.92,60.15827618255018L191.16,56.63367210306589L191.32,55.3197794549701L191.44,53.46627739433403L191.76,54.48386623196879L191.84,52.723410712822016L192.52,56.439697064999635L192.56,57.81698349336254L193.32,61.40588527776529L193.36,63.09952312080095L193.48,65.3771206572349L193.76,63.69092977900122L193.84,61.35120788436839L194.16,57.59907684750483L194.24,53.8154809257875L194.28,54.5816207005052L194.8,51.85134267578232L194.88,52.80365289466111L195.28,50.24778767410149L195.4,50.89352590263107L195.84,48.55690660132103L195.96,49.30766305166253L196.04000000000002,48.70370561368529L196.12,46.78891912530759L196.60000000000002,49.491432002307164L197.28000000000003,49.32489648893986L197.88,47.84403919281226L198.11999999999998,48.71457523629732L198.39999999999998,47.54390341186681L198.72,47.22639284492675L198.88,47.93219408565554L199.16,49.14205316758759L199.2,48.761492675138186L199.23999999999998,47.86431610448912L199.64,52.0541635397453L200.48,49.13542113010999L200.68,44.26866359887816L200.88,41.55691332282635L201.12,41.51821800552247L201.52,40.25633698281209L201.72,40.84679746468393L201.96,41.089628569722464L202.12,43.058181456059486L202.16,42.79496459070057L202.48000000000002,43.05974440669715L202.6,41.451133481310706L202.64000000000001,39.70880046425529L202.72,40.211970304434914L202.84,40.159607395028985L202.88,39.770742728678016L202.92000000000002,38.77567217043807L203.20000000000002,37.82376182564866L203.32,39.782399445101674L203.36,40.80215479363616L203.4,40.509155328088184L203.44,39.37087967293118L203.52,42.19529424295308L203.64000000000001,47.54740897426561L203.68,51.35345409904009L203.92000000000002,51.80824422252293L204.16,53.91303406534344L204.24,53.68577935588364L204.36,59.30450494038979L205.16000000000003,52.53304492802641L205.24,52.70206030378348L205.48000000000002,52.84070657066833L205.76,52.04134321943219L206.23999999999998,50.355741647926536L206.76,50.76009201571047L207,51.521113899927755L207.07999999999998,52.34447785057944L207.72,59.74781507454257L207.84,62.91054047465134L207.92,63.1439036436436L207.95999999999998,63.24759512180833L208.72,59.91287332482453L209.07999999999998,52.531061358673625L209.68,54.142976324178804L209.8,51.91839048253871L210.32,48.90242307170698L210.64000000000001,48.00372242793168L210.96,44.92734377186554L211,42.06186258910557L211.12,42.75687751555907L211.20000000000002,42.41926470328559L211.24,41.18396233232369L211.8,37.81906638614302L212.12,35.70913234782387L212.72,36.818251116523214L213,35.30800161073816L213.24,35.93065832750264L213.36,38.83860368809209L213.64000000000001,40.57122146517827L214.16000000000003,42.25380326481712L214.24,40.98263960448426L214.27999999999997,40.26269712710345L214.55999999999997,39.36709871093086L215.28,44.9889838163692L215.92,43.72731934060684L216.2,44.96553598045273L216.4,45.30905654215104L216.44,44.515837283957524L216.68,44.745084144672205L217.04,45.72668691851126L217.2,43.95961140732439L217.28,44.55357102988009L217.51999999999998,44.46222756586582L217.64,41.74012766821275L218.56,45.02522018414416L218.76,49.533252215718164L219.28,55.34406137009793L219.44,55.132516782299945L220.16,50.45218529672279L220.48000000000002,43.95495829670671L220.64000000000001,42.286404333633925L221.4,37.977705850656605L221.52,37.90559520997533L221.56,36.692431250920094L221.64000000000001,34.61127777991638L221.72,37.21926363752635L221.76000000000002,38.350228790899905L221.92000000000002,35.375297118881406L221.96,33.21243011784978L222.4,36.26188743213416L222.64000000000001,39.625801297340644L222.8,40.178518822039024L223.72,40.014461315601295L224.23999999999998,41.783204750346044L224.56,43.77337400113251L224.88,41.95821982920867L225.32,38.2622482566569L225.35999999999999,40.12989331987069L225.96,40.568156037190136L226.07999999999998,38.34729570207796L226.52,43.172865824984285L226.56,47.65284867346128L226.68,50.6755614334366L227.36,53.38952491371387L227.52,50.3150430937075L227.68,49.4539870327836L228.04,45.28776179938015L228.24,43.14199761565297L228.32,39.70657387312741L228.4,35.45002186850806L228.76,37.882986290227535L228.96,34.25972911745083L229.16,30.450430581068474L229.72,32.11485193924756L229.76000000000002,32.63108866812183L229.84,36.4236760134803L230.04000000000002,35.800763133129436L230.4,37.969814829274696L230.64000000000001,34.29354416276527L231.16000000000003,32.70349987300622L231.52,35.33376996861239L231.76000000000002,35.48034969599547L231.8,39.607389959968714L231.95999999999998,37.46925258629716L232.2,40.105094768535025L232.44,42.11369325208429L232.64,42.07311857868777L232.76,39.61816203057475L232.83999999999997,35.89503550275893L233.28,32.96730918948816L233.44,28.785840755695176L233.79999999999998,31.884009181685883L233.95999999999998,35.142462532247606L234.12,40.1198331802627L234.32,44.179560839161326L234.51999999999998,42.40010172593523L234.79999999999998,39.1189069774434L235,38.5824183025716L235.07999999999998,38.342910704277585L235.16,41.78770408284129L235.2,43.448639953040384L235.56,45.03805932813728L235.6,46.708700781009185L235.64,48.12137897970803L235.88,46.37942495897002L236.36,42.25237520257011L236.56,39.411092510950255L236.88,40.38750950868433L236.96,39.46454487328339L237.36,34.11681715472582L237.44,33.550660314504086L238.04,36.3790888357959L238.48000000000002,32.52843046163488L238.56,31.911140921729185L238.72,28.698992438038033L238.8,30.297616964708823L239.20000000000002,30.05378184589381L239.32000000000002,28.037841010292198L239.64000000000001,36.80046451257516L240.16000000000003,31.943485899090263L240.67999999999998,28.53496899704274L240.95999999999998,25.421034126218018L241.07999999999998,26.635011428020874L241.23999999999998,25.041072925947304L241.79999999999998,22.929399203959576L242.23999999999998,25.469555250821458L242.51999999999998,26.476670358790813L242.79999999999998,28.57096491167468L243.2,29.63458737561737L243.32,32.92469869999945L243.48,33.32987713177806L243.51999999999998,34.07137575510964L243.72,34.77970554908643L243.96,40.98325130707724L244.04,43.68436775702364L244.44,53.71253380205032L244.48,61.17828036800098L245.16,68.48466049045831L245.28,73.75496908933998L245.56,72.9902596703331L245.96,62.66680596161018L246.04,54.18039089066755L246.52,42.49586289394341L246.64000000000001,38.72874982715555L246.72,34.726997901954036L247,31.72501261594931L247.4,27.610791553203683L247.72,24.65318199907108L247.8,26.3205436686971L247.88,26.404359633847662L248,24.156337373703025L248.08,25.751353882201187L248.44,24.82507777563555L248.84,21.826146678797272L248.88000000000002,24.471255532933526L249.20000000000002,25.46094199646518L249.27999999999997,24.623583159750098L249.44000000000003,26.25265681323779L249.48000000000002,25.617137915499057L250.23999999999998,22.627889210763442L250.44,21.815169139540586L250.51999999999998,20.404949778931098L250.56,23.99442798227028L250.67999999999998,23.152475387674883L251.04,23.140028177025243L251.76,23.286524759320542L252.16,23.063552208123326L252.56,25.31496051507824L252.76,23.724360081968086L252.92,29.000650756636304L252.96,32.020253486866665L253.12,36.474960598719065L253.35999999999999,38.969206234816795L253.4,41.01895343794314L253.44,43.091707538938664L253.56,41.094653687782426L253.68,41.78425549667571L254.24,39.76502193770011L254.44,33.82889242124455L254.56,31.583292848066804L255.24,24.688576641672483L255.28,19.79874492545099L255.44,19.09086662922232L255.64000000000001,20.380962347104315L255.92000000000002,20.368553477780154L256.28,20.39186587175419L256.36,20.354831693622316L256.76,22.1928533048235L257,23.37912567754819L257.08,23.780370005002084L257.32,26.226220392693733L257.4,28.270789623611364L257.48,27.943753463619316L257.76,28.36298779247437L257.96,31.141765553782705L258.04,31.821415643661453L258.12,35.964172246448754L258.16,37.30397591334969L258.44,37.7455970405106L258.76,36.01298157967983L259.04,32.73348715513745L259.2,27.370174941187827L259.4,28.065348047314444L259.52,30.5338651341861L260,28.583682367940156" style="fill: none;" fill="none"></path></g></g></g></g><g opacity="0.2"><g><g><g><path stroke="rgb(187, 187, 187)" stroke-width="2px" d="M20.279999999999998,127.56289411915674L20.8,139.50749486022525L21.04,134.248859875732L21.68,132.51137729485828L21.759999999999998,135.7808074620035L21.88,132.0103671418296L22.2,133.27975888384714L22.32,132.8143852882915L22.919999999999998,135.47985066307916L23.04,135.6847461329566L23.84,132.73149757915073L24.16,129.38573114739523L24.28,132.69140497843426L24.32,132.4632361133893L25.12,132.68920642799802L25.64,135.2227160433928L26.08,132.44978251722125L26.28,133.7637258503172L26.400000000000002,133.04638835456637L26.76,133.62698691752223L27.2,132.2447072731124L27.4,133.82039009862476L27.48,133.38868143823413L27.52,132.47272878222995L27.68,133.23368657959833L20.080000000000002,152.65972236957816L20.4,136.31950536701413L20.439999999999998,132.05631861421796L20.64,136.47576896018452L21.080000000000002,137.49083321293196L21.319999999999997,140.54301653636827L21.52,133.83014800813464L22.12,132.4650692211257L22.360000000000003,133.50730590687857L22.56,136.51760772864023L22.84,134.53194976846376L23,133.0697914229499L23.080000000000002,133.40987711482578L23.84,132.2389161851671L24.04,133.6339568528864L24.28,133.05643508169385L24.48,133.15302099784213L24.560000000000002,132.83814495801926L24.88,132.2574889262517L24.919999999999998,133.30882336695987L25.36,133.63101562857628L25.72,133.72685297661357L26.04,133.15475685066647L26.68,137.5082816282908L26.840000000000003,135.7092352145248L27.24,134.61542395419545L29.000000000000004,134.8596855600675L29.04,133.79663337601556L29.72,130.23811445633572L29.8,131.53873091936111L29.84,131.9741057952245L29.96,131.8684574895435L30.2,134.24887755844327L30.56,136.77998674578137L30.68,134.06355979707507L30.72,133.08012107345792L31.12,135.2133397857348L31.8,135.17183698879347L31.88,134.6069657239649L32.64,134.10107661618127L32.72,134.26499682333736L32.839999999999996,133.11205605003568L33.16,132.21558090051013L33.4,132.06327381398944L33.48,131.8976310160425L33.6,132.8943052490552L33.84,132.2112044294675L34.04,130.94027723868686L34.44,130.53118181890912L34.68,130.60930698447757L34.92,130.23064940505557L35.08,130.3475498093499L35.32,132.3414434923066L35.4,132.1219509442647L35.52,129.48387608925503L35.6,129.3198571536276L35.64,129.7378705541293L35.84,130.93829088078604L35.88,130.26737934350967L36.239999999999995,131.88723947604495L36.96,131.2571219536993L37.04,131.52875492307874L37.52,130.78900753789478L37.800000000000004,131.58452914158505L37.84,131.1580191983117L37.92,133.11823026339215L38.040000000000006,134.1374086936315L38.120000000000005,132.50206440024905L38.599999999999994,132.77393903334934L38.72,132.43299572997623L38.879999999999995,134.9327092634307L39,133.76260447171L39.12,131.30055953396692L39.28,129.68330465422736L39.32,128.07124554448657L39.48,128.8417048520512L39.68,127.91425843371286L40.72,127.77240182956061L40.879999999999995,132.31692346599368L41.04,129.4518939587805L41.08,129.54767825868396L41.36,130.18069869279861L41.72,129.63174481524362L41.88,130.49258340729608L42.04,130.47243101067014L42.24,128.56779965427188L42.400000000000006,127.89115891853969L42.76,129.2844239473343L42.919999999999995,129.00576799445682L42.96,129.37544275654687L43,129.7081488635805L43.08,130.18137947718304L43.12,129.89518479506177L43.36,127.63897693157196L43.56,128.6695253451665L43.64,130.14356499910355L43.84,129.3550899558597L43.88,128.84249762694043L43.92,128.99921949704486L44.08,127.68494903379016L44.24,128.78603378269406L44.440000000000005,128.17964351177216L44.480000000000004,128.40265197224088L44.52,127.67627566390567L45.44,127.32117735015022L45.6,126.71219361490674L45.68,127.38382130199008L45.88,126.48029369778104L46.92,126.48124856419034L47.12,125.15571716096667L47.199999999999996,124.22903404633205L47.44,124.62484090858035L47.76,123.68951389524673L48,125.26943173011145L48.16,127.48244662417306L48.44,126.70092972781924L48.52,127.37469702296787L48.760000000000005,124.81144066651663L48.84,123.35603859027228L49.4,121.70996678537793L49.44,122.17122915056018L49.839999999999996,122.32127579715518L49.96,121.65703358915118L50.32,121.21015905671649L50.480000000000004,124.6637576089965L50.6,124.33654198381637L50.64,125.25288660658731L51,128.3860420121087L51.04,128.279382844766L51.2,129.34161867698032L51.28,127.28865589698157L51.31999999999999,128.21881955862045L51.519999999999996,127.45910839239757L52,123.34810494714313L52.16,126.75621177752814L52.24,122.75016406509613L52.36,123.39201701349683L52.72,121.97218076388042L52.84,125.53404171599283L53.160000000000004,125.41010948684482L53.63999999999999,122.23878889613681L53.919999999999995,119.37867812977898L54.44,121.8702075150278L54.68,122.27140760421753L54.8,119.6625357468923L54.88,118.8614440891478L55.04,118.14337276087868L55.2,120.17478031582303L55.28,120.87633009751639L55.480000000000004,122.49051702684827L55.52,123.90049221780566L55.879999999999995,120.71303320593304L56.12,121.61455676952998L56.28,123.92561050918368L56.32,123.95596583022012L56.72,121.73320186800427L56.92,125.00652812586891L57.480000000000004,125.52568074067435L58.36,118.34941171275246L58.4,118.18973977698221L58.559999999999995,120.84705636898677L58.6,118.09498991568884L58.64,118.27975656588873L59.36,119.09155510531532L59.84,118.13316394223108L59.88,120.59693147076501L60.120000000000005,117.53447743919162L60.199999999999996,120.16618946525787L60.4,117.28286424610351L61.44,119.00204522079892L61.52,117.11525866720413L61.92,118.57234944237604L62.36000000000001,115.06162983841367L62.48,117.77162322733139L62.599999999999994,111.22282520929973L63.4,120.49777566724353L63.64,122.02552950382233L63.92,120.55567770534091L64.16,117.21289965179233L64.56,116.9287738468912L64.8,116.15174835920334L64.92,116.17623891433081L65.24000000000001,117.11216713984808L65.36,114.72185948822235L65.48,115.22655648655362L65.60000000000001,114.18351818455591L65.64,114.12144007947711L66.36,114.97153053018783L66.96,115.75095202525458L67.56,115.25131228235034L67.68,113.71071195602418L67.72,114.762556248241L67.8,113.31641991270914L67.84,113.78963873783748L68.72,117.91136085324817L68.92,118.31695214907329L69.04,116.19437842898898L69.2,113.50505318244299L69.28,113.51900189452702L69.44,116.57142098744711L69.60000000000001,116.34051424927182L69.76,116.16462726725473L70.76,118.67472644646963L70.8,121.39336668120491L71.24000000000001,116.6836266318957L71.56,118.20018141799503L71.60000000000001,119.11210831006369L71.72,118.72501018312244L71.80000000000001,118.35226452350616L72.19999999999999,119.33288580179214L72.47999999999999,116.76247973574533L73.08,113.81418528821733L73.11999999999999,112.38345943556892L73.24,114.3228432138761L74.2,111.14694574806425L74.24,110.29197192192079L74.32,108.73228016164568L74.6,110.84545552068288L74.88,110.31115471654469L74.92,109.36032585965263L75.28,113.29457881715562L75.52000000000001,110.41372328334386L75.68,114.29865326484045L76.04,115.6885880496767L76.32000000000001,116.3943404224184L76.35999999999999,115.01462919182248L76.55999999999999,116.29326015048557L76.88,114.13733094268375L77.24,117.14814261595409L77.28,114.76596606440015L77.44,117.02581951353287L77.64,119.34981699784598L77.75999999999999,117.152692966991L77.84,117.81736250718436L77.96,114.66494473483829L78.08,116.89588400390414L78.24,113.04791973034541L78.56,118.27439281013278L78.88,112.1698228120804L79.04,115.27684611744351L79.16,111.95610366927254L79.44,111.93504356013405L79.8,107.72611031267378L79.96000000000001,113.87374655405681L80,113.05512248807484L80.04,115.40863831175699L80.12,113.46891266769833L80.24000000000001,110.41970888111327L80.52000000000001,106.66932075553471L80.88000000000001,113.25583010249669L81.27999999999999,115.73221719264984L81.44,117.98696623245876L81.52,117.41152660051982L81.64,116.4913153582149L81.83999999999999,115.2442834046152L81.96,112.69397079282338L82,115.08360355430179L82.03999999999999,113.52593646446864L82.24,113.6990502079328L82.8,108.24924743175508L83.16,110.56765128506555L83.4,113.4735779563586L83.68,110.19079144795737L83.72,111.90365674760606L84.08,109.87508432070415L84.36,111.30792031023238L84.84,111.97238649924597L85.19999999999999,110.68053181966147L85.36000000000001,113.60304192701976L85.75999999999999,110.0468748079406L85.92,112.53080652157466L86.11999999999999,109.17472517490388L86.28,109.86146273877885L86.8,110.46211202277078L86.92,109.56803582774269L87.16,111.79162793027031L87.2,110.05475835005443L87.24,109.12956942452325L88.60000000000001,104.83986155192058L88.84,105.59753625922734L89.12,108.51702262295618L89.36,112.98174513048596L89.52000000000001,111.52567405833139L89.60000000000001,113.69211563799117L89.68,110.6570020251804L89.91999999999999,106.90079923470816L90.03999999999999,108.02890906069014L90.11999999999999,109.50001633167268L90.24,105.9606035815345L90.36,106.90230226516725L90.84,106.02825763490465L90.92,103.71359072791206L91.39999999999999,105.23876583576204L91.44,104.15718511740367L91.48,102.76507830619813L92.04,102.64738217989604L92.2,106.20249128341676L92.36,110.72824566894109L92.52,106.77391399277582L92.68,109.27972806162305L92.84,108.57282336552939L93.16000000000001,108.00761318206789L93.24000000000001,112.88207063410017L93.36,117.86134530438318L93.48,118.94195347362094L93.60000000000001,120.4087815284729L93.80000000000001,119.76170333888797L94.55999999999999,115.10335808992386L95.03999999999999,111.21942423449623L95.08,109.53977590799333L95.2,112.58733520242903L95.24,112.82443383667204L95.32,110.49747155110042L95.39999999999999,108.26074119408926L95.56,105.43881624274785L95.72,109.21713126367993L95.92,107.4861677090327L96,107.39164182874892L96.28,108.1688441435496L96.6,107.98746078544194L96.76,109.38893353939058L97.04,99.8883015844557L97.08,99.85016587045457L97.80000000000001,103.92030751705171L97.92,99.02302757898967L97.96000000000001,101.54363913006253L98.12,102.30611174636418L98.2,100.14639254411063L98.4,107.5284706486596L98.75999999999999,105.80743593639798L98.91999999999999,103.69044995307924L99,102.79091274738313L99.08,105.96800084908804L99.24,103.97273675600688L99.64,107.62280791335637L99.72,106.88426589965822L99.8,106.44654217031267L99.84,106.2011709743076L100,105.38668760988448L100.12,103.28367686271669L100.44,99.50545320245955L100.6,102.29062169127995L101.16,99.86572076214685L101.32000000000001,103.23669389883678L101.4,104.84574989477794L101.60000000000001,102.68057262897493L101.64,101.74515130784776L101.72,100.14559092786577L101.84,97.94639212555356L101.92,102.5692894326316L102,103.16174867418077L102.04,102.60686519410875L102.32000000000001,101.65705014599695L102.44000000000001,105.03879794809554L102.63999999999999,105.4037867916955L103.39999999999999,101.13229211171469L103.8,98.20506661468083L104.03999999999999,93.27728989389207L104.28,95.00368246767256L104.44,99.42959437105391L104.48,96.96510774559445L104.92,95.94183282057445L104.96,99.38862352901036L105.04,98.20589770211114L105.56,103.69748177793291L105.96000000000001,100.50463248623743L106.32000000000001,98.11064683066475L107,100.86679799026913L107.72,99.76991583241357L107.75999999999999,101.2887605296241L107.83999999999999,100.4557692607244L108.16,104.10626480314467L108.24,103.79761307769353L108.39999999999999,100.95243536101448L108.8,95.94447933302986L109.12,99.27815373738608L109.16,103.00936496257783L109.6,101.87020344204373L109.92,100.59265702300603L110.16,102.06688234541151L110.2,101.621484319369L110.28,104.00097015168932L110.36,99.0370322863261L110.56,101.74994332260556L111.55999999999999,97.63870116074881L111.6,96.67913115024568L112,98.50155263476903L112.08,98.16723150677151L112.24,101.16524679130978L112.28,100.99941832489438L112.84,94.68820521566603L113.08,95.31720872720084L113.28,94.94995649655661L113.36,99.52412025133769L113.44,95.34898455937704L113.52,95.86784835656485L114.04,101.42152822017671L114.2,101.88496850596535L114.28,102.3911302222146L114.4,94.9628295103709L114.76,98.27902160750496L114.8,94.07542264461519L115.2,91.72012086709341L115.28,89.71757149696352L115.76,91.80420805348291L115.80000000000001,92.38507922490439L115.84,92.78823914792802L116.00000000000001,95.00454892052545L116.16,96.49569070339204L116.39999999999999,93.48171382480199L117.08,96.45746657583449L117.2,95.16464229424795L117.32,97.94526043203142L117.36,95.32017942269644L117.67999999999999,91.94374232821995L117.92,93.91483415497675L118.16,94.9364586936103L118.36,93.27863967418672L119.12,91.66874669657814L119.28,97.75764097107782L119.36,95.55597837766013L119.56,92.9501774178611L119.76,89.35739824506972L120.27999999999999,97.20863404538896L120.55999999999999,97.67487409379747L121.16,93.63592474990422L121.64,91.13541254732344L121.75999999999999,95.30482493506538L122,94.28548736042447L122.32,96.1464158958859L122.36,94.62830208407509L122.4,95.73422010739645L122.44,93.63926678233678L122.8,88.94692357381186L123.72,99.42871023548975L123.76,98.81847986910078L123.8,96.41510469383664L124.08,93.5318678882387L124.52000000000001,87.24177383051979L124.60000000000001,91.08639607164595L125.08,89.9206161763933L125.11999999999999,94.58758469422659L125.24,92.46271222167546L125.32,91.01687354511685L125.36,91.24782743718889L125.44,93.24969897005293L126.2,93.9966284831365L126.52,93.71230816841127L127,83.55267103513083L127.04,82.05782177713182L127.36,87.05785005622441L127.4,84.90345335006714L127.64,88.92676528294882L127.76,86.98861045307585L128,88.94099986553192L128.07999999999998,86.7427618238661L128.16,84.78075891070897L128.84,90.46590383847555L128.92,87.02094623777602L128.96,86.16616397433812L129,85.64607417583466L129.44,87.4206698205736L129.84,83.91669322384729L130.16,87.74057953887517L130.84,86.12855874167549L131.12,83.13644358846877L131.16,81.71312089761099L131.28,85.02291185326048L131.92,92.20396700170305L132.07999999999998,84.66635176870558L132.28,82.21366540590924L132.35999999999999,82.92249457041424L132.44,89.22562668058607L132.52,87.62525879012215L132.6,86.46054575178358L132.76,87.71569996409947L132.8,84.5684367020925L133.24,87.02160639233061L133.36,82.1849899424447L133.68,84.57020497322083L133.8,89.26293130715689L133.84,87.81511216693455L134.16,84.9361368947559L134.76,77.83745960394543L134.84,77.00124418735504L134.92000000000002,85.07837073008221L135,81.33021357324388L135.44,86.85452245341408L135.6,87.97017186217839L136.12,97.7200180557039L137.04,101.11615369055006L137.64,92.09863698482515L137.68,93.14849491914114L137.92,92.06364879343245L137.96,90.64478214581808L138.04,95.69699800014497L138.16,101.15188455581666L138.36,103.30010410149893L138.52,98.82551758819157L138.6,102.84873521327974L139.24,89.77908964951834L139.68,95.40258085727693L139.95999999999998,93.35132151179845L140,89.02244053946602L140.28,84.06685480806563L140.4,80.42174659834969L141.36,89.8946756389406L141.48000000000002,83.22876502407922L141.76000000000002,79.18843642870587L141.88,77.39282193448808L141.92000000000002,83.31256928708818L142,79.46727510293326L142.04000000000002,81.16221602757773L142.32000000000002,78.02832678953808L142.84,81.08355153931512L143.04000000000002,81.54611947801378L143.4,80.07049132717981L143.48000000000002,79.04227113723755L143.56,79.84526663356358L143.84,76.77563636832768L144.36,76.61404585838318L144.44000000000003,81.85987561278874L144.67999999999998,76.26969863308801L145,79.48709152804481L145.23999999999998,75.03673032919568L145.28,81.81014004018571L145.48,70.43725082609389L145.67999999999998,74.81044467290243L145.95999999999998,73.34672288099927L146.44,76.8555681175656L146.6,74.5500254895952L147.12,78.4613881773419L147.2,75.73220904668173L147.28,81.73274281289842L147.4,79.48417977492016L147.6,78.4063242144055L148.28,76.68006131384108L148.48,75.294161134296L149.2,78.8229229980045L149.36,74.30651097827489L149.48,77.60962376329634L149.68,72.47152298026616L149.96,74.39122884803349L150.12,75.81025464004942L150.20000000000002,72.9986328151491L150.44,74.31257614824507L150.48000000000002,74.09063454469046L150.72,73.18575126594969L151,71.33658173349168L151.24,72.35990381240845L151.36,70.8296125067605L151.60000000000002,73.83184806505841L152.04000000000002,75.42535506354439L152.12,75.08731467194029L152.52,77.96130341953703L152.64000000000001,80.46576476097107L152.71999999999997,81.74295163154602L152.92000000000002,88.21811883979375L153.55999999999997,84.00063305430943L153.64,77.65706058343252L153.88,80.74294715457494L154.04,81.15408198038739L154.11999999999998,79.9120070801841L154.67999999999998,78.54709038469527L155.16,76.58944331275093L155.35999999999999,81.2281548579534L155.84,68.99665802054936L155.88,66.48518843121L156.12,65.47857062021893L156.16,66.10015918148889L156.72,62.15516397688124L156.88,64.44714396529729L156.96,61.94433301024968L157.04,69.51387143135071L157.16,64.77098513974084L157.28,69.49668383598328L157.96,72.27444916301305L158.4,74.41878440645006L158.44,79.0907983912362L158.68,72.27395994133421L158.96,76.56819458802542L159.92000000000002,74.12075999048021L160.16,73.80745771196153L160.24,68.5233448876275L161.08,69.38858352767097L161.20000000000002,63.67620133029091L161.36,60.469123350249404L161.4,58.44157062636482L161.44000000000003,58.211754322052L161.68,61.18877433405983L161.8,68.86143243312836L161.88000000000002,69.368802467982L162.23999999999998,76.96184121237862L162.51999999999998,78.45594779650372L162.72,74.63736040062376L163.04,68.44315968619453L163.2,73.16270479891035L163.35999999999999,67.3336992263794L163.88,63.79530617925856L163.95999999999998,59.534267875883316L164.07999999999998,68.3025585545434L164.56,62.30669302410551L164.72,65.81357547971938L164.92,68.73869673411053L165,68.0332744386461L165.4,74.300652106603L165.48,79.27526443534428L165.56,75.26997707949745L166.08,90.37821527322134L166.72,70.6384741862615L166.92000000000002,72.95699003007677L167.20000000000002,67.83212180932364L168.20000000000002,62.26431345939636L168.24,69.07885315683153L168.28,67.7952710390091L168.56,65.08543679449294L168.96,58.00419465700787L169.28,62.94469114144644L169.56,64.70445099141862L169.72,70.56354664431679L170.16000000000003,58.50943687227037L170.39999999999998,59.09581915537518L170.64,58.439908451504195L170.76,63.846185233857895L171.35999999999999,75.42154149214429L171.51999999999998,71.58222995864021L171.95999999999998,91.42461918459999L172.16,91.84899836116368L172.35999999999999,86.4742439587911L172.51999999999998,85.37916543748644L172.56,81.84749771489038L173,79.72886723942229L173.04,80.16153371334076L173.48,70.28031086921692L173.56,75.5552463663949L173.6,75.78721996148428L173.88,76.01942932605743L174,69.01251941257054L174.04,68.6825953854455L174.07999999999998,65.2754434214698L174.32,64.4554194741779L175.2,57.45281235376996L175.88,68.139600581593L176.08,71.34534056981406L176.12,68.59900331497192L176.20000000000002,63.65553613503775L176.52,65.45001893573338L177,59.472119039959395L178.84,51.13922386699254L179.39999999999998,52.68937285741171L179.44000000000003,61.07946570714316L179.88,60.67895229657492L179.92,59.26840241750082L180,63.91616161664328L180.07999999999998,69.22597920894623L180.2,65.10988608996075L180.23999999999998,65.45931414763135L180.32,71.86656206183964L181.23999999999998,67.66199644406638L181.44,71.08407851060232L181.56,66.02313329113855L181.68,72.59003840552437L181.88,56.56521097819012L182.32,62.3552674320009L182.68,54.12143670188057L182.79999999999998,61.27659846676721L182.84,61.08227136400011L183.2,61.1598807838228L183.44,65.1028012169732L184.08,64.22769562403363L184.32,64.92003860738542L184.48,64.83647011386024L184.84,60.44915367497339L184.92000000000002,57.25153594546849L185.28,53.441901895735L185.44,56.04676567183601L185.68,58.759352525075286L185.88,58.89153668615553L186.12,52.42796344227263L186.48000000000002,59.07937423388165L186.76000000000002,63.46138585938348L186.92000000000002,62.381349431143875L187.28,60.14474580023024L187.88000000000002,54.63437679078844L188.16000000000003,57.63413087526959L188.27999999999997,51.715880658891464L188.35999999999999,48.96839992205304L188.39999999999998,58.34864208433363L188.55999999999997,53.09479027324254L188.6,52.12366755803427L189.11999999999998,50.658560620413894L189.35999999999999,49.57079095310635L189.39999999999998,50.86603776613873L189.48,50.355490737491195L189.72,60.062609606319015L189.84,65.60054006841447L190.92,62.76699168152281L191.16,50.80919374359979L191.32,53.14854571554396L191.44,50.4033283657498L191.76,56.165452029969956L191.84,49.81422294510736L192.52,62.580934193399216L192.56,60.092976715829636L193.32,67.33661687374115L193.36,65.89829334947798L193.48,69.14089589648778L193.76,60.904465807808776L193.84,57.48477090729608L194.16,51.398605664571136L194.24,47.563013394673675L194.28,55.8476819197337L194.8,47.33950392405194L194.88,54.37736447652182L195.28,46.02416955100168L195.4,51.96062117152745L195.84,44.695596721437255L195.96,50.54830302132501L196.04000000000002,47.705653932359496L196.12,43.62469636069406L196.60000000000002,53.95738829506769L197.28000000000003,49.04969324005975L197.88,45.396893050935546L198.11999999999998,50.15315336651274L198.39999999999998,45.60934493276807L198.72,46.701700316535124L198.88,49.0985446770986L199.16,51.14136936929491L199.2,48.13260889053345L199.23999999999998,46.381713973151335L199.64,58.97796977890863L200.48,44.312141233020355L200.68,36.226249959733764L200.88,37.075692044364104L201.12,41.45427322387695L201.52,38.171053489049285L201.72,41.82254515753854L201.96,41.4909118016561L202.12,46.311254262924194L202.16,42.359993484285155L202.48000000000002,43.49729832013449L202.6,38.79287192556595L202.64000000000001,36.82956049177383L202.72,41.0434684753418L202.84,40.07307664553326L202.88,39.128136131498565L202.92000000000002,37.13129827711319L203.20000000000002,36.25071104367575L203.32,43.019087076187134L203.36,42.48732079399957L203.4,40.024967882368315L203.44,37.48985650804309L203.52,46.86269550853305L203.64000000000001,56.39188504219055L203.68,57.64301938480803L203.92000000000002,52.5597939491272L204.16,57.39124115308127L204.24,53.31023642751906L204.36,68.5895607471466L205.16000000000003,41.343072546852966L205.24,52.981361574596846L205.48000000000002,53.069822284910416L205.76,50.72037937906053L206.23999999999998,47.57025151782565L206.76,51.42828904257881L207,52.77871770328947L207.07999999999998,53.705103158950806L207.72,71.98197711838617L207.84,68.13700711727142L207.92,63.52954092290666L207.95999999999998,63.418947352303405L208.72,54.40217921468947L209.07999999999998,40.33247023158603L209.68,56.806697871949936L209.8,48.24221812354196L210.32,43.9184769259559L210.64000000000001,46.51860173543295L210.96,39.84356684154935L211,37.326597929000854L211.12,43.90540350808038L211.20000000000002,41.86135281456842L211.24,39.14260058932834L211.8,32.25850889417862L212.12,32.22242437468637L212.72,38.65109194649591L213,32.81228425767688L213.24,36.95961093902588L213.36,43.64404124683804L213.64000000000001,43.43440681033664L214.16000000000003,45.03430316183301L214.24,38.88201636738248L214.27999999999997,39.072977860768646L214.55999999999997,37.887104511260986L215.28,54.279260794321715L215.92,41.64239369498361L216.2,47.011713610755095L216.4,45.87673110432095L216.44,43.20502667956882L216.68,45.123919142617126L217.04,47.34880503018698L217.2,41.03948397106595L217.28,45.535101122326324L217.51999999999998,44.31128067440457L217.64,37.24180343416003L218.56,50.45390092002022L218.76,56.98286483022902L219.28,64.9465390973621L219.44,54.78293514251709L220.16,42.71784440676373L220.48000000000002,33.21816142400107L220.64000000000001,39.529085715611785L221.4,30.857495890723357L221.52,37.78643094168771L221.56,34.687653674019714L221.64000000000001,31.172130266825377L221.72,41.52901215023465L221.76000000000002,40.21917120615643L221.92000000000002,30.459163347880065L221.96,29.638249370786895L222.4,41.30117630958557L222.64000000000001,45.18473588095773L222.8,41.091895527309845L223.72,39.74335302246942L224.23999999999998,44.70608846346539L224.56,47.06216828028363L224.88,38.95864144961041L225.32,32.154581705729186L225.35999999999999,43.2162139415741L225.96,41.29239389631485L226.07999999999998,34.67727981673349L226.52,51.147216452492614L226.56,55.05610945489671L226.68,55.67065440283882L227.36,57.87440355618796L227.52,45.23440072271558L227.68,48.03107476234436L228.04,38.402991718716095L228.24,39.59607961442737L228.32,34.02946779463028L228.4,28.41598500145807L228.76,41.903508398267974L228.96,28.272224558724304L229.16,24.155488967895508L229.72,34.865341345469176L229.76000000000002,33.48418013254803L229.84,42.69100205103558L230.04000000000002,34.77138720618356L230.4,41.55421590805054L230.64000000000001,28.218433751000305L231.16000000000003,30.075920051998565L231.52,39.68034362792969L231.76000000000002,35.72257561153836L231.8,46.42740609910754L231.95999999999998,33.935938040415465L232.2,44.46087641186185L232.44,45.43294220500522L232.64,42.006068123711486L232.76,35.56129749615988L232.83999999999997,29.742494848039428L233.28,28.129183212916075L233.44,21.875880983140746L233.79999999999998,37.00379414028592L233.95999999999998,40.52712151739334L234.12,48.3450371954176L234.32,50.88834155930414L234.51999999999998,39.45951014094882L234.79999999999998,33.69666737980313L235,37.69586009449429L235.07999999999998,37.94711963335675L235.16,47.4802936712901L235.2,46.193369521035095L235.56,47.6646064652337L235.6,49.46946901745267L235.64,50.45585780673558L235.88,43.50081128544278L236.36,35.432343377007385L236.56,34.715816338857024L236.88,42.00105802218121L236.96,37.939327451917876L237.36,25.279590712653288L237.44,32.61507487297058L238.04,41.053123235702515L238.48000000000002,26.165140893724242L238.56,30.891057676739166L238.72,23.3908531665802L238.8,32.93937579790753L239.20000000000002,29.65083946122064L239.32000000000002,24.706458674536833L239.64000000000001,51.280874172846495L240.16000000000003,23.917232116063445L240.67999999999998,22.90232700771756L240.95999999999998,20.275194803873717L241.07999999999998,28.641133069992065L241.23999999999998,22.407057841618865L241.79999999999998,19.439816368950744L242.23999999999998,29.667213651869048L242.51999999999998,28.140948110156586L242.79999999999998,32.03182832400006L243.2,31.392244656880706L243.32,38.36167311668396L243.48,33.99944255087112L243.51999999999998,35.29671698146396L243.72,35.950234625074614L243.96,51.23473408487108L244.04,48.14801642629834L244.44,70.2842776907815L244.48,73.51557509104413L245.16,80.55859899520874L245.28,82.46425889598L245.56,71.72656214237213L245.96,45.607093334198L246.04,40.15642115804886L246.52,23.186947928534636L246.64000000000001,32.50352054172092L246.72,28.11402323510913L247,26.764172209633728L247.4,20.81195939911737L247.72,19.76567337248062L247.8,29.0758919980791L247.88,26.542867183685303L248,20.441435866885712L248.08,28.38715039359201L248.44,23.294388082292357L248.84,16.87035338083905L248.88000000000002,28.842350535922577L249.20000000000002,27.09641856617398L249.27999999999997,23.239831023746063L249.44000000000003,28.944733434253266L249.48000000000002,24.566930294036865L250.23999999999998,17.688096258375396L250.44,20.472133053673645L250.51999999999998,18.074534230762055L250.56,29.92611212200589L250.67999999999998,21.761131975385894L251.04,23.1194589138031L251.76,23.528613275951813L252.16,22.69508563147653L252.56,29.035457531611144L252.76,21.09586122300891L252.92,37.719826062520355L252.96,37.01020707024469L253.12,43.83645272254944L253.35999999999999,43.0909967687395L253.4,44.4062014685737L253.44,46.51697492599487L253.56,37.794482469558716L253.68,42.92383620474075L254.24,36.428198311063994L254.44,24.0193203025394L254.56,27.872394879659026L255.24,13.29492094781665L255.28,11.718200736575653L255.44,17.921083662245024L255.64000000000001,22.512871185938536L255.92000000000002,20.348047574361175L256.28,20.43039006657071L256.36,20.293631977505157L256.76,25.23022058275012L257,25.339464373058746L257.08,24.443434238433838L257.32,30.268036815855254L257.4,31.64948095215692L257.48,27.403319703208098L257.76,29.055780861112822L257.96,35.73375108506946L258.04,32.944550938076446L258.12,42.810159948137084L258.16,39.5180281268226L258.44,38.475384738710204L258.76,33.149800062179565L259.04,27.314057376649657L259.2,18.50719481044345L259.4,29.214135434892455L259.52,34.6131387286716L260,25.360966549979338" style="fill: none;" fill="none"></path></g></g></g></g></g></g><g transform="translate(50, 178)" clip-path="url(#clip_1)"><clipPath id="clip_1"><rect width="280" height="22"></rect></clipPath><g><g><line x1="0" y1="0" x2="0" y2="5" style="visibility: inherit;" fill="rgb(0, 0, 0)" stroke="rgb(204, 204, 204)" stroke-width="1px"></line><line x1="20" y1="0" x2="20" y2="5" style="visibility: inherit;" fill="rgb(0, 0, 0)" stroke="rgb(204, 204, 204)" stroke-width="1px"></line><line x1="40" y1="0" x2="40" y2="5" style="visibility: inherit;" fill="rgb(0, 0, 0)" stroke="rgb(204, 204, 204)" stroke-width="1px"></line><line x1="60" y1="0" x2="60" y2="5" style="visibility: inherit;" fill="rgb(0, 0, 0)" stroke="rgb(204, 204, 204)" stroke-width="1px"></line><line x1="80" y1="0" x2="80" y2="5" style="visibility: inherit;" fill="rgb(0, 0, 0)" stroke="rgb(204, 204, 204)" stroke-width="1px"></line><line x1="100" y1="0" x2="100" y2="5" style="visibility: inherit;" fill="rgb(0, 0, 0)" stroke="rgb(204, 204, 204)" stroke-width="1px"></line><line x1="120" y1="0" x2="120" y2="5" style="visibility: inherit;" fill="rgb(0, 0, 0)" stroke="rgb(204, 204, 204)" stroke-width="1px"></line><line x1="140" y1="0" x2="140" y2="5" style="visibility: inherit;" fill="rgb(0, 0, 0)" stroke="rgb(204, 204, 204)" stroke-width="1px"></line><line x1="160" y1="0" x2="160" y2="5" style="visibility: inherit;" fill="rgb(0, 0, 0)" stroke="rgb(204, 204, 204)" stroke-width="1px"></line><line x1="180" y1="0" x2="180" y2="5" style="visibility: inherit;" fill="rgb(0, 0, 0)" stroke="rgb(204, 204, 204)" stroke-width="1px"></line><line x1="200" y1="0" x2="200" y2="5" style="visibility: inherit;" fill="rgb(0, 0, 0)" stroke="rgb(204, 204, 204)" stroke-width="1px"></line><line x1="220" y1="0" x2="220" y2="5" style="visibility: inherit;" fill="rgb(0, 0, 0)" stroke="rgb(204, 204, 204)" stroke-width="1px"></line><line x1="240" y1="0" x2="240" y2="5" style="visibility: inherit;" fill="rgb(0, 0, 0)" stroke="rgb(204, 204, 204)" stroke-width="1px"></line><line x1="260" y1="0" x2="260" y2="5" style="visibility: inherit;" fill="rgb(0, 0, 0)" stroke="rgb(204, 204, 204)" stroke-width="1px"></line><line x1="280" y1="0" x2="280" y2="5" style="visibility: inherit;" fill="rgb(0, 0, 0)" stroke="rgb(204, 204, 204)" stroke-width="1px"></line></g><g transform="translate(0, 8)"><text x="0" y="0" dx="0em" dy="0.95em" style="text-anchor: middle; visibility: hidden; font-family: &quot;Helvetica Neue&quot;, sans-serif; font-size: 12px; font-weight: 200;" fill="rgb(50, 49, 63)" stroke="none" stroke-width="1px">-500</text><text x="20" y="0" dx="0em" dy="0.95em" style="text-anchor: middle; visibility: inherit; font-family: &quot;Helvetica Neue&quot;, sans-serif; font-size: 12px; font-weight: 200;" fill="rgb(50, 49, 63)" stroke="none" stroke-width="1px">0</text><text x="40" y="0" dx="0em" dy="0.95em" style="text-anchor: middle; visibility: hidden; font-family: &quot;Helvetica Neue&quot;, sans-serif; font-size: 12px; font-weight: 200;" fill="rgb(50, 49, 63)" stroke="none" stroke-width="1px">500</text><text x="60" y="0" dx="0em" dy="0.95em" style="text-anchor: middle; visibility: inherit; font-family: &quot;Helvetica Neue&quot;, sans-serif; font-size: 12px; font-weight: 200;" fill="rgb(50, 49, 63)" stroke="none" stroke-width="1px">1k</text><text x="80" y="0" dx="0em" dy="0.95em" style="text-anchor: middle; visibility: hidden; font-family: &quot;Helvetica Neue&quot;, sans-serif; font-size: 12px; font-weight: 200;" fill="rgb(50, 49, 63)" stroke="none" stroke-width="1px">1.5k</text><text x="100" y="0" dx="0em" dy="0.95em" style="text-anchor: middle; visibility: inherit; font-family: &quot;Helvetica Neue&quot;, sans-serif; font-size: 12px; font-weight: 200;" fill="rgb(50, 49, 63)" stroke="none" stroke-width="1px">2k</text><text x="120" y="0" dx="0em" dy="0.95em" style="text-anchor: middle; visibility: hidden; font-family: &quot;Helvetica Neue&quot;, sans-serif; font-size: 12px; font-weight: 200;" fill="rgb(50, 49, 63)" stroke="none" stroke-width="1px">2.5k</text><text x="140" y="0" dx="0em" dy="0.95em" style="text-anchor: middle; visibility: inherit; font-family: &quot;Helvetica Neue&quot;, sans-serif; font-size: 12px; font-weight: 200;" fill="rgb(50, 49, 63)" stroke="none" stroke-width="1px">3k</text><text x="160" y="0" dx="0em" dy="0.95em" style="text-anchor: middle; visibility: hidden; font-family: &quot;Helvetica Neue&quot;, sans-serif; font-size: 12px; font-weight: 200;" fill="rgb(50, 49, 63)" stroke="none" stroke-width="1px">3.5k</text><text x="180" y="0" dx="0em" dy="0.95em" style="text-anchor: middle; visibility: inherit; font-family: &quot;Helvetica Neue&quot;, sans-serif; font-size: 12px; font-weight: 200;" fill="rgb(50, 49, 63)" stroke="none" stroke-width="1px">4k</text><text x="200" y="0" dx="0em" dy="0.95em" style="text-anchor: middle; visibility: hidden; font-family: &quot;Helvetica Neue&quot;, sans-serif; font-size: 12px; font-weight: 200;" fill="rgb(50, 49, 63)" stroke="none" stroke-width="1px">4.5k</text><text x="220" y="0" dx="0em" dy="0.95em" style="text-anchor: middle; visibility: inherit; font-family: &quot;Helvetica Neue&quot;, sans-serif; font-size: 12px; font-weight: 200;" fill="rgb(50, 49, 63)" stroke="none" stroke-width="1px">5k</text><text x="240" y="0" dx="0em" dy="0.95em" style="text-anchor: middle; visibility: hidden; font-family: &quot;Helvetica Neue&quot;, sans-serif; font-size: 12px; font-weight: 200;" fill="rgb(50, 49, 63)" stroke="none" stroke-width="1px">5.5k</text><text x="260" y="0" dx="0em" dy="0.95em" style="text-anchor: middle; visibility: inherit; font-family: &quot;Helvetica Neue&quot;, sans-serif; font-size: 12px; font-weight: 200;" fill="rgb(50, 49, 63)" stroke="none" stroke-width="1px">6k</text><text x="280" y="0" dx="0em" dy="0.95em" style="text-anchor: middle; visibility: hidden; font-family: &quot;Helvetica Neue&quot;, sans-serif; font-size: 12px; font-weight: 200;" fill="rgb(50, 49, 63)" stroke="none" stroke-width="1px">6.5k</text></g><line x1="0" y1="0" x2="280" y2="0" fill="rgb(0, 0, 0)" stroke="rgb(204, 204, 204)" stroke-width="1px"></line></g></g></g></g></svg>