<svg viewBox="0 0 330.0000305175781 200.00001525878906" xmlns="http://www.w3.org/2000/svg"><g><g><g><g><g><line x1="50" y1="178" x2="45" y2="178" style="visibility: inherit;" fill="rgb(0, 0, 0)" stroke="rgb(204, 204, 204)" stroke-width="1px"></line><line x1="50" y1="160.20000000000002" x2="45" y2="160.20000000000002" style="visibility: inherit;" fill="rgb(0, 0, 0)" stroke="rgb(204, 204, 204)" stroke-width="1px"></line><line x1="50" y1="142.40000000000003" x2="45" y2="142.40000000000003" style="visibility: inherit;" fill="rgb(0, 0, 0)" stroke="rgb(204, 204, 204)" stroke-width="1px"></line><line x1="50" y1="124.6" x2="45" y2="124.6" style="visibility: inherit;" fill="rgb(0, 0, 0)" stroke="rgb(204, 204, 204)" stroke-width="1px"></line><line x1="50" y1="106.79999999999998" x2="45" y2="106.79999999999998" style="visibility: inherit;" fill="rgb(0, 0, 0)" stroke="rgb(204, 204, 204)" stroke-width="1px"></line><line x1="50" y1="89.00000000000001" x2="45" y2="89.00000000000001" style="visibility: inherit;" fill="rgb(0, 0, 0)" stroke="rgb(204, 204, 204)" stroke-width="1px"></line><line x1="50" y1="71.2" x2="45" y2="71.2" style="visibility: inherit;" fill="rgb(0, 0, 0)" stroke="rgb(204, 204, 204)" stroke-width="1px"></line><line x1="50" y1="53.39999999999999" x2="45" y2="53.39999999999999" style="visibility: inherit;" fill="rgb(0, 0, 0)" stroke="rgb(204, 204, 204)" stroke-width="1px"></line><line x1="50" y1="35.60000000000002" x2="45" y2="35.60000000000002" style="visibility: inherit;" fill="rgb(0, 0, 0)" stroke="rgb(204, 204, 204)" stroke-width="1px"></line><line x1="50" y1="17.80000000000001" x2="45" y2="17.80000000000001" style="visibility: inherit;" fill="rgb(0, 0, 0)" stroke="rgb(204, 204, 204)" stroke-width="1px"></line><line x1="50" y1="0" x2="45" y2="0" style="visibility: inherit;" fill="rgb(0, 0, 0)" stroke="rgb(204, 204, 204)" stroke-width="1px"></line></g><g transform="translate(40, 0)"><text x="0" y="178" dx="0em" dy="0.3em" style="text-anchor: end; visibility: hidden; font-family: &quot;Helvetica Neue&quot;, sans-serif; font-size: 12px; font-weight: 200;" fill="rgb(50, 49, 63)" stroke="none" stroke-width="1px">0.1</text><text x="0" y="160.20000000000002" dx="0em" dy="0.3em" style="text-anchor: end; visibility: inherit; font-family: &quot;Helvetica Neue&quot;, sans-serif; font-size: 12px; font-weight: 200;" fill="rgb(50, 49, 63)" stroke="none" stroke-width="1px">0.11</text><text x="0" y="142.40000000000003" dx="0em" dy="0.3em" style="text-anchor: end; visibility: hidden; font-family: &quot;Helvetica Neue&quot;, sans-serif; font-size: 12px; font-weight: 200;" fill="rgb(50, 49, 63)" stroke="none" stroke-width="1px">0.12</text><text x="0" y="124.6" dx="0em" dy="0.3em" style="text-anchor: end; visibility: inherit; font-family: &quot;Helvetica Neue&quot;, sans-serif; font-size: 12px; font-weight: 200;" fill="rgb(50, 49, 63)" stroke="none" stroke-width="1px">0.13</text><text x="0" y="106.79999999999998" dx="0em" dy="0.3em" style="text-anchor: end; visibility: hidden; font-family: &quot;Helvetica Neue&quot;, sans-serif; font-size: 12px; font-weight: 200;" fill="rgb(50, 49, 63)" stroke="none" stroke-width="1px">0.14</text><text x="0" y="89.00000000000001" dx="0em" dy="0.3em" style="text-anchor: end; visibility: inherit; font-family: &quot;Helvetica Neue&quot;, sans-serif; font-size: 12px; font-weight: 200;" fill="rgb(50, 49, 63)" stroke="none" stroke-width="1px">0.15</text><text x="0" y="71.2" dx="0em" dy="0.3em" style="text-anchor: end; visibility: hidden; font-family: &quot;Helvetica Neue&quot;, sans-serif; font-size: 12px; font-weight: 200;" fill="rgb(50, 49, 63)" stroke="none" stroke-width="1px">0.16</text><text x="0" y="53.39999999999999" dx="0em" dy="0.3em" style="text-anchor: end; visibility: inherit; font-family: &quot;Helvetica Neue&quot;, sans-serif; font-size: 12px; font-weight: 200;" fill="rgb(50, 49, 63)" stroke="none" stroke-width="1px">0.17</text><text x="0" y="35.60000000000002" dx="0em" dy="0.3em" style="text-anchor: end; visibility: hidden; font-family: &quot;Helvetica Neue&quot;, sans-serif; font-size: 12px; font-weight: 200;" fill="rgb(50, 49, 63)" stroke="none" stroke-width="1px">0.18</text><text x="0" y="17.80000000000001" dx="0em" dy="0.3em" style="text-anchor: end; visibility: inherit; font-family: &quot;Helvetica Neue&quot;, sans-serif; font-size: 12px; font-weight: 200;" fill="rgb(50, 49, 63)" stroke="none" stroke-width="1px">0.19</text><text x="0" y="0" dx="0em" dy="0.3em" style="text-anchor: end; visibility: hidden; font-family: &quot;Helvetica Neue&quot;, sans-serif; font-size: 12px; font-weight: 200;" fill="rgb(50, 49, 63)" stroke="none" stroke-width="1px">0.2</text></g><line x1="50" y1="0" x2="50" y2="178" fill="rgb(0, 0, 0)" stroke="rgb(204, 204, 204)" stroke-width="1px"></line></g></g><g transform="translate(50, 0)" clip-path="url(#clip_0)"><clipPath id="clip_0"><rect width="280" height="178"></rect></clipPath><g><g><g><line x1="0" y1="0" x2="0" y2="178" fill="rgb(0, 0, 0)" stroke="rgb(60, 60, 60)" stroke-width="1px" opacity="0.25"></line><line x1="28" y1="0" x2="28" y2="178" fill="rgb(0, 0, 0)" stroke="rgb(60, 60, 60)" stroke-width="1px" opacity="0.25"></line><line x1="56" y1="0" x2="56" y2="178" fill="rgb(0, 0, 0)" stroke="rgb(60, 60, 60)" stroke-width="1px" opacity="0.25"></line><line x1="84" y1="0" x2="84" y2="178" fill="rgb(0, 0, 0)" stroke="rgb(60, 60, 60)" stroke-width="1px" opacity="0.25"></line><line x1="112" y1="0" x2="112" y2="178" fill="rgb(0, 0, 0)" stroke="rgb(60, 60, 60)" stroke-width="1px" opacity="0.25"></line><line x1="140" y1="0" x2="140" y2="178" fill="rgb(0, 0, 0)" stroke="rgb(60, 60, 60)" stroke-width="1px" opacity="0.25"></line><line x1="168" y1="0" x2="168" y2="178" fill="rgb(0, 0, 0)" stroke="rgb(60, 60, 60)" stroke-width="1px" opacity="0.25"></line><line x1="196" y1="0" x2="196" y2="178" fill="rgb(0, 0, 0)" stroke="rgb(60, 60, 60)" stroke-width="1px" opacity="0.25"></line><line x1="224" y1="0" x2="224" y2="178" fill="rgb(0, 0, 0)" stroke="rgb(60, 60, 60)" stroke-width="1px" opacity="0.25"></line><line x1="252" y1="0" x2="252" y2="178" fill="rgb(0, 0, 0)" stroke="rgb(60, 60, 60)" stroke-width="1px" opacity="0.25"></line><line x1="280" y1="0" x2="280" y2="178" fill="rgb(0, 0, 0)" stroke="rgb(60, 60, 60)" stroke-width="1px" opacity="0.25"></line></g><g><line x1="0" y1="178" x2="280" y2="178" fill="rgb(0, 0, 0)" stroke="rgb(60, 60, 60)" stroke-width="1px" opacity="0.25"></line><line x1="0" y1="160.20000000000002" x2="280" y2="160.20000000000002" fill="rgb(0, 0, 0)" stroke="rgb(60, 60, 60)" stroke-width="1px" opacity="0.25"></line><line x1="0" y1="142.40000000000003" x2="280" y2="142.40000000000003" fill="rgb(0, 0, 0)" stroke="rgb(60, 60, 60)" stroke-width="1px" opacity="0.25"></line><line x1="0" y1="124.6" x2="280" y2="124.6" fill="rgb(0, 0, 0)" stroke="rgb(60, 60, 60)" stroke-width="1px" opacity="0.25"></line><line x1="0" y1="106.79999999999998" x2="280" y2="106.79999999999998" fill="rgb(0, 0, 0)" stroke="rgb(60, 60, 60)" stroke-width="1px" opacity="0.25"></line><line x1="0" y1="89.00000000000001" x2="280" y2="89.00000000000001" fill="rgb(0, 0, 0)" stroke="rgb(60, 60, 60)" stroke-width="1px" opacity="0.25"></line><line x1="0" y1="71.2" x2="280" y2="71.2" fill="rgb(0, 0, 0)" stroke="rgb(60, 60, 60)" stroke-width="1px" opacity="0.25"></line><line x1="0" y1="53.39999999999999" x2="280" y2="53.39999999999999" fill="rgb(0, 0, 0)" stroke="rgb(60, 60, 60)" stroke-width="1px" opacity="0.25"></line><line x1="0" y1="35.60000000000002" x2="280" y2="35.60000000000002" fill="rgb(0, 0, 0)" stroke="rgb(60, 60, 60)" stroke-width="1px" opacity="0.25"></line><line x1="0" y1="17.80000000000001" x2="280" y2="17.80000000000001" fill="rgb(0, 0, 0)" stroke="rgb(60, 60, 60)" stroke-width="1px" opacity="0.25"></line><line x1="0" y1="0" x2="280" y2="0" fill="rgb(0, 0, 0)" stroke="rgb(60, 60, 60)" stroke-width="1px" opacity="0.25"></line></g></g></g><g><g><line x1="0" y1="356" x2="280" y2="356" fill="rgb(0, 0, 0)" stroke="rgb(153, 153, 153)" stroke-width="1.5px"></line></g></g><g><g><line x1="28" y1="0" x2="28" y2="178" fill="rgb(0, 0, 0)" stroke="rgb(153, 153, 153)" stroke-width="1.5px"></line></g></g><g><g><g><g><g><path stroke="rgb(0, 119, 187)" stroke-width="2px" d="M29.96,80.0660470724106L32.760000000000005,107.78308365707652L33.6,135.86711362661833L35.28,137.0529082041414L38.64,134.7943443227985L39.76,132.85154371993934L40.32,136.40289423680275L40.879999999999995,136.0101827723858L41.16,133.82444004477819L41.72,133.11065197316202L43.4,132.92243968101832L43.68,131.7887636863252L43.96,132.14059584688522L44.24,131.65974883378232L46.760000000000005,132.72154345981355L48.44,134.42768380761595L48.72,134.9384466193872L49,135.8419233910511L49.279999999999994,137.2770892207893L50.68,138.38616859364905L52.92,138.0374975700105L54.88,137.1603517865801L57.12,134.11321982911886L57.959999999999994,133.53439531926585L58.239999999999995,132.86043782993414L60.199999999999996,129.82726979903128L61.6,128.74200240516132L63.84,128.56814893506575L64.68,128.33549103576362L64.96000000000001,127.99200911395424L67.48,129.3739114157658L68.03999999999999,129.57259117850626L68.32,129.22675910702327L70.56,128.89719212472312L71.96000000000001,129.3369192210941L72.52,129.6996978273983L72.8,129.68221746956573L73.92,130.46863897230148L75.32000000000001,130.72326675741274L75.60000000000001,130.95377700298903L76.44000000000001,130.89772372230394L78.12,130.30257083643266L78.4,129.82089323232861L78.96,129.4765767699831L79.8,129.88297477209474L80.36,130.03610737789296L80.64,129.6990996815643L81.19999999999999,129.38923453780734L81.75999999999999,129.4883135550234L82.03999999999999,129.915448725123L28.56,140.01601903191693L30.8,141.09457622260345L31.080000000000002,139.92092895262255L31.36,141.2838468692595L32.480000000000004,142.36057255643988L35.56,143.88994602745385L37.24,146.87803234146972L38.080000000000005,145.51851495005127L38.64,145.01077056939175L39.48,142.94174649035403L42.839999999999996,141.8934471742652L44.52,141.42888217789223L45.92,142.49970329385354L46.2,143.32305213530975L46.760000000000005,144.50028832233838L47.88,144.40536713849633L49,143.58756448615327L49.559999999999995,142.98521833820342L50.96,142.96326312365926L54.88,141.81580334159136L56.28,141.4242486232881L56.56,140.58902398651304L57.68,139.78585685159422L57.959999999999994,139.2215702564987L59.08,138.41117990896484L59.36,137.9708656806947L59.92,137.39982894999716L60.76,136.45570791881042L62.160000000000004,135.68260912117347L62.44,135.46932303224318L64.12,135.84522578607098L64.4,135.24133956376832L64.68,134.56660045745568L65.52000000000001,134.57273552776627L68.03999999999999,134.62552969398237L70.28,134.39501606162318L74.76,136.31001023805007L75.88000000000001,137.23897936012224L77.56,137.86781132822946L78.68,138.1761310263301L79.24,138.85151555521688L81.19999999999999,138.7700779798704L82.6,138.4831359291753L82.88,138.01708872457348L87.36,137.77497888589812L89.32000000000001,136.21709021739377L91,136.73354301407934L91.28,136.70296284250375L91.84,136.48065726363672L93.52000000000001,135.4470132354894L96.04,133.75036659520313L96.6,132.78029949983312L96.88,132.0752613504506L97.72,131.35703431411338L99.39999999999999,131.83812408163558L101.92,133.52663750182137L102.75999999999999,133.79980823225685L103.03999999999999,133.57900758086862L105.56,134.00031167615558L105.84,134.80777747026903L109.76,135.1387910900338L110.04,135.11070775521463L110.60000000000001,135.83761375252334L111.16000000000001,136.25010416460884L115.08,136.05361417378194L116.47999999999999,136.2080889781328L117.03999999999999,136.43398195255685L117.88,136.08650948993477L120.12,135.32157594174063L121.8,134.5239415855097L122.36,133.68888689948562L123.2,133.3839702982541L124.88,132.7632089992975L126.28,131.55773547513124L126.56,130.24134438339433L129.08,128.9733035879066L129.64000000000001,127.20645723834969L130.76000000000002,126.14055719738361L131.04000000000002,125.27290396480431L132.44,124.12742168388232L133.56,123.10073697838482L133.84,122.08896020765627L135.24,122.14213094540577L135.79999999999998,122.08569084381584L136.07999999999998,121.9054141704338L136.64,120.57898754867395L137.2,119.24450844690584L137.48,118.18541129595408L138.88,117.76722214207885L139.16,117.04543430073399L141.12,116.6802780434256L141.68,116.8047883764579L143.36,116.30305432513845L143.92000000000002,115.15297286579045L145.32,115.30796343380592L146.72,115.20026214467578L147.28,115.23043150258823L150.64000000000001,114.89935636657204L152.60000000000002,114.97289109052046L152.88000000000002,114.83511897228183L153.44,115.65767070137954L153.72,116.72570782087269L154,118.47670366983166L154.28,119.59795953673571L154.84,119.86372173040905L155.68,120.83256344229783L156.8,122.0412390561856L158.2,122.30718778384343L159.04,122.39304817156287L160.16,123.68930027182518L161,124.34679020022782L161.28,124.4520855237437L161.83999999999997,123.87167660677966L162.11999999999998,123.57972612862892L162.95999999999998,122.26036817622432L163.23999999999998,120.22873143233156L164.07999999999998,118.26283998921309L164.35999999999999,116.82158682154308L165.76,115.00739787523293L166.04,113.86307953553208L168,112.97017176831037L168.84,112.89667173263761L169.96,111.99184222970742L170.79999999999998,110.64174942816298L171.35999999999999,108.86888775111197L171.92,107.89832981094409L173.04,106.49713156681118L174.16,107.38035642039891L175,107.50920171047994L175.28,106.94529948275523L175.56,106.4584038711554L175.84,105.88950652617315L177.52,105.76728800460452L179.20000000000002,106.42071824211762L179.76,106.62852417864269L180.04,106.1995977883857L181.16,106.2122154351588L182,106.21774339135102L182.28,106.21958677057657L183.12,105.41943087496199L183.4,104.43924470666452L183.68,103.6114566701034L184.24,102.69807633613534L184.8,101.63546109947639L187.32000000000002,101.30736971071524L187.60000000000002,101.6524486353106L188.44,101.18801138477812L188.72,100.92831957543537L189,100.84434932804514L189.56,100.99490715974399L189.84,100.99824203107299L191.52,99.90486500056431L192.64,99.670381160339L192.92,99.14956360793971L193.48,99.37326231741369L194.04,99.50432619522934L194.88,99.32566447325169L195.16,98.90752839566588L195.44,98.58813961662425L195.72,98.3545485912816L196.56,97.42628059970673L197.67999999999998,97.08327120971889L198.51999999999998,96.43055212513516L199.07999999999998,95.84660501062555L199.35999999999999,95.40257428779448L199.64,94.62950045481894L201.32,94.86318777413712L201.6,94.9704117321358L202.16,94.9072104227115L203,94.03503483070826L204.12,93.98148617539209L204.96,93.44791432199892L205.79999999999998,91.940407015823L206.07999999999998,91.18171421141058L207.2,90.1680239265731L207.76,89.53548553574437L209.16,88.49798856032272L210,87.1118937234242L215.88,85.13285108729741L216.44,84.3335616521938L216.72,83.46798318355972L217.84,82.11438717859005L218.4,80.38351664012795L219.52,79.35860350281004L220.08,77.96890859374099L220.64000000000001,76.43022965252173L221.48000000000002,74.77898290215191L222.32000000000002,73.18201865850678L224,72.43913218677885L225.12,72.81188871799621L227.08,72.78469853285482L227.36,73.08941149155572L227.64,73.37468641936756L227.92,72.97329404278406L229.32,72.01909514544826L229.88,70.40909687427951L230.72,68.96077475264529L231,67.32524677130525L231.28,65.53916404375386L231.56,63.484356246474576L233.79999999999998,61.535243135000684L234.07999999999998,59.915556011446L234.92,59.57502498192524L236.88,58.134112586426156L237.72,56.448187631371795L240.24,54.63612158099616L240.79999999999998,53.74135786710988L241.07999999999998,53.10987827071598L241.35999999999999,53.15653106865743L242.2,53.04163773314197L242.48,53.37829235805407L243.6,55.53798822496336L245,57.262554065834095L245.28,58.84215689087229L246.4,60.85270791701038L246.68,61.75528590433328L246.96,62.610787544151336L247.24,63.87215175843605L248.08,64.74918620860076L248.36,65.86714839461985L248.64000000000001,66.58344926971317L249.48000000000002,66.84913609556216L249.76,67.24146570681984L252,65.88560522692663L253.12,66.25930155616685L253.68,64.66587865435572L254.24,63.92585960246119L254.52,62.77038322313868L255.36,60.80877456331078L256.48,59.09678256491445L256.76,57.89078323881671L257.04,56.371160553600276L257.88,56.66466220181539L260.12,56.8820836844543L260.68,57.56444810245114L261.8,56.21343201567103L262.08000000000004,54.57939991742441L262.91999999999996,53.266266916661806L263.47999999999996,52.12593978378L264.03999999999996,51.75663847840714L265.44,49.307817335446856L268.52,47.56714596335098L269.08,46.55544084630483L270.76,45.79335107402403L271.03999999999996,44.959236696347745L271.59999999999997,43.01543014568844L272.15999999999997,40.7872585911133L273.28,38.330425628310394L274.4,36.99352579516341L274.96,36.0697717755549L276.36,35.98039536977487L276.64,36.58109326912208L276.92,37.57713126399452L279.16,36.54250026532793L280.84,36.001879817020665" style="fill: none;" fill="none"></path></g><g><path stroke="rgb(255, 112, 67)" stroke-width="2px" d="M29.4,56.67526817321779L29.68,109.61757154148621L30.8,96.71364671919454L31.080000000000002,98.04854908596982L31.64,96.81113472038047L31.92,98.62626198925601L32.2,106.88282374242931L33.04,114.68456877704594L33.32,118.3015518915739L33.6,122.00849506383796L34.72,127.66646221084167L37.24,131.48717518799398L37.52,136.56137130313917L38.080000000000005,140.44156561574974L39.2,140.60207720087652L39.76,141.78373896157711L40.32,142.4770254717871L40.599999999999994,140.02847888456807L41.16,138.23972360783708L41.72,136.66835956471792L42,134.30484235997318L42.839999999999996,133.80247462336297L43.12,132.80668963232048L43.4,132.33196318174097L43.68,131.9002863396997L43.96,131.78765729182535L45.08,130.9259426757816L45.64,129.66355891469073L46.2,129.0129674632439L46.480000000000004,128.9740306788782L46.760000000000005,128.31968295846892L47.040000000000006,128.46916415427827L47.88,128.7284867575246L48.16,129.3740442063852L48.44,130.51947309357882L48.72,131.48679391835168L50.12,132.1698740634281L51.519999999999996,133.02836023267113L51.8,133.70724481802768L52.08,134.4442031721291L52.36,134.7227840332629L52.64,134.94965727842114L52.92,135.13190155834718L54.32,135.96919753076014L56.56,136.59378380440018L57.4,136.72482179367836L57.68,136.1053145160629L59.64,136.1464849900989L60.48,135.69586912544366L61.04,135.29721487614958L61.32,135.23828490229397L28.84,136.6716037998279L29.119999999999997,135.6836304908146L29.4,133.12316290844012L30.24,136.61178511753303L30.52,138.8954722963978L32.480000000000004,138.3938228740859L33.04,138.209416443565L33.6,137.42866634807632L33.879999999999995,138.72441031487358L34.16,138.40820996451788L34.44,139.01815096755132L36.120000000000005,136.61951658770246L28.56,136.2914797854184L29.119999999999997,136.76104085029922L29.68,134.2097176135311L29.96,132.03190877320856L30.24,131.84809221324923L31.080000000000002,135.30008366934686L31.92,135.0148506892832L32.480000000000004,132.65434781944407L32.760000000000005,132.34668124390123L33.6,130.25908624430878L35,127.88836070779078L35.28,127.53536116754367L35.56,128.5476796164817L36.120000000000005,129.50503174197354L36.96,128.9468171120776L37.52,129.29999771509034L37.800000000000004,129.8581091452054L38.36,129.38497001312834L38.92,129.9942121771192L39.2,130.21335141016448L41.16,130.53161336601664L43.4,130.92040158023542L43.68,131.2009457851597L43.96,131.82538660246516L45.08,131.54566642195616L45.92,130.7520763200467L46.760000000000005,130.72230244646224L47.040000000000006,130.53636849604973L47.88,130.02457451335448L48.16,129.78634397031115L48.72,129.65019368490448L49,128.7396249597712L49.279999999999994,128.48373273115044L49.839999999999996,128.28200253927514L50.68,128.4591212687065L50.96,127.88314751812732L51.24,126.97111805935054L52.08,125.7596932005602L54.32,124.63468333841665L54.88,124.13545394548836L55.440000000000005,124.35291792066093L57.12,124.03021362248077L57.959999999999994,123.20863657919406L58.239999999999995,122.715666176996L58.519999999999996,122.50501714925599L58.8,121.63252254156868L59.36,120.75647786298998L60.48,120.67720811533721L61.04,120.59781766720405L61.6,121.03075502626393L62.160000000000004,122.33314508961934L63.56,122.57386619124512L64.12,122.73518282939622L65.24000000000001,123.48632420191737L66.64,123.9229169089243L67.2,123.48498987160454L67.48,122.50661350992618L68.88,122.14293415338196L69.16,122.0111458646585L69.44,122.38786375258135L70,123.09130413801125L70.28,124.34773918285278L70.56,125.31649516705426L71.68,125.02417612114762L71.96000000000001,124.82112743223664L72.52,125.3107938779666L73.36,126.33917703597152L74.48,126.07978292367079L74.76,125.89904706023654L75.04,126.0577258365999L75.32000000000001,126.19424656381648L75.88000000000001,127.33558445876653L76.72,127.94091623383241L77,128.4475220214322L77.28,128.71223761638646L78.12,129.3450242562506L78.4,129.4554456232201L78.96,130.4137435339897L80.64,131.1543496585644L81.19999999999999,132.15300276198312L82.03999999999999,133.82592900972966L82.32,134.7977380006553L82.88,135.66522980047137L83.16,136.6634760468181L84.56,137.58621289613257L84.84,138.77618411810815L85.39999999999999,139.8887347058687L85.96,140.9760952692417L86.24,141.71125069074262L86.52,141.69192377480988L87.36,141.0737341957464L88.48,140.80323857088524L89.32000000000001,140.3975813108632L89.60000000000001,139.86474589837619L90.16,140.08212083727932L91.28,139.1538149689313L91.56,138.33293325748286L91.84,137.45773713683553L92.4,136.76152857486923L92.68,135.18210527966212L93.80000000000001,134.6571505190943L94.08000000000001,134.65457005093793L94.36,134.79634007272182L94.92,134.80251801001418L95.2,134.04973880852123L95.48,133.4058600981934L95.76,133.00837419031652L98.28,132.89229772675162L98.55999999999999,132.60294877471992L99.96,132.48570323606575L101.92,132.59624890345177L102.2,132.54505094108774L103.32,131.59062670528283L103.6,130.33775867400266L103.88,129.73873546129482L104.44,129.99516777215698L105,130.79351555749594L106.12,131.37848819677993L108.64,131.98564038198464L108.92,131.75977774199905L109.2,131.27649094223057L109.48,131.02722187719948L110.32000000000001,130.6174285427375L111.16000000000001,131.36691986998957L112,130.77805636458703L113.96,130.7997815935604L114.24,130.9491372382747L114.52,131.051313772585L114.8,131.15153042315006L115.36,131.26743766645512L115.64,131.22798585134348L116.47999999999999,132.18362025572958L116.75999999999999,133.45492558407307L117.03999999999999,134.38736547982035L118.16,134.0418315484544L118.44,133.24085546964938L119.56,133.07548992701717L121.52,132.43374711617406L122.36,131.8663804475055L122.64,130.79138875158165L123.2,129.60496485406685L123.76,129.44170961149226L124.60000000000001,129.6964505415836L127.68,129.4956170724415L128.52,129.58993588700608L128.8,129.84154196602816L129.08,130.07551479353407L129.64000000000001,129.8694060546341L130.20000000000002,128.46582210768818L130.48000000000002,128.19912826697256L131.04000000000002,128.36455485294806L132.44,128.07858511478506L132.72,128.01457533999937L134.4,128.5913161282603L134.96,128.34768960669385L135.24,128.01790001811628L135.51999999999998,127.61653185101494L135.79999999999998,127.7329185087421L136.07999999999998,127.97942732179851L136.35999999999999,128.51949244560936L136.64,129.0061985966477L136.92,128.99428259730897L137.2,128.55790346033044L137.48,128.06287038838005L138.04,127.66569177367711L138.88,126.99055355585939L139.16,125.85013989510892L139.44,124.92050194070876L140,125.40079172844253L141.12,125.68424476878276L141.68,126.34838219986497L142.24,127.90445805899328L143.36,129.01578293835902L143.64000000000001,130.41251938813167L143.92000000000002,131.7346474820436L144.48000000000002,132.90102282471463L145.04,133.36537068392207L146.16,133.20844302862636L146.44,132.9262211062098L147.28,134.066145385678L147.84,134.75165190905403L148.12,135.77909642282893L148.4,137.39249416504032L148.68,138.594933522137L148.96,139.74136496587334L149.24,140.383358095606L149.8,140.28143387574738L150.08,140.308223676839L151.48000000000002,140.2237516063129L151.76000000000002,139.14657084140555L152.32000000000002,138.8339500088849L152.60000000000002,138.53898130377277L152.88000000000002,138.56100979617042L153.72,137.73685947230723L154.28,137.33221393502643L155.4,137.2279587470427L155.96,137.65437456260634L156.52,137.65313976881333L156.8,137.329286569786L157.08,137.3332550943255L157.92,138.18044079469448L159.04,137.72963412012757L159.32,137.43925099964153L159.88,137.39918440722988L160.72,137.05917279565568L161.83999999999997,136.92294667599174L163.23999999999998,137.6017851489259L165.2,136.59340739686843L165.48,135.52437958099006L166.04,134.83464496885475L166.32,133.9398223484198L166.6,133.92653345486977L166.88,133.91291586679876L167.16,133.08517314220694L167.44,132.6539801744978L168,132.22712374088792L168.28,132.32113415071672L169.4,131.64744924900887L169.68,130.78350194614796L170.79999999999998,130.06658481641364L171.64,128.74687418685846L172.2,127.81443768968198L172.48,126.90107564588774L172.76,125.85869808596658L173.6,124.47708220861625L173.88,123.95024872129112L174.16,123.40308441532251L174.44,122.39100130581866L174.72,121.28892704017392L175.28,120.34106415719116L175.56,119.4549247399073L175.84,118.17555872627202L176.4,116.45133497352424L176.68,114.77501880232364L176.96,113.56519236369792L177.24,112.29397098028848L177.52,111.02579050449054L177.8,110.5179856335055L178.36,110.90534667207305L178.64000000000001,110.90659389716305L180.6,110.59258047197218L181.44,109.73474407437003L181.72,108.53196381508161L182,107.94311983591237L182.56,106.88303833237374L183.4,106.61803035434184L183.96,106.12006202675279L184.52,105.7490687939162L185.64000000000001,106.37584707325617L186.76000000000002,106.95014224042488L187.04000000000002,107.85377343952051L187.60000000000002,108.65913262448618L187.88000000000002,109.17858139891274L188.16000000000003,109.30161252130178L188.44,109.83740737708153L188.72,109.7624734912883L190.12,109.49293753359973L191.8,109.5481768649177L192.36,110.28681274358325L192.64,110.84724797208334L192.92,111.56300132882922L193.2,111.84029045077003L193.76,110.69802562076522L194.6,109.63032806073511L194.88,108.65639587642738L195.72,107.81813800371702L196,106.64237687179485L196.28,105.33580250700028L196.83999999999997,104.06935108914315L197.39999999999998,103.0254092182724L198.23999999999998,101.6685847719088L199.07999999999998,101.61670053506876L199.92,101.31758723067107L200.2,100.48576882877474L200.48,99.29694815911304L201.04,98.27279819279383L201.32,97.29068923086918L201.6,96.34967736848972L202.16,95.4390670130589L202.44,95.29564141770169L202.72,95.65113931368671L204.12,94.11097886062876L205.24,93.78523020376223L205.51999999999998,93.57215948170297L206.07999999999998,93.39802598104964L206.64,93.46287183401347L207.2,93.05225323417793L207.48,91.41919552975735L207.76,90.10585847221742L208.04,88.92163738202919L208.32,88.73548569294992L208.6,88.31486973356691L209.16,87.58508029789867L209.72,87.07643396432346L210.28,86.58355121272047L211.12,87.13495735688372L211.68,87.2221710953128L211.96,86.94557486112475L212.24,86.61265218851429L213.36,87.73809944961427L213.92000000000002,87.67325678404991L214.20000000000002,87.82675626797221L214.76,88.83932302596L215.6,90.64174945982724L216.72,92.01993966626854L217.56,93.01870799198672L218.4,91.86613196897744L218.68,90.50890177328849L219.24,88.79861224638441L219.8,86.41480912987193L220.36,83.83490874594276L221.76000000000002,83.17601346950975L222.32000000000002,82.52468991909227L222.60000000000002,81.34429486547688L222.88000000000002,81.22169718209618L223.16000000000003,81.09924577936813L224,80.4866279539508L225.68,80.09855557447013L226.24,80.12041730370689L226.52,79.6763430559575L226.8,79.8892808460425L227.08,79.15857367700468L227.36,77.77858050863159L228.48,74.6552580819367L229.04,72.06973448460604L229.32,69.29901798426182L230.44,68.28127360334123L230.72,67.01601008954604L231,65.84721549296977L231.28,64.31630323672236L232.11999999999998,62.4640815684225L232.39999999999998,60.97031971579284L232.67999999999998,59.94000307518965L233.23999999999998,59.48471404545798L234.07999999999998,61.221321998440075L234.64,62.48258277546768L234.92,63.33916368104363L235.48,63.45380267515671L235.76,64.04593014951747L236.6,65.60448437394324L237.44,66.19355222647876L237.72,66.55468419649414L239.68,65.79082322890505L239.96,64.84721408460996L240.24,64.264363376066L240.51999999999998,64.14199614772066L240.79999999999998,64.11197134001085L241.07999999999998,63.86035400315302L241.35999999999999,62.82068023146212L241.92,61.79186525885548L242.2,60.70240669168865L242.48,60.01776088504256L243.32,58.25849397676569L243.6,56.508071795166984L243.88,55.08469622763819L244.16,53.39515148009848L244.72,52.30662765987579L246.4,51.32130116928518L246.68,50.025034455318064L247.52,48.287193123065975L249.48000000000002,46.89151014225365L250.32,46.56302571764218L252.28,45.33724338514196L252.56,43.718379265868464L252.84,42.975086749951515L253.4,41.72537222638712L253.68,40.34302854652918L253.96,38.46764806717428L254.8,37.193813175192815L255.08,36.47913605703184L255.64000000000001,36.7602831166848L256.2,37.98328362349719L256.48,38.78939888018937L257.6,39.707888293701245L257.88,40.84618051327644L258.44,42.098324154942105L259,41.832872119531345L259.28000000000003,42.21814383242244L259.56,42.53523183388552L259.84000000000003,42.84584766319841L260.68,43.320359078735606L260.96000000000004,43.31020344535014L261.24,43.284726336444635L262.08000000000004,44.31983920194807L262.36,44.03064437746707L264.59999999999997,44.01589836904941L265.44,45.363250599494194L265.71999999999997,46.08520016494009L266.28,45.98834606442517L266.84,45.82076293991051L267.12,46.26782420080093L267.96,47.034892807948154L268.24,48.755637028610295L268.8,48.075069607112795L269.08,47.76313956372661L269.36,46.836557139785185L269.64,46.51564788518115L270.48,46.790798415445295L272.71999999999997,44.49490007122577L273.28,42.086887130728314L273.84,40.09827151542902L274.4,38.34629472512037L274.68,36.917929337567244L274.96,34.789313633166245L275.52,31.818397240405346L276.08,30.690288027112643L276.36,29.684238717259035L276.64,28.336980802544787L277.48,26.54556504604605L278.04,26.525546204335L280,27.116250955461652L280.28,27.893274225412227L34.72,-1.113198199415308L35,8.4466986984186L36.120000000000005,16.870355900679357L37.24,24.99608700571497L37.52,31.57038678036872L37.800000000000004,37.789674367191225L38.92,42.442210729892025L39.2,47.489962088319004L39.76,53.567147501409806L40.04,58.508941608114384L40.599999999999994,62.8226399797215L40.879999999999995,67.1055140185357L41.16,71.5649179214884L41.72,75.62623892227197L42,78.90070344773349L42.28,81.99834688882015L42.56,85.58216919161339L43.4,88.05197554250515L43.96,90.21997248354836L44.24,92.51108564123739L45.92,94.2088262126965L46.2,95.44551877505305L46.480000000000004,96.61542993904236L47.6,97.5648034384901L48.16,99.28559645352937L48.72,101.2190871566327L49.839999999999996,103.15530823749135L50.12,104.81163627429216L50.4,107.14471552029397L51.8,108.29870303435493L52.64,109.99198832640396L53.2,111.11003261678178L53.480000000000004,112.14408389484514" style="fill: none;" fill="none"></path></g></g></g></g><g opacity="0.2"><g><g><g><path stroke="rgb(0, 119, 187)" stroke-width="2px" d="M29.96,80.0660470724106L32.760000000000005,134.0034002661705L33.6,187.56745374202728L35.28,140.23973888158798L38.64,126.91561257839203L39.76,124.60239565372467L40.32,154.02726715803146L40.879999999999995,133.7950006723404L41.16,120.09330427646637L41.72,128.19343602657318L43.4,131.51782995462418L43.68,122.71266198158264L43.96,135.1380600631237L44.24,127.32946759462357L46.760000000000005,142.7716732621193L48.44,151.3186559677124L48.72,140.20517802238464L49,145.50973942875862L49.279999999999994,153.1627151966095L50.68,151.04866749048233L52.92,133.94179812073708L54.88,126.58347821235657L57.12,96.47158032655717L57.959999999999994,126.2226448059082L58.239999999999995,124.169125020504L60.199999999999996,89.95459055900575L61.6,114.21928441524506L63.84,126.20285785198212L64.68,125.12099421024323L64.96000000000001,123.17765539884567L67.48,149.00444439053535L68.03999999999999,132.43047004938126L68.32,124.19365978240967L70.56,124.04804265499115L71.96000000000001,135.87353265285492L72.52,135.14443910121918L72.8,129.41749519109726L73.92,142.47903323173523L75.32000000000001,134.64288225769997L75.60000000000001,134.52859005331993L76.44000000000001,130.02235001325607L78.12,120.94706094264984L78.4,122.20236545801163L78.96,123.99899965524673L79.8,136.38351088762283L80.36,132.49813294410706L80.64,124.25455904006958L81.19999999999999,124.36039006710052L81.75999999999999,131.1031792163849L82.03999999999999,136.9053586423397L28.56,305.93750132620335L30.8,158.8755483031273L31.080000000000002,120.50686752796173L31.36,163.90065214037895L32.480000000000004,160.2819206416607L35.56,169.41749891638756L37.24,196.88714882731438L38.080000000000005,122.70796722173691L38.64,136.47133207321167L39.48,108.06588655710222L42.839999999999996,124.18562299013138L44.52,133.5657531619072L45.92,160.65846955776215L46.2,157.31016418337822L46.760000000000005,164.53298589587212L47.88,142.78754791617393L49,129.62812280654907L49.559999999999995,132.688894033432L50.96,142.58746361732483L54.88,122.1502456665039L56.28,134.7056116759777L56.56,126.24129122495651L57.68,125.97406125068665L57.959999999999994,129.50791573524475L59.08,124.44776034355164L59.36,130.37718898057938L59.92,127.54330462217331L60.76,120.14632588624954L62.160000000000004,122.31740033626556L62.44,131.779410302639L64.12,142.3528847694397L64.4,124.78008037805557L64.68,122.87082499265671L65.52000000000001,134.6791406571865L68.03999999999999,135.54167678952217L70.28,130.39281165599823L74.76,169.5745346546173L75.88000000000001,153.3831169307232L77.56,148.80075281858444L78.68,143.53881558775902L79.24,150.60322231054306L81.19999999999999,137.35254114866257L82.6,133.4867644906044L82.88,129.89938443899155L87.36,133.5565493106842L89.32000000000001,109.0650481581688L91,145.73717004060745L91.28,136.16970038414001L91.84,132.60308867692947L93.52000000000001,117.41341865062714L96.04,104.14303010702135L96.6,115.84857827425003L96.88,119.76695215702057L97.72,118.81611740589142L99.39999999999999,140.23989802598953L101.92,163.01988071203232L102.75999999999999,138.57203817367554L103.03999999999999,129.72108966112137L105.56,141.36255568265915L105.84,148.9200580716133L109.76,140.92473617196083L110.04,134.6197665333748L110.60000000000001,148.5465328991413L111.16000000000001,143.46269151568413L115.08,132.61754429340363L116.47999999999999,138.9096895456314L117.03999999999999,140.3849714100361L117.88,130.0085044503212L120.12,121.94022810459137L121.8,120.56946432590485L122.36,119.07867914438248L123.2,128.04874724149704L124.88,121.90083986520767L126.28,110.46249514818193L126.56,107.20374828577043L129.08,106.78063637018205L129.64000000000001,96.28230458498003L130.76000000000002,107.48376286029817L131.04000000000002,110.08537596464159L132.44,104.0758446455002L133.56,105.12794828414918L133.84,104.37644189596178L135.24,123.07299143075943L135.79999999999998,121.09755849838257L136.07999999999998,118.74909108877182L136.64,97.35488480329515L137.2,95.87871438264848L137.48,99.64083498716356L138.88,110.44461792707445L139.16,104.40641409158708L141.12,110.28597748279573L141.68,118.98515528440475L143.36,107.516732275486L143.92000000000002,95.01243835687639L145.32,118.0222520828247L146.72,113.31409758329393L147.28,115.75879430770874L150.64000000000001,109.10106784105302L152.60000000000002,116.26076227426529L152.88000000000002,112.42217278480531L153.44,130.06407237052917L153.72,135.431853890419L154,149.1449158489704L154.28,139.2366782426834L154.84,124.51857960224152L155.68,137.80212408304214L156.8,143.21177384257317L158.2,126.9654513001442L159.04,123.89696156978607L160.16,146.3943833708763L161,135.86344024538994L161.28,126.29646128416061L161.83999999999997,113.70503580570222L162.11999999999998,118.46578752994537L162.95999999999998,99.14974188804628L163.23999999999998,84.6412099003792L164.07999999999998,83.82676190137865L164.35999999999999,91.57534366846086L165.76,83.2283259034157L166.04,93.81800657510759L168,97.3289973139763L168.84,111.60915708541872L169.96,96.14170050621034L170.79999999999998,86.99171966314317L171.35999999999999,77.81296020746233L171.92,90.89661931991579L173.04,81.9516164660454L174.16,122.85231119394302L175,109.76626491546632L175.28,97.06704562902452L175.56,97.92910432815553L175.84,95.92369920015337L177.52,103.62628823518754L179.20000000000002,117.86740458011627L179.76,110.26884293556215L180.04,98.68570333719255L181.16,106.43325066566469L182,106.31458199024202L182.28,106.2518790960312L183.12,91.40227413177492L183.4,87.26828610897066L183.68,89.11019688844682L184.24,86.6973820924759L184.8,83.02043026685716L187.32000000000002,95.55981552600862L187.60000000000002,107.69759988784791L188.44,93.0519119501114L188.72,96.37898480892183L189,99.37333977222444L189.56,103.63241529464723L189.84,101.05666315555574L191.52,80.75079238414766L192.64,95.56262707710268L192.92,90.02572810649873L193.48,103.29208499193193L194.04,101.80034494400026L194.88,96.19580960273744L195.16,91.5824786424637L195.44,92.99297547340394L195.72,94.26241731643678L196.56,81.1645413041115L197.67999999999998,91.07430404424669L198.51999999999998,84.99596929550172L199.07999999999998,85.61679160594942L199.35999999999999,87.62386775016786L199.64,81.08648097515108L201.32,98.95701801776887L201.6,96.84880560636522L202.16,93.8000232577324L203,78.75589078664781L204.12,93.04339772462846L204.96,84.10056984424592L205.79999999999998,65.53122973442079L206.07999999999998,77.89059615135194L207.2,72.40974253416063L207.76,78.45439171791078L209.16,70.32264328002931L210,62.82964742183687L215.88,50.4630664587021L216.44,70.33123707771303L216.72,68.3043739795685L217.84,58.401454448699965L218.4,50.06130641698839L219.52,61.40368705987932L220.08,53.62356817722322L220.64000000000001,49.47491234540942L221.48000000000002,45.85164523124698L222.32000000000002,45.20562505722049L224,59.424885571002974L225.12,79.34201961755754L227.08,72.30836755037309L227.36,78.4275228381157L227.64,78.37227320671083L227.92,65.94150400161745L229.32,55.30296599864961L229.88,42.20434731245044L230.72,43.58834660053256L231,38.67325133085254L231.28,34.249673545360594L231.56,27.487203538417845L233.79999999999998,27.389701068401365L234.07999999999998,31.541062355041532L234.92,53.60943084955217L236.88,32.89148217439654L237.72,26.913302302360563L240.24,22.891431510448484L240.79999999999998,38.06643372774127L241.07999999999998,42.04729831218722L241.35999999999999,53.97381848096849L242.2,51.02887785434724L242.48,59.27597945928575L243.6,93.3726409673691L245,87.47437810897829L245.28,86.51444560289384L246.4,96.07456809282304L246.68,77.56710863113405L246.96,77.59790307283403L247.24,85.96937602758409L248.08,80.11352515220644L248.36,85.45218324661256L248.64000000000001,79.13197553157808L249.48000000000002,71.50357431173326L249.76,74.11449736356737L252,42.132944524288206L253.12,72.80590599775316L253.68,36.75147658586505L254.24,50.96182501316072L254.52,42.52815312147143L255.36,26.44430375099185L256.48,29.105224668979673L256.76,36.76346546411517L257.04,29.749626874923734L257.88,61.80637544393541L260.12,60.690985381603255L260.68,69.51846009492876L261.8,32.54563486576083L262.08000000000004,25.95358198881152L262.91999999999996,30.262124896049528L263.47999999999996,32.14910006523135L264.03999999999996,45.28702741861346L265.44,6.40810316801074L268.52,17.073165237903623L269.08,28.83186763525012L270.76,32.44266843795779L271.03999999999996,30.346789717674284L271.59999999999997,8.962821722030668L272.15999999999997,1.7529968023300455L273.28,-4.709645152091952L274.4,13.573022842407255L274.96,19.88697087764743L276.36,34.4146532416344L276.64,47.10442996025088L276.92,55.02624040842058L279.16,18.417298853397398L280.84,26.531010925769834" style="fill: none;" fill="none"></path></g><g><path stroke="rgb(255, 112, 67)" stroke-width="2px" d="M29.4,56.67526817321779L29.68,159.70099052786827L30.8,72.95860505104066L31.080000000000002,101.63610792160036L31.64,92.49456173181535L31.92,106.3333079814911L32.2,147.85786202549934L33.04,158.6921609044075L33.32,141.0239361822605L33.6,147.54526263475418L34.72,169.89131158590317L37.24,162.0754382610321L37.52,179.79141956567764L38.080000000000005,175.38476413488388L39.2,142.12135618925095L39.76,153.48231694102287L40.32,149.6258502304554L40.599999999999994,113.82736480236055L41.16,118.44027137756348L41.72,118.7278983592987L42,106.54154843091966L42.839999999999996,127.74478143453598L43.12,120.50562089681625L43.4,126.33518642187119L43.68,126.3334093093872L43.96,130.30708587169647L45.08,119.39473992586136L45.64,112.48872166872026L46.2,120.02412950992584L46.480000000000004,128.42828011512756L46.760000000000005,119.0243843793869L47.040000000000006,130.61935371160507L47.88,132.50256246328354L48.16,138.87258237600327L48.44,147.5464562177658L48.72,146.00477135181427L50.12,142.5144295990467L51.519999999999996,146.1393412053585L51.8,144.1576618552208L52.08,145.87314566969872L52.36,139.0733297765255L52.64,138.5159928202629L52.92,138.0143961906433L54.32,149.28936591744423L56.56,146.5843487381935L57.4,138.83161595463753L57.68,126.0968411564827L59.64,136.81464633345604L60.48,128.35138684511185L61.04,128.77338474988937L61.32,134.27024564146996L28.84,160.3011373281479L29.119999999999997,119.34092259407043L29.4,90.63373929262163L30.24,194.67746859788895L30.52,177.01366013288498L32.480000000000004,129.9981335401535L33.04,135.11536872386932L33.6,124.29771369695663L33.879999999999995,160.56571489572525L34.16,133.06696808338165L34.44,149.34188356995583L36.120000000000005,95.9439635872841L28.56,130.71876591444016L29.119999999999997,144.75142961740494L29.68,90.72543299198152L29.96,94.85790914297105L30.24,128.70598709583282L31.080000000000002,194.38657915592194L31.92,130.12643045186996L32.480000000000004,92.1507833003998L32.760000000000005,127.0614949464798L33.6,94.35941582918169L35,87.0785859823227L35.28,121.45300751924515L35.56,146.00616386532784L36.120000000000005,146.02965092658997L36.96,119.30384194850922L37.52,135.40572768449783L37.800000000000004,139.51360276341438L38.36,121.1939469575882L38.92,140.5482535660267L39.2,134.0118614435196L41.16,136.0514693558216L43.4,137.66711658239365L43.68,136.0717867910862L43.96,142.67227432131767L45.08,126.684534907341L45.92,116.95463186502457L46.760000000000005,130.20443773269653L47.040000000000006,127.30111336708069L47.88,121.11607229709625L48.16,125.63816046714783L48.72,127.27870053052902L49,112.87422245740892L49.279999999999994,124.0238527059555L49.839999999999996,124.76512080430984L50.68,131.54774910211563L50.96,117.83671623468399L51.24,111.05928665399553L52.08,104.61972063779832L54.32,104.9985638856888L54.88,115.42008197307587L55.440000000000005,128.1500426530838L57.12,118.39449083805084L57.959999999999994,108.85816043615343L58.239999999999995,114.103586435318L58.519999999999996,118.82447248697281L58.8,106.38577258586885L59.36,105.4456270337105L60.48,119.29161435365677L61.04,119.20994675159454L61.6,128.60004997253418L62.160000000000004,145.10604313015938L63.56,126.78341662883759L64.12,125.55643981695175L65.24000000000001,136.62419027090073L66.64,131.55981755256653L67.2,115.82412308454514L67.48,105.39008563756944L68.88,115.77996051311493L69.16,119.70520412921906L69.44,128.97984808683395L70,135.40119206905365L70.28,146.3360702097416L70.56,142.27121716737747L71.68,119.90787452459335L71.96000000000001,121.26710033416748L72.52,133.8819863498211L73.36,144.34094315767288L74.48,121.53891897201538L74.76,122.73502177000046L75.04,128.83571630716324L75.32000000000001,128.5844007730484L75.88000000000001,147.3183757662773L76.72,138.5395329296589L77,137.31783440709114L77.28,133.34735399484634L78.12,140.42528799176216L78.4,131.3890025615692L78.96,147.1946277320385L80.64,144.12349885702133L81.19999999999999,149.64132702350616L82.03999999999999,163.12266147136688L82.32,151.8166453242302L82.88,150.8575483262539L83.16,154.14598888158798L84.56,153.74657621979713L84.84,159.61708164215088L85.39999999999999,159.3739885687828L85.96,160.0204331278801L86.24,154.5871371626854L86.52,141.35341814160347L87.36,130.24618661403656L88.48,136.06547406315804L89.32000000000001,133.29236960411072L89.60000000000001,130.53187733888626L90.16,143.88958311080933L91.28,122.8937948346138L91.56,123.95441269874573L91.84,122.12772673368454L92.4,124.56658816337585L92.68,107.51638746261598L93.80000000000001,125.46180194616318L94.08000000000001,134.60936909914017L94.36,137.27967953681946L94.92,134.91073554754257L95.2,120.86340403556824L95.48,122.12706363201141L95.76,126.0455966591835L98.28,130.85897213220596L98.55999999999999,127.53436601161957L99.96,130.43188160657883L101.92,134.53271454572678L102.2,131.6481957435608L103.32,114.87153774499893L103.6,108.39062070846559L103.88,119.24530333280563L104.44,134.48725229501724L105,144.77870962023735L106.12,141.62587335705757L108.64,142.6215868294239L108.92,127.80316090583801L109.2,122.8103501200676L109.48,126.66055715084076L110.32000000000001,123.438705265522L111.16000000000001,144.4964670240879L112,120.4623601436615L113.96,131.18036425113678L114.24,133.56555423140526L114.52,132.8412482738495L114.8,132.9071340560913L115.36,133.29791313409805L115.64,130.53686386346817L116.47999999999999,148.92456716299057L116.75999999999999,155.7258684039116L117.03999999999999,150.72202360630035L118.16,127.98869675397873L118.44,119.20917755365372L119.56,130.1785767674446L121.52,121.19153326749802L122.36,121.92709869146347L122.64,111.95938086509706L123.2,108.82084107398988L123.76,126.58175414800644L124.60000000000001,134.15908327698708L127.68,125.97735023498535L128.52,131.24224489927292L128.8,134.24926510453224L129.08,134.17433461546898L129.64000000000001,126.25871753692627L130.20000000000002,103.8773120045662L130.48000000000002,123.52708345651627L131.04000000000002,131.2625623345375L132.44,123.06885367631912L132.72,126.89322626590729L134.4,138.69489765167236L134.96,124.07973891496658L135.24,122.24050706624985L135.51999999999998,120.5851930975914L135.79999999999998,129.771830201149L136.07999999999998,132.29787623882294L136.35999999999999,137.98059126734734L136.64,137.53253346681595L136.92,128.78553277254105L137.2,120.91321623325348L137.48,119.3906552195549L138.04,120.70773428678513L138.88,115.16316986083984L139.16,105.8718422651291L139.44,108.63466864824296L140,133.81473457813263L141.12,130.64990943670273L141.68,137.98305800557137L142.24,155.16453957557678L143.36,148.48450636863708L143.64000000000001,154.88122275471687L143.92000000000002,154.8963282108307L144.48000000000002,153.33415350317955L145.04,141.50004318356514L146.16,130.45930749177933L146.44,127.98211878538132L147.28,154.03590074181557L147.84,146.7606939971447L148.12,153.77837857604027L148.4,165.65679734945297L148.68,159.65986496210098L148.96,159.8251231610775L149.24,151.6301148235798L149.8,138.49587431550026L150.08,140.77754086256027L151.48000000000002,138.74392738938332L151.76000000000002,120.27597552537918L152.32000000000002,133.35730051994324L152.60000000000002,133.3715704679489L152.88000000000002,138.94691607356071L153.72,123.29897648096085L154.28,130.24342811107635L155.4,135.4015634059906L155.96,145.1245436668396L156.52,137.63150802254677L156.8,131.65586119890213L157.08,137.4027777314186L157.92,153.0218724012375L159.04,129.83217245340347L159.32,132.3521710038185L159.88,136.6972773373127L160.72,131.1026752591133L161.83999999999997,134.53646770119667L163.23999999999998,149.4940256178379L165.2,118.9281285405159L165.48,116.79660147428513L166.04,122.75151973962784L166.32,118.26385980844498L166.6,133.69373178482056L166.88,133.6743559539318L167.16,118.58435010910034L167.44,125.10011976957321L168,124.74923288822174L168.28,133.96805694699287L169.4,119.84548991918564L169.68,115.64842766523361L170.79999999999998,117.50726079940796L171.64,105.62750256061555L172.2,111.479533970356L172.48,110.90032792091371L172.76,107.59778982400896L173.6,100.27322179079057L173.88,114.72090756893158L174.16,113.8175774216652L174.44,104.66080641746522L174.72,101.98222047090532L175.28,103.73591220378877L175.56,103.93107628822328L175.84,95.76296335458757L176.4,86.24549156427385L176.68,85.40844506025316L176.96,92.37082695961L177.24,90.02405709028245L177.52,88.80914872884752L177.8,101.62199711799623L178.36,117.6913378238678L178.64000000000001,110.92844343185426L180.6,105.09153074026109L181.44,94.70672196149827L181.72,87.46103650331499L182,97.62744611501695L182.56,88.3119816184044L183.4,101.97548335790636L183.96,97.39639496803285L184.52,99.24981719255449L185.64000000000001,117.35607361793518L186.76000000000002,117.01094245910645L187.04000000000002,123.6840528845787L187.60000000000002,122.76783204078674L187.88000000000002,118.27855414152145L188.16000000000003,111.45693546533586L188.44,119.22373926639557L188.72,108.44974285364152L190.12,104.77106696367265L191.8,110.51588809490205L192.36,123.22661882638931L192.64,120.6652427315712L192.92,124.10193955898285L193.2,116.6979849934578L193.76,90.68723833560945L194.6,90.92584884166719L194.88,91.5945470929146L195.72,93.13310211896898L196,86.044783949852L196.28,82.4465555548668L196.83999999999997,81.88299870491029L197.39999999999998,84.73709440231325L198.23999999999998,77.89903080463411L199.07999999999998,100.70776557922365L199.92,96.07756531238557L200.2,85.91354286670686L200.48,78.47057139873506L201.04,80.33120816946031L201.32,80.08559530973436L201.6,79.864543735981L202.16,79.4865227341652L202.44,92.78303748369218L202.72,101.87893575429918L204.12,67.12964957952501L205.24,88.0785963535309L205.51999999999998,89.83947610855104L206.07999999999998,90.34746503829957L206.64,94.59887510538103L207.2,85.85882371664049L207.48,62.81044399738313L207.76,67.09813898801805L208.04,68.17583835124971L208.32,85.47438389062883L208.6,80.9463012814522L209.16,74.80025058984758L209.72,78.16570377349855L210.28,77.94897562265398L211.12,96.7947760820389L211.68,88.75002658367158L211.96,82.10001862049104L212.24,80.78034019470216L213.36,107.45426809787752L213.92000000000002,86.53730934858324L214.20000000000002,90.51583981513978L214.76,106.57799249887468L215.6,122.2175902724266L216.72,116.16379028558731L217.56,110.51564937829973L218.4,71.67470759153368L218.68,66.732239484787L219.24,58.83687353134157L219.8,44.65411013364795L220.36,38.638876140117674L221.76000000000002,71.63314437866212L222.32000000000002,71.1144662499428L222.60000000000002,60.66552227735521L222.88000000000002,79.073967397213L223.16000000000003,78.95407861471178L224,69.75447124242784L225.68,73.30010241270067L226.24,80.50340241193773L226.52,71.89682012796403L226.8,83.61963546276094L227.08,66.35766661167146L227.36,53.60314464569093L228.48,19.939276337623625L229.04,26.775191485881834L229.32,20.76016968488696L230.44,50.451899826526656L230.72,44.850467801094084L231,45.37166571617129L231.28,37.4969885349274L232.11999999999998,30.0159019827843L232.39999999999998,34.801825046539335L232.67999999999998,41.890381932258634L233.23999999999998,51.5087247490883L234.07999999999998,91.64412057399751L234.64,84.5780030488968L234.92,78.34519213438035L235.48,65.46210801601411L235.76,74.41912627220155L236.6,92.90804541110994L237.44,76.51314830780031L237.72,72.88118129968645L239.68,52.40911072492601L239.96,48.316579818725614L240.24,54.05368244647981L240.51999999999998,61.99830359220506L240.79999999999998,63.585981190204635L241.07999999999998,59.45239102840425L241.35999999999999,44.607136011123686L241.92,43.76855111122134L242.2,41.61670660972598L242.48,48.02378064394L243.32,27.43874406814578L243.6,25.843268394470243L243.88,30.149264991283445L244.16,23.796830534935026L244.72,33.23730295896533L246.4,34.05984079837802L246.68,27.316362023353605L247.52,17.84278756380084L249.48000000000002,22.441211998462705L250.32,40.80846524238589L252.28,23.86335289478305L252.56,15.358278214931516L252.84,29.95370304584506L253.4,19.832225203514128L253.68,16.12641519308093L253.96,5.613760411739378L254.8,14.878113031387358L255.08,23.959051728248625L255.64000000000001,41.68556308746341L256.2,59.408440649509444L256.48,52.91134393215181L257.6,55.79846209287645L257.88,60.78737384080888L258.44,64.03402572870256L259,37.18254572153094L259.28000000000003,48.96753346920016L259.56,48.09014385938647L259.84000000000003,48.287376821041136L260.68,51.633096098899856L260.96000000000004,43.13229179382327L261.24,42.83840513229373L262.08000000000004,62.453483104705825L262.36,38.96437948942187L264.59999999999997,43.75757014751437L265.44,68.96686559915544L265.71999999999997,58.732686996459975L266.28,44.291605710983305L266.84,42.88495486974719L267.12,54.099675178527846L267.96,60.4727984070778L268.24,78.9005265235901L268.8,36.15253663063052L269.08,42.298587322235136L269.36,30.604205787181883L269.64,40.893793165683775L270.48,51.611028075218215L272.71999999999997,4.274162411689787L273.28,-0.09793215990063686L273.84,5.260672032833128L274.4,7.654256880283384L274.68,11.895083844661741L274.96,-2.5008800029754354L275.52,-20.22765660285947L276.08,10.92748588323596L276.36,12.059745252132444L276.64,4.73501807451251L277.48,-4.837385058402987L278.04,26.17484575510028L280,37.46452307701114L280.28,41.505570769310026L29.4,217.13198772072792L29.68,163.368566095829L29.96,123.91515707969666L30.8,203.1549715101719L31.36,109.23212325572969L32.2,122.27798557281494L32.480000000000004,112.3236889243126L33.32,103.29513525962831L33.879999999999995,141.04459843039513L34.44,122.70502305030823L34.72,141.13131886720657L35,175.92192953824997L36.120000000000005,164.44035059213638L37.24,167.34685784578323L37.52,146.74237912893295L37.800000000000004,146.74237912893295L38.92,123.94775515794754L39.2,135.9190877377987L39.76,160.03043270111084L40.04,145.08185318112373L40.599999999999994,138.3922447860241L40.879999999999995,142.13512217998505L41.16,149.6870677769184L41.72,146.7745660841465L42,136.2644708752632L42.28,136.2644708752632L42.56,148.36542657017708L43.4,131.3193238377571L43.96,128.20006704330444L44.24,132.64799392223358L45.92,123.95072585344315L46.2,117.11054033041L46.480000000000004,117.11054033041L47.6,114.19642066955566L48.16,129.43134075403214L48.72,135.09097984433174L49.839999999999996,137.07503309845924L50.12,133.828049659729L50.4,148.0168074965477L51.8,128.51485466957092L52.64,139.65583807229996L53.2,130.69651222229004L53.480000000000004,130.25913035869598" style="fill: none;" fill="none"></path></g></g></g></g></g></g><g transform="translate(50, 178)" clip-path="url(#clip_1)"><clipPath id="clip_1"><rect width="280" height="22"></rect></clipPath><g><g><line x1="0" y1="0" x2="0" y2="5" style="visibility: inherit;" fill="rgb(0, 0, 0)" stroke="rgb(204, 204, 204)" stroke-width="1px"></line><line x1="28" y1="0" x2="28" y2="5" style="visibility: inherit;" fill="rgb(0, 0, 0)" stroke="rgb(204, 204, 204)" stroke-width="1px"></line><line x1="56" y1="0" x2="56" y2="5" style="visibility: inherit;" fill="rgb(0, 0, 0)" stroke="rgb(204, 204, 204)" stroke-width="1px"></line><line x1="84" y1="0" x2="84" y2="5" style="visibility: inherit;" fill="rgb(0, 0, 0)" stroke="rgb(204, 204, 204)" stroke-width="1px"></line><line x1="112" y1="0" x2="112" y2="5" style="visibility: inherit;" fill="rgb(0, 0, 0)" stroke="rgb(204, 204, 204)" stroke-width="1px"></line><line x1="140" y1="0" x2="140" y2="5" style="visibility: inherit;" fill="rgb(0, 0, 0)" stroke="rgb(204, 204, 204)" stroke-width="1px"></line><line x1="168" y1="0" x2="168" y2="5" style="visibility: inherit;" fill="rgb(0, 0, 0)" stroke="rgb(204, 204, 204)" stroke-width="1px"></line><line x1="196" y1="0" x2="196" y2="5" style="visibility: inherit;" fill="rgb(0, 0, 0)" stroke="rgb(204, 204, 204)" stroke-width="1px"></line><line x1="224" y1="0" x2="224" y2="5" style="visibility: inherit;" fill="rgb(0, 0, 0)" stroke="rgb(204, 204, 204)" stroke-width="1px"></line><line x1="252" y1="0" x2="252" y2="5" style="visibility: inherit;" fill="rgb(0, 0, 0)" stroke="rgb(204, 204, 204)" stroke-width="1px"></line><line x1="280" y1="0" x2="280" y2="5" style="visibility: inherit;" fill="rgb(0, 0, 0)" stroke="rgb(204, 204, 204)" stroke-width="1px"></line></g><g transform="translate(0, 8)"><text x="0" y="0" dx="0em" dy="0.95em" style="text-anchor: middle; visibility: hidden; font-family: &quot;Helvetica Neue&quot;, sans-serif; font-size: 12px; font-weight: 200;" fill="rgb(50, 49, 63)" stroke="none" stroke-width="1px">-100</text><text x="28" y="0" dx="0em" dy="0.95em" style="text-anchor: middle; visibility: inherit; font-family: &quot;Helvetica Neue&quot;, sans-serif; font-size: 12px; font-weight: 200;" fill="rgb(50, 49, 63)" stroke="none" stroke-width="1px">0</text><text x="56" y="0" dx="0em" dy="0.95em" style="text-anchor: middle; visibility: inherit; font-family: &quot;Helvetica Neue&quot;, sans-serif; font-size: 12px; font-weight: 200;" fill="rgb(50, 49, 63)" stroke="none" stroke-width="1px">100</text><text x="84" y="0" dx="0em" dy="0.95em" style="text-anchor: middle; visibility: inherit; font-family: &quot;Helvetica Neue&quot;, sans-serif; font-size: 12px; font-weight: 200;" fill="rgb(50, 49, 63)" stroke="none" stroke-width="1px">200</text><text x="112" y="0" dx="0em" dy="0.95em" style="text-anchor: middle; visibility: inherit; font-family: &quot;Helvetica Neue&quot;, sans-serif; font-size: 12px; font-weight: 200;" fill="rgb(50, 49, 63)" stroke="none" stroke-width="1px">300</text><text x="140" y="0" dx="0em" dy="0.95em" style="text-anchor: middle; visibility: inherit; font-family: &quot;Helvetica Neue&quot;, sans-serif; font-size: 12px; font-weight: 200;" fill="rgb(50, 49, 63)" stroke="none" stroke-width="1px">400</text><text x="168" y="0" dx="0em" dy="0.95em" style="text-anchor: middle; visibility: inherit; font-family: &quot;Helvetica Neue&quot;, sans-serif; font-size: 12px; font-weight: 200;" fill="rgb(50, 49, 63)" stroke="none" stroke-width="1px">500</text><text x="196" y="0" dx="0em" dy="0.95em" style="text-anchor: middle; visibility: inherit; font-family: &quot;Helvetica Neue&quot;, sans-serif; font-size: 12px; font-weight: 200;" fill="rgb(50, 49, 63)" stroke="none" stroke-width="1px">600</text><text x="224" y="0" dx="0em" dy="0.95em" style="text-anchor: middle; visibility: inherit; font-family: &quot;Helvetica Neue&quot;, sans-serif; font-size: 12px; font-weight: 200;" fill="rgb(50, 49, 63)" stroke="none" stroke-width="1px">700</text><text x="252" y="0" dx="0em" dy="0.95em" style="text-anchor: middle; visibility: inherit; font-family: &quot;Helvetica Neue&quot;, sans-serif; font-size: 12px; font-weight: 200;" fill="rgb(50, 49, 63)" stroke="none" stroke-width="1px">800</text><text x="280" y="0" dx="0em" dy="0.95em" style="text-anchor: middle; visibility: hidden; font-family: &quot;Helvetica Neue&quot;, sans-serif; font-size: 12px; font-weight: 200;" fill="rgb(50, 49, 63)" stroke="none" stroke-width="1px">900</text></g><line x1="0" y1="0" x2="280" y2="0" fill="rgb(0, 0, 0)" stroke="rgb(204, 204, 204)" stroke-width="1px"></line></g></g></g></g></svg>